<svg width="5312" height="2424" xmlns="http://www.w3.org/2000/svg" xmlns:xlink="http://www.w3.org/1999/xlink" xml:space="preserve" overflow="hidden"><defs><clipPath id="clip0"><rect x="2128" y="3939" width="5312" height="2424"/></clipPath></defs><g clip-path="url(#clip0)" transform="translate(-2128 -3939)"><g><path d="M1.71875-2.80291e-07 1.71911 2194.69-1.71839 2194.69-1.71875 2.80291e-07ZM0.000357903 2194.67 13.7504 2185.5 0.000360892 2213-13.7496 2185.5Z" fill="#262626" transform="matrix(1 0 0 -1 2331.5 6153.5)"/></g><g><path d="M2646 5981C2646 5909.2 2704.2 5851 2776 5851 2847.8 5851 2906 5909.2 2906 5981 2906 6052.8 2847.8 6111 2776 6111 2704.2 6111 2646 6052.8 2646 5981Z" fill="#549E39" fill-rule="evenodd" fill-opacity="0.74902"/></g><g><path d="M2644 5956.5C2644 5883.87 2702.87 5825 2775.5 5825 2848.13 5825 2907 5883.87 2907 5956.5 2907 6029.13 2848.13 6088 2775.5 6088 2702.87 6088 2644 6029.13 2644 5956.5Z" fill="#549E39" fill-rule="evenodd" fill-opacity="0.74902"/></g><g><path d="M2590 5071.5C2590 4969.05 2673.05 4886 2775.5 4886 2877.95 4886 2961 4969.05 2961 5071.5 2961 5173.95 2877.95 5257 2775.5 5257 2673.05 5257 2590 5173.95 2590 5071.5Z" fill="#549E39" fill-rule="evenodd" fill-opacity="0.74902"/></g><g><path d="M2555 4481.5C2555 4359.17 2653.95 4260 2776 4260 2898.05 4260 2997 4359.17 2997 4481.5 2997 4603.83 2898.05 4703 2776 4703 2653.95 4703 2555 4603.83 2555 4481.5Z" fill="#549E39" fill-rule="evenodd" fill-opacity="0.74902"/></g><g><path d="M3527 5858.5C3527 5782.56 3588.56 5721 3664.5 5721 3740.44 5721 3802 5782.56 3802 5858.5 3802 5934.44 3740.44 5996 3664.5 5996 3588.56 5996 3527 5934.44 3527 5858.5Z" fill="#8AB833" fill-rule="evenodd" fill-opacity="0.74902"/></g><g><path d="M3509 5563.5C3509 5477.62 3578.62 5408 3664.5 5408 3750.38 5408 3820 5477.62 3820 5563.5 3820 5649.38 3750.38 5719 3664.5 5719 3578.62 5719 3509 5649.38 3509 5563.5Z" fill="#8AB833" fill-rule="evenodd" fill-opacity="0.74902"/></g><g><path d="M3473 4973.5C3473 4867.74 3558.51 4782 3664 4782 3769.49 4782 3855 4867.74 3855 4973.5 3855 5079.26 3769.49 5165 3664 5165 3558.51 5165 3473 5079.26 3473 4973.5Z" fill="#8AB833" fill-rule="evenodd" fill-opacity="0.74902"/></g><g><path d="M4184 5710.5C4184 5629.59 4249.59 5564 4330.5 5564 4411.41 5564 4477 5629.59 4477 5710.5 4477 5791.41 4411.41 5857 4330.5 5857 4249.59 5857 4184 5791.41 4184 5710.5Z" fill="#C0CF3A" fill-rule="evenodd" fill-opacity="0.74902"/></g><g><path d="M4145 5071.5C4145 4969.05 4228.05 4886 4330.5 4886 4432.95 4886 4516 4969.05 4516 5071.5 4516 5173.95 4432.95 5257 4330.5 5257 4228.05 5257 4145 5173.95 4145 5071.5Z" fill="#C0CF3A" fill-rule="evenodd" fill-opacity="0.74902"/></g><g><path d="M4130 4825.5C4130 4714.77 4219.77 4625 4330.5 4625 4441.23 4625 4531 4714.77 4531 4825.5 4531 4936.23 4441.23 5026 4330.5 5026 4219.77 5026 4130 4936.23 4130 4825.5Z" fill="#C0CF3A" fill-rule="evenodd" fill-opacity="0.74902"/></g><g><path d="M4109 4481.5C4109 4359.17 4208.17 4260 4330.5 4260 4452.83 4260 4552 4359.17 4552 4481.5 4552 4603.83 4452.83 4703 4330.5 4703 4208.17 4703 4109 4603.83 4109 4481.5Z" fill="#C0CF3A" fill-rule="evenodd" fill-opacity="0.74902"/></g><g><path d="M4100 4334C4100 4206.97 4203.2 4104 4330.5 4104 4457.8 4104 4561 4206.97 4561 4334 4561 4461.03 4457.8 4564 4330.5 4564 4203.2 4564 4100 4461.03 4100 4334Z" fill="#C0CF3A" fill-rule="evenodd" fill-opacity="0.74902"/></g><g><path d="M5066 5612.5C5066 5528.28 5134.28 5460 5218.5 5460 5302.72 5460 5371 5528.28 5371 5612.5 5371 5696.72 5302.72 5765 5218.5 5765 5134.28 5765 5066 5696.72 5066 5612.5Z" fill="#029676" fill-rule="evenodd" fill-opacity="0.74902"/></g><g><path d="M5063 5563.5C5063 5477.62 5132.62 5408 5218.5 5408 5304.38 5408 5374 5477.62 5374 5563.5 5374 5649.38 5304.38 5719 5218.5 5719 5132.62 5719 5063 5649.38 5063 5563.5Z" fill="#029676" fill-rule="evenodd" fill-opacity="0.74902"/></g><g><path d="M5063 5563.5C5063 5477.62 5132.62 5408 5218.5 5408 5304.38 5408 5374 5477.62 5374 5563.5 5374 5649.38 5304.38 5719 5218.5 5719 5132.62 5719 5063 5649.38 5063 5563.5Z" fill="#029676" fill-rule="evenodd" fill-opacity="0.74902"/></g><g><path d="M5031 5022.5C5031 4918.39 5115.17 4834 5219 4834 5322.83 4834 5407 4918.39 5407 5022.5 5407 5126.61 5322.83 5211 5219 5211 5115.17 5211 5031 5126.61 5031 5022.5Z" fill="#029676" fill-rule="evenodd" fill-opacity="0.74902"/></g><g><path d="M5022 4875C5022 4766.2 5110.2 4678 5219 4678 5327.8 4678 5416 4766.2 5416 4875 5416 4983.8 5327.8 5072 5219 5072 5110.2 5072 5022 4983.8 5022 4875Z" fill="#029676" fill-rule="evenodd" fill-opacity="0.74902"/></g><g><path d="M5019 4825.5C5019 4714.77 5108.54 4625 5219 4625 5329.46 4625 5419 4714.77 5419 4825.5 5419 4936.23 5329.46 5026 5219 5026 5108.54 5026 5019 4936.23 5019 4825.5Z" fill="#029676" fill-rule="evenodd" fill-opacity="0.74902"/></g><g><path d="M4989 4334C4989 4206.97 5091.97 4104 5219 4104 5346.03 4104 5449 4206.97 5449 4334 5449 4461.03 5346.03 4564 5219 4564 5091.97 4564 4989 4461.03 4989 4334Z" fill="#029676" fill-rule="evenodd" fill-opacity="0.74902"/></g><g><path d="M5970 5858.5C5970 5782.56 6031.56 5721 6107.5 5721 6183.44 5721 6245 5782.56 6245 5858.5 6245 5934.44 6183.44 5996 6107.5 5996 6031.56 5996 5970 5934.44 5970 5858.5Z" fill="#4AB5C4" fill-rule="evenodd" fill-opacity="0.74902"/></g><g><path d="M5940 5366.5C5940 5273.99 6014.99 5199 6107.5 5199 6200.01 5199 6275 5273.99 6275 5366.5 6275 5459.01 6200.01 5534 6107.5 5534 6014.99 5534 5940 5459.01 5940 5366.5Z" fill="#4AB5C4" fill-rule="evenodd" fill-opacity="0.74902"/></g><g><path d="M5937 5317.5C5937 5223.34 6013.34 5147 6107.5 5147 6201.66 5147 6278 5223.34 6278 5317.5 6278 5411.66 6201.66 5488 6107.5 5488 6013.34 5488 5937 5411.66 5937 5317.5Z" fill="#4AB5C4" fill-rule="evenodd" fill-opacity="0.74902"/></g><g><path d="M5931 5219C5931 5121.8 6010.02 5043 6107.5 5043 6204.98 5043 6284 5121.8 6284 5219 6284 5316.2 6204.98 5395 6107.5 5395 6010.02 5395 5931 5316.2 5931 5219Z" fill="#4AB5C4" fill-rule="evenodd" fill-opacity="0.74902"/></g><g><path d="M5925 5120.5C5925 5019.71 6006.71 4938 6107.5 4938 6208.29 4938 6290 5019.71 6290 5120.5 6290 5221.29 6208.29 5303 6107.5 5303 6006.71 5303 5925 5221.29 5925 5120.5Z" fill="#4AB5C4" fill-rule="evenodd" fill-opacity="0.74902"/></g><g><path d="M5910 4875C5910 4766.2 5998.42 4678 6107.5 4678 6216.58 4678 6305 4766.2 6305 4875 6305 4983.8 6216.58 5072 6107.5 5072 5998.42 5072 5910 4983.8 5910 4875Z" fill="#4AB5C4" fill-rule="evenodd" fill-opacity="0.74902"/></g><g><path d="M5907 4825.5C5907 4714.77 5996.77 4625 6107.5 4625 6218.23 4625 6308 4714.77 6308 4825.5 6308 4936.23 6218.23 5026 6107.5 5026 5996.77 5026 5907 4936.23 5907 4825.5Z" fill="#4AB5C4" fill-rule="evenodd" fill-opacity="0.74902"/></g><g><path d="M5907 4825.5C5907 4714.77 5996.77 4625 6107.5 4625 6218.23 4625 6308 4714.77 6308 4825.5 6308 4936.23 6218.23 5026 6107.5 5026 5996.77 5026 5907 4936.23 5907 4825.5Z" fill="#4AB5C4" fill-rule="evenodd" fill-opacity="0.74902"/></g><g><path d="M5901 4727.5C5901 4613.45 5993.45 4521 6107.5 4521 6221.55 4521 6314 4613.45 6314 4727.5 6314 4841.55 6221.55 4934 6107.5 4934 5993.45 4934 5901 4841.55 5901 4727.5Z" fill="#4AB5C4" fill-rule="evenodd" fill-opacity="0.74902"/></g><g><path d="M5898 4678C5898 4562.57 5991.8 4469 6107.5 4469 6223.2 4469 6317 4562.57 6317 4678 6317 4793.43 6223.2 4887 6107.5 4887 5991.8 4887 5898 4793.43 5898 4678Z" fill="#4AB5C4" fill-rule="evenodd" fill-opacity="0.74902"/></g><g><path d="M5895 4629C5895 4511.92 5990.14 4417 6107.5 4417 6224.86 4417 6320 4511.92 6320 4629 6320 4746.08 6224.86 4841 6107.5 4841 5990.14 4841 5895 4746.08 5895 4629Z" fill="#4AB5C4" fill-rule="evenodd" fill-opacity="0.74902"/></g><g><path d="M5892 4580C5892 4461.26 5988.48 4365 6107.5 4365 6226.52 4365 6323 4461.26 6323 4580 6323 4698.74 6226.52 4795 6107.5 4795 5988.48 4795 5892 4698.74 5892 4580Z" fill="#4AB5C4" fill-rule="evenodd" fill-opacity="0.74902"/></g><g><path d="M2775.26 5979.8 2948.36 5955.8 2971.22 5955.78 2971.22 5959.22 2948.83 5959.2 2775.74 5983.2ZM2776.76 5990.58C2771.74 5991.28 2767.12 5987.77 2766.42 5982.76 2765.72 5977.74 2769.23 5973.12 2774.24 5972.42 2779.26 5971.73 2783.88 5975.23 2784.58 5980.24 2785.28 5985.26 2781.77 5989.88 2776.76 5990.58Z" fill="#404040"/></g><g><path d="M2773.89 5957.11 2675.98 5701.11 2677.59 5702.22 2654.78 5702.22 2654.78 5698.78 2677.59 5698.78C2678.3 5698.78 2678.94 5699.22 2679.19 5699.89L2777.11 5955.89ZM2784.06 5953.23C2785.87 5957.95 2783.5 5963.25 2778.77 5965.06 2774.05 5966.87 2768.75 5964.5 2766.94 5959.77 2765.13 5955.05 2767.5 5949.75 2772.23 5947.94 2776.95 5946.13 2782.25 5948.5 2784.06 5953.23Z" fill="#404040"/></g><g><text fill="#262626" font-family="Roboto Light,Roboto Light_MSFontService,sans-serif" font-weight="300" font-size="46" transform="matrix(1 0 0 1 2969.02 5864)">Lack of </text></g><g><text fill="#262626" font-family="Roboto Light,Roboto Light_MSFontService,sans-serif" font-weight="300" font-size="46" transform="matrix(1 0 0 1 2969.02 5919)">awareness of </text></g><g><text fill="#262626" font-family="Roboto Light,Roboto Light_MSFontService,sans-serif" font-weight="300" font-size="46" transform="matrix(1 0 0 1 2969.02 5974)">value of </text></g><g><text fill="#262626" font-family="Roboto Light,Roboto Light_MSFontService,sans-serif" font-weight="300" font-size="46" transform="matrix(1 0 0 1 2969.02 6029)">ecosystem </text></g><g><text fill="#262626" font-family="Roboto Light,Roboto Light_MSFontService,sans-serif" font-weight="300" font-size="46" transform="matrix(1 0 0 1 2969.02 6084)">services</text></g><g><text fill="#262626" font-family="Roboto Light,Roboto Light_MSFontService,sans-serif" font-weight="300" font-size="46" transform="matrix(1 0 0 1 2362.88 5689)">Perceptions of </text></g><g><text fill="#262626" font-family="Roboto Light,Roboto Light_MSFontService,sans-serif" font-weight="300" font-size="46" transform="matrix(1 0 0 1 2373.19 5744)">'quality of life'</text></g><g><text fill="#262626" font-family="Roboto Light,Roboto Light_MSFontService,sans-serif" font-weight="300" font-size="46" transform="matrix(1 0 0 1 2613.89 5061)">Socio</text></g><g><text fill="#262626" font-family="Roboto Light,Roboto Light_MSFontService,sans-serif" font-weight="300" font-size="46" transform="matrix(1 0 0 1 2726.25 5061)">-</text></g><g><text fill="#262626" font-family="Roboto Light,Roboto Light_MSFontService,sans-serif" font-weight="300" font-size="46" transform="matrix(1 0 0 1 2739.36 5061)">economic </text></g><g><text fill="#262626" font-family="Roboto Light,Roboto Light_MSFontService,sans-serif" font-weight="300" font-size="46" transform="matrix(1 0 0 1 2680.05 5116)">inequality</text></g><g><text fill="#262626" font-family="Roboto,Roboto_MSFontService,sans-serif" font-weight="700" font-size="55" transform="matrix(1 0 0 1 2502.17 4503)">Demographic changes</text></g><g><path d="M3663.23 5564.65 3555.34 5445.65 3556.62 5446.22 3535.5 5446.22 3535.5 5442.78 3556.62 5442.78C3557.1 5442.78 3557.56 5442.99 3557.89 5443.35L3665.77 5562.35ZM3671.29 5557.34C3674.69 5561.09 3674.41 5566.89 3670.66 5570.29 3666.91 5573.69 3661.11 5573.41 3657.71 5569.66 3654.31 5565.91 3654.59 5560.11 3658.34 5556.71 3662.09 5553.31 3667.89 5553.59 3671.29 5557.34Z" fill="#404040"/></g><g><g><text fill="#262626" font-family="Roboto Light,Roboto Light_MSFontService,sans-serif" font-weight="300" font-size="46" transform="matrix(1 0 0 1 3485.89 5847)">Closing the digital </text></g></g><g><text fill="#262626" font-family="Roboto Light,Roboto Light_MSFontService,sans-serif" font-weight="300" font-size="46" transform="matrix(1 0 0 1 3605.61 5902)">divide</text></g><g><text fill="#262626" font-family="Roboto Light,Roboto Light_MSFontService,sans-serif" font-weight="300" font-size="46" transform="matrix(1 0 0 1 3080.63 5379)">Improvements in the </text></g><g><text fill="#262626" font-family="Roboto Light,Roboto Light_MSFontService,sans-serif" font-weight="300" font-size="46" transform="matrix(1 0 0 1 3114.8 5434)">identification and </text></g><g><text fill="#262626" font-family="Roboto Light,Roboto Light_MSFontService,sans-serif" font-weight="300" font-size="46" transform="matrix(1 0 0 1 3099.79 5489)">exploration of non</text></g><g><text fill="#262626" font-family="Roboto Light,Roboto Light_MSFontService,sans-serif" font-weight="300" font-size="46" transform="matrix(1 0 0 1 3462.06 5489)">-</text></g><g><text fill="#262626" font-family="Roboto Light,Roboto Light_MSFontService,sans-serif" font-weight="300" font-size="46" transform="matrix(1 0 0 1 3079.19 5544)">renewable resources</text></g><g><text fill="#262626" font-family="Roboto,Roboto_MSFontService,sans-serif" font-weight="700" font-size="55" transform="matrix(1 0 0 1 3524.44 4959)">Closing the </text></g><g><text fill="#262626" font-family="Roboto,Roboto_MSFontService,sans-serif" font-weight="700" font-size="55" transform="matrix(1 0 0 1 3526.75 5025)">energy gap</text></g><g><text fill="#262626" font-family="Roboto Light,Roboto Light_MSFontService,sans-serif" font-weight="300" font-size="46" transform="matrix(1 0 0 1 4208.85 5672)">Introduction </text></g><g><text fill="#262626" font-family="Roboto Light,Roboto Light_MSFontService,sans-serif" font-weight="300" font-size="46" transform="matrix(1 0 0 1 4244.39 5727)">of exotic </text></g><g><g><text fill="#262626" font-family="Roboto Light,Roboto Light_MSFontService,sans-serif" font-weight="300" font-size="46" transform="matrix(1 0 0 1 4253.97 5782)">species</text></g></g><g><text fill="#262626" font-family="Roboto Light,Roboto Light_MSFontService,sans-serif" font-weight="300" font-size="46" transform="matrix(1 0 0 1 4270.11 5004)">Natural </text></g><g><text fill="#262626" font-family="Roboto Light,Roboto Light_MSFontService,sans-serif" font-weight="300" font-size="46" transform="matrix(1 0 0 1 4181.03 5059)">phenomena and </text></g><g><text fill="#262626" font-family="Roboto Light,Roboto Light_MSFontService,sans-serif" font-weight="300" font-size="46" transform="matrix(1 0 0 1 4263.42 5114)">hazards</text></g><g><text fill="#262626" font-family="Roboto Light,Roboto Light_MSFontService,sans-serif" font-weight="300" font-size="46" transform="matrix(1 0 0 1 4181.42 4795)">Access to water </text></g><g><text fill="#262626" font-family="Roboto Light,Roboto Light_MSFontService,sans-serif" font-weight="300" font-size="46" transform="matrix(1 0 0 1 4242.65 4850)">resources</text></g><g><text fill="#262626" font-family="Roboto Light,Roboto Light_MSFontService,sans-serif" font-weight="300" font-size="46" transform="matrix(1 0 0 1 4158.64 4474)">Climatic variability </text></g><g><text fill="#262626" font-family="Roboto Light,Roboto Light_MSFontService,sans-serif" font-weight="300" font-size="46" transform="matrix(1 0 0 1 4224.04 4529)">and change</text></g><g><text fill="#262626" font-family="Roboto,Roboto_MSFontService,sans-serif" font-weight="700" font-size="55" transform="matrix(1 0 0 1 4181.71 4234)">Infrastructure </text></g><g><g><text fill="#262626" font-family="Roboto,Roboto_MSFontService,sans-serif" font-weight="700" font-size="55" transform="matrix(1 0 0 1 4251.7 4300)">projects</text></g></g><g><path d="M5219.97 5613.4 5090.13 5825.4C5089.82 5825.91 5089.27 5826.22 5088.67 5826.22L5068.5 5826.22 5068.5 5822.78 5088.67 5822.78 5087.2 5823.6 5217.03 5611.6ZM5210.68 5607.71C5213.33 5603.4 5218.97 5602.04 5223.29 5604.68 5227.6 5607.33 5228.96 5612.97 5226.32 5617.29 5223.67 5621.6 5218.03 5622.96 5213.71 5620.32 5209.4 5617.67 5208.04 5612.03 5210.68 5607.71Z" fill="#262626"/></g><g><path d="M5217.34 5564.77 5068.51 5428.77 5069.67 5429.22 5049.5 5429.22 5049.5 5425.78 5069.67 5425.78C5070.1 5425.78 5070.51 5425.94 5070.83 5426.23L5219.66 5562.23ZM5224.68 5556.73C5228.42 5560.15 5228.68 5565.95 5225.27 5569.68 5221.85 5573.42 5216.05 5573.68 5212.32 5570.27 5208.58 5566.85 5208.32 5561.05 5211.73 5557.32 5215.15 5553.58 5220.95 5553.32 5224.68 5556.73Z" fill="#262626"/></g><g><path d="M5219.51 5562.11 5388.69 5685.11 5387.68 5684.78 5408.5 5684.78 5408.5 5688.22 5387.68 5688.22C5387.31 5688.22 5386.96 5688.1 5386.67 5687.89L5217.49 5564.89ZM5213.11 5570.91C5209.01 5567.94 5208.11 5562.2 5211.09 5558.11 5214.06 5554.01 5219.8 5553.11 5223.89 5556.09 5227.99 5559.06 5228.89 5564.8 5225.91 5568.89 5222.94 5572.99 5217.2 5573.89 5213.11 5570.91Z" fill="#262626"/></g><g><path d="M5219.98 5021.63 5386.16 5303.63 5384.68 5302.78 5405.5 5302.78 5405.5 5306.22 5384.68 5306.22C5384.07 5306.22 5383.5 5305.9 5383.2 5305.37L5217.02 5023.37ZM5210.6 5027.15C5208.03 5022.79 5209.48 5017.17 5213.85 5014.6 5218.21 5012.03 5223.83 5013.48 5226.4 5017.85 5228.97 5022.21 5227.52 5027.83 5223.15 5030.4 5218.79 5032.97 5213.17 5031.52 5210.6 5027.15Z" fill="#262626"/></g><g><path d="M5218.57 4876.22 5015.73 4884.22 4995.5 4884.22 4995.5 4880.78 5015.6 4880.78 5218.43 4872.78ZM5218.14 4865.34C5223.2 4865.14 5227.46 4869.08 5227.66 4874.14 5227.86 4879.2 5223.92 4883.46 5218.86 4883.66 5213.8 4883.86 5209.54 4879.92 5209.34 4874.86 5209.14 4869.8 5213.08 4865.54 5218.14 4865.34Z" fill="#262626"/></g><g><path d="M5217.21 4824.37 5408.39 4606.37C5408.71 4605.99 5409.18 4605.78 5409.68 4605.78L5430.5 4605.78 5430.5 4609.22 5409.68 4609.22 5410.97 4608.63 5219.79 4826.63ZM5225.39 4831.54C5222.05 4835.35 5216.26 4835.73 5212.46 4832.39 5208.65 4829.05 5208.27 4823.26 5211.61 4819.46 5214.95 4815.65 5220.74 4815.27 5224.54 4818.61 5228.35 4821.95 5228.73 4827.74 5225.39 4831.54Z" fill="#262626"/></g><g><text fill="#404040" font-family="Roboto Light,Roboto Light_MSFontService,sans-serif" font-weight="300" font-size="46" transform="matrix(1 0 0 1 4652.23 5786)">Producer</text></g><g><text fill="#404040" font-family="Roboto Light,Roboto Light_MSFontService,sans-serif" font-weight="300" font-size="46" transform="matrix(1 0 0 1 4834.88 5786)">-</text></g><g><text fill="#404040" font-family="Roboto Light,Roboto Light_MSFontService,sans-serif" font-weight="300" font-size="46" transform="matrix(1 0 0 1 4847.98 5786)">consumer </text></g><g><text fill="#404040" font-family="Roboto Light,Roboto Light_MSFontService,sans-serif" font-weight="300" font-size="46" transform="matrix(1 0 0 1 4738.58 5841)">value chain </text></g><g><text fill="#404040" font-family="Roboto Light,Roboto Light_MSFontService,sans-serif" font-weight="300" font-size="46" transform="matrix(1 0 0 1 4754.05 5896)">dynamics</text></g><g><text fill="#404040" font-family="Roboto Light,Roboto Light_MSFontService,sans-serif" font-weight="300" font-size="46" transform="matrix(1 0 0 1 4721.45 5389)">Consumption </text></g><g><text fill="#404040" font-family="Roboto Light,Roboto Light_MSFontService,sans-serif" font-weight="300" font-size="46" transform="matrix(1 0 0 1 4710.1 5444)">patterns of the </text></g><g><text fill="#404040" font-family="Roboto Light,Roboto Light_MSFontService,sans-serif" font-weight="300" font-size="46" transform="matrix(1 0 0 1 4768.1 5499)">general </text></g><g><text fill="#404040" font-family="Roboto Light,Roboto Light_MSFontService,sans-serif" font-weight="300" font-size="46" transform="matrix(1 0 0 1 4916.49 5499)">…</text></g><g><text fill="#404040" font-family="Roboto Light,Roboto Light_MSFontService,sans-serif" font-weight="300" font-size="46" transform="matrix(1 0 0 1 5447.28 5675)">Growth of the </text></g><g><text fill="#404040" font-family="Roboto Light,Roboto Light_MSFontService,sans-serif" font-weight="300" font-size="46" transform="matrix(1 0 0 1 5460.3 5730)">bioeconomy</text></g><g><text fill="#404040" font-family="Roboto Light,Roboto Light_MSFontService,sans-serif" font-weight="300" font-size="46" transform="matrix(1 0 0 1 5419.02 5211)">Demand for </text></g><g><text fill="#404040" font-family="Roboto Light,Roboto Light_MSFontService,sans-serif" font-weight="300" font-size="46" transform="matrix(1 0 0 1 5419.02 5266)">agricultural </text></g><g><text fill="#404040" font-family="Roboto Light,Roboto Light_MSFontService,sans-serif" font-weight="300" font-size="46" transform="matrix(1 0 0 1 5419.02 5321)">commodities at </text></g><g><text fill="#404040" font-family="Roboto Light,Roboto Light_MSFontService,sans-serif" font-weight="300" font-size="46" transform="matrix(1 0 0 1 5419.02 5376)">national and </text></g><g><text fill="#404040" font-family="Roboto Light,Roboto Light_MSFontService,sans-serif" font-weight="300" font-size="46" transform="matrix(1 0 0 1 5419.02 5431)">international level</text></g><g><text fill="#404040" font-family="Roboto Light,Roboto Light_MSFontService,sans-serif" font-weight="300" font-size="46" transform="matrix(1 0 0 1 4772.79 4844)">Rising </text></g><g><text fill="#404040" font-family="Roboto Light,Roboto Light_MSFontService,sans-serif" font-weight="300" font-size="46" transform="matrix(1 0 0 1 4709.68 4899)">international </text></g><g><text fill="#404040" font-family="Roboto Light,Roboto Light_MSFontService,sans-serif" font-weight="300" font-size="46" transform="matrix(1 0 0 1 4693.18 4954)">mineral prices</text></g><g><text fill="#404040" font-family="Roboto Light,Roboto Light_MSFontService,sans-serif" font-weight="300" font-size="46" transform="matrix(1 0 0 1 5444.08 4569)">Informal </text></g><g><text fill="#404040" font-family="Roboto Light,Roboto Light_MSFontService,sans-serif" font-weight="300" font-size="46" transform="matrix(1 0 0 1 5444.08 4624)">economic </text></g><g><text fill="#404040" font-family="Roboto Light,Roboto Light_MSFontService,sans-serif" font-weight="300" font-size="46" transform="matrix(1 0 0 1 5444.08 4679)">activities</text></g><g><text fill="#404040" font-family="Roboto,Roboto_MSFontService,sans-serif" font-weight="700" font-size="55" transform="matrix(1 0 0 1 5024.76 4310)">Illegal economic </text></g><g><text fill="#404040" font-family="Roboto,Roboto_MSFontService,sans-serif" font-weight="700" font-size="55" transform="matrix(1 0 0 1 5115.51 4376)">activities</text></g><g><path d="M6108.84 5365.42 6336.05 5647.42 6334.71 5646.78 6355.5 5646.78 6355.5 5650.22 6334.71 5650.22C6334.19 5650.22 6333.7 5649.98 6333.37 5649.58L6106.16 5367.58ZM6100.36 5372.25C6097.19 5368.31 6097.81 5362.54 6101.75 5359.36 6105.69 5356.19 6111.46 5356.81 6114.64 5360.75 6117.81 5364.69 6117.19 5370.46 6113.25 5373.64 6109.31 5376.81 6103.54 5376.19 6100.36 5372.25Z" fill="#404040"/></g><g><path d="M6108.46 5316.08 6346.67 5477.08 6345.71 5476.78 6366.5 5476.78 6366.5 5480.22 6345.71 5480.22C6345.37 5480.22 6345.03 5480.12 6344.75 5479.92L6106.54 5318.92ZM6102.37 5325.09C6098.17 5322.26 6097.07 5316.56 6099.91 5312.37 6102.74 5308.17 6108.44 5307.07 6112.63 5309.91 6116.83 5312.74 6117.93 5318.44 6115.09 5322.63 6112.26 5326.83 6106.56 5327.93 6102.37 5325.09Z" fill="#404040"/></g><g><path d="M6108.13 5217.9 6355.34 5314.9 6354.71 5314.78 6375.5 5314.78 6375.5 5318.22 6354.71 5318.22C6354.49 5318.22 6354.28 5318.18 6354.08 5318.1L6106.87 5221.1ZM6104.15 5228.03C6099.44 5226.18 6097.12 5220.86 6098.97 5216.15 6100.82 5211.44 6106.14 5209.12 6110.85 5210.97 6115.56 5212.82 6117.88 5218.14 6116.03 5222.85 6114.18 5227.56 6108.86 5229.88 6104.15 5228.03Z" fill="#404040"/></g><g><path d="M6107.95 5118.84 6354.16 5185.84 6353.71 5185.78 6373.5 5185.78 6373.5 5189.22 6353.71 5189.22C6353.56 5189.22 6353.4 5189.2 6353.26 5189.16L6107.05 5122.16ZM6105.09 5129.35C6100.21 5128.02 6097.33 5122.98 6098.65 5118.09 6099.98 5113.21 6105.02 5110.33 6109.91 5111.65 6114.79 5112.98 6117.67 5118.02 6116.35 5122.91 6115.02 5127.79 6109.98 5130.67 6105.09 5129.35Z" fill="#404040"/></g><g><path d="M6108.49 4873.1 6356.7 5048.1 6355.71 5047.78 6376.5 5047.78 6376.5 5051.22 6355.71 5051.22C6355.35 5051.22 6355.01 5051.11 6354.72 5050.9L6106.51 4875.9ZM6102.22 4881.99C6098.08 4879.07 6097.09 4873.36 6100.01 4869.22 6102.93 4865.08 6108.64 4864.09 6112.78 4867.01 6116.92 4869.93 6117.91 4875.64 6114.99 4879.78 6112.07 4883.92 6106.36 4884.91 6102.22 4881.99Z" fill="#404040"/></g><g><path d="M6107.9 4823.83 6346.11 4880.83 6345.71 4880.78 6366.5 4880.78 6366.5 4884.22 6345.71 4884.22C6345.57 4884.22 6345.44 4884.2 6345.31 4884.17L6107.1 4827.17ZM6105.37 4834.42C6100.44 4833.24 6097.41 4828.29 6098.58 4823.37 6099.76 4818.44 6104.71 4815.41 6109.63 4816.58 6114.56 4817.76 6117.59 4822.71 6116.42 4827.63 6115.24 4832.56 6110.29 4835.59 6105.37 4834.42Z" fill="#404040"/></g><g><path d="M6106.75 4823.95 6349.96 4705.95C6350.19 4705.84 6350.45 4705.78 6350.71 4705.78L6371.5 4705.78 6371.5 4709.22 6350.71 4709.22 6351.46 4709.05 6108.25 4827.05ZM6111.5 4833.75C6106.95 4835.96 6101.46 4834.06 6099.25 4829.5 6097.04 4824.95 6098.94 4819.46 6103.5 4817.25 6108.05 4815.04 6113.54 4816.94 6115.75 4821.5 6117.96 4826.05 6116.06 4831.54 6111.5 4833.75Z" fill="#404040"/></g><g><path d="M6106.58 4726.05 6363.79 4563.05C6364.06 4562.87 6364.38 4562.78 6364.71 4562.78L6385.5 4562.78 6385.5 4566.22 6364.71 4566.22 6365.63 4565.95 6108.42 4728.95ZM6112.41 4735.24C6108.13 4737.95 6102.47 4736.68 6099.76 4732.41 6097.05 4728.13 6098.32 4722.47 6102.59 4719.76 6106.87 4717.05 6112.53 4718.32 6115.24 4722.59 6117.95 4726.87 6116.68 4732.53 6112.41 4735.24Z" fill="#404040"/></g><g><path d="M6106.32 4677.25 6348.52 4447.25C6348.84 4446.95 6349.27 4446.78 6349.71 4446.78L6370.5 4446.78 6370.5 4450.22 6349.71 4450.22 6350.89 4449.75 6108.68 4679.75ZM6113.81 4685.15C6110.14 4688.63 6104.34 4688.48 6100.85 4684.81 6097.37 4681.14 6097.52 4675.34 6101.19 4671.85 6104.86 4668.37 6110.66 4668.52 6114.15 4672.19 6117.63 4675.86 6117.48 4681.66 6113.81 4685.15Z" fill="#404040"/></g><g><path d="M6106.13 4628.47 6339.33 4318.47C6339.66 4318.04 6340.17 4317.78 6340.71 4317.78L6361.5 4317.78 6361.5 4321.22 6340.71 4321.22 6342.08 4320.53 6108.87 4630.53ZM6114.83 4635.01C6111.78 4639.06 6106.04 4639.87 6101.99 4636.83 6097.94 4633.78 6097.13 4628.04 6100.17 4623.99 6103.22 4619.94 6108.96 4619.13 6113.01 4622.17 6117.06 4625.22 6117.87 4630.97 6114.83 4635.01Z" fill="#404040"/></g><g><path d="M6105.79 4579.35 6130.79 4298.35 6134.21 4298.65 6109.21 4579.65ZM6116.63 4580.31C6116.18 4585.35 6111.73 4589.08 6106.69 4588.63 6101.65 4588.18 6097.92 4583.73 6098.37 4578.69 6098.82 4573.65 6103.27 4569.92 6108.31 4570.37 6113.35 4570.82 6117.08 4575.27 6116.63 4580.31Z" fill="#404040"/></g><g><text fill="#262626" font-family="Roboto Light,Roboto Light_MSFontService,sans-serif" font-weight="300" font-size="46" transform="matrix(1 0 0 1 5922.03 5820)">Tendency towards </text></g><g><text fill="#262626" font-family="Roboto Light,Roboto Light_MSFontService,sans-serif" font-weight="300" font-size="46" transform="matrix(1 0 0 1 5915.96 5875)">conservative social </text></g><g><text fill="#262626" font-family="Roboto Light,Roboto Light_MSFontService,sans-serif" font-weight="300" font-size="46" transform="matrix(1 0 0 1 6031.18 5930)">policies</text></g><g><text fill="#262626" font-family="Roboto Light,Roboto Light_MSFontService,sans-serif" font-weight="300" font-size="46" transform="matrix(1 0 0 1 6355.49 5665)">Improving protected area management</text></g><g><text fill="#262626" font-family="Roboto Light,Roboto Light_MSFontService,sans-serif" font-weight="300" font-size="46" transform="matrix(1 0 0 1 6366.65 5468)">Emergence of the concept of ecosystem services </text></g><g><g><text fill="#262626" font-family="Roboto Light,Roboto Light_MSFontService,sans-serif" font-weight="300" font-size="46" transform="matrix(1 0 0 1 6366.65 5523)">in land management</text></g></g><g><g><text fill="#262626" font-family="Roboto Light,Roboto Light_MSFontService,sans-serif" font-weight="300" font-size="46" transform="matrix(1 0 0 1 6375.26 5333)">Availability and flow of information</text></g></g><g><g><text fill="#262626" font-family="Roboto Light,Roboto Light_MSFontService,sans-serif" font-weight="300" font-size="46" transform="matrix(1 0 0 1 6373.89 5204)">Land titling policies</text></g></g><g><g><text fill="#262626" font-family="Roboto Light,Roboto Light_MSFontService,sans-serif" font-weight="300" font-size="46" transform="matrix(1 0 0 1 6376.71 5038)">Establishment and management of </text></g></g><g><g><text fill="#262626" font-family="Roboto Light,Roboto Light_MSFontService,sans-serif" font-weight="300" font-size="46" transform="matrix(1 0 0 1 6376.71 5093)">protected areas</text></g></g><g><g><text fill="#262626" font-family="Roboto Light,Roboto Light_MSFontService,sans-serif" font-weight="300" font-size="46" transform="matrix(1 0 0 1 6366.23 4871)">Policies to promote sustainable economic </text></g></g><g><g><text fill="#262626" font-family="Roboto Light,Roboto Light_MSFontService,sans-serif" font-weight="300" font-size="46" transform="matrix(1 0 0 1 6366.23 4926)">activities</text></g></g><g><g><text fill="#262626" font-family="Roboto Light,Roboto Light_MSFontService,sans-serif" font-weight="300" font-size="46" transform="matrix(1 0 0 1 6371.05 4724)">Weak planning of sustainable resource management</text></g></g><g><text fill="#262626" font-family="Roboto Light,Roboto Light_MSFontService,sans-serif" font-weight="300" font-size="46" transform="matrix(1 0 0 1 6385.42 4581)">Poor institutional coordination</text></g><g><text fill="#262626" font-family="Roboto Light,Roboto Light_MSFontService,sans-serif" font-weight="300" font-size="46" transform="matrix(1 0 0 1 6370.69 4465)">Modification of the forestry law</text></g><g><g><text fill="#262626" font-family="Roboto Light,Roboto Light_MSFontService,sans-serif" font-weight="300" font-size="46" transform="matrix(1 0 0 1 6361.7 4336)">Weakness of government institutions</text></g></g><g><text fill="#262626" font-family="Roboto,Roboto_MSFontService,sans-serif" font-weight="700" font-size="55" transform="matrix(1 0 0 1 6016.81 4172)">Land</text></g><g><text fill="#262626" font-family="Roboto,Roboto_MSFontService,sans-serif" font-weight="700" font-size="55" transform="matrix(1 0 0 1 6137.88 4172)">-</text></g><g><text fill="#262626" font-family="Roboto,Roboto_MSFontService,sans-serif" font-weight="700" font-size="55" transform="matrix(1 0 0 1 6159.19 4172)">use </text></g><g><text fill="#262626" font-family="Roboto,Roboto_MSFontService,sans-serif" font-weight="700" font-size="55" transform="matrix(1 0 0 1 5922.6 4238)">planning policies</text></g><g><g><text fill="#595959" font-family="Roboto,Roboto_MSFontService,sans-serif" font-weight="700" font-size="55" transform="matrix(6.12323e-17 -1 1 6.12323e-17 2287.21 5257)">Importance</text></g></g><g><g><text font-family="Roboto,Roboto_MSFontService,sans-serif" font-weight="700" font-size="55" transform="matrix(1 0 0 1 5986.91 6205)">Political</text></g></g><g><text font-family="Roboto,Roboto_MSFontService,sans-serif" font-weight="700" font-size="55" transform="matrix(1 0 0 1 5110.82 6207)">Economic</text></g><g><text font-family="Roboto,Roboto_MSFontService,sans-serif" font-weight="700" font-size="55" transform="matrix(1 0 0 1 4158.88 6214)">Environmental</text></g><g><text font-family="Roboto,Roboto_MSFontService,sans-serif" font-weight="700" font-size="55" transform="matrix(1 0 0 1 3481.75 6214)">Technological</text></g><g><text font-family="Roboto,Roboto_MSFontService,sans-serif" font-weight="700" font-size="55" transform="matrix(1 0 0 1 2667.18 6217)">Social</text></g></g></svg>