<svg width="1357" height="1147" xmlns="http://www.w3.org/2000/svg" xmlns:xlink="http://www.w3.org/1999/xlink" xml:space="preserve" overflow="hidden"><g transform="translate(-3085 -1365)"><path d="M3333.04 2195.73C3231.22 2195.73 3148.21 2265.71 3148.21 2351.77 3148.21 2437.79 3231.22 2507.76 3333.04 2507.76 3434.83 2507.76 3517.84 2437.79 3517.84 2351.77 3517.84 2265.71 3434.93 2195.73 3333.04 2195.73M3243.22 2443.81C3252.64 2408.78 3289.54 2383.37 3333.04 2383.37 3376.51 2383.37 3413.51 2408.78 3422.93 2443.81 3398.48 2460.83 3367.12 2471.04 3333.04 2471.04 3298.93 2471.04 3267.71 2460.83 3243.22 2443.81M3333.04 2346.65C3313.34 2346.65 3297.24 2333.07 3297.24 2316.43 3297.24 2299.76 3313.34 2286.18 3333.04 2286.18 3352.71 2286.18 3368.91 2299.76 3368.91 2316.43 3368.91 2333.07 3352.81 2346.65 3333.04 2346.65M3455.32 2411.49C3442.39 2388.7 3420.8 2370.24 3394.29 2358.96 3405.6 2347.41 3412.37 2332.59 3412.37 2316.46 3412.37 2279.51 3376.82 2249.51 3333.04 2249.51 3289.2 2249.51 3253.78 2279.57 3253.78 2316.46 3253.78 2332.59 3260.59 2347.41 3271.87 2358.96 3245.42 2370.24 3223.79 2388.7 3210.86 2411.49 3198.72 2393.92 3191.71 2373.5 3191.71 2351.77 3191.71 2285.93 3255.15 2232.44 3333.04 2232.44 3410.93 2232.44 3474.34 2285.93 3474.34 2351.77 3474.34 2373.5 3467.43 2393.92 3455.32 2411.49M3591.91 1418.59 3591.91 1388.12C3591.91 1377.98 3601.64 1369.76 3613.68 1369.76 3625.68 1369.76 3635.38 1377.98 3635.38 1388.12L3635.38 1418.59C3635.38 1428.73 3625.68 1436.95 3613.68 1436.95 3601.64 1436.95 3591.91 1428.73 3591.91 1418.59M3702.74 1468.14C3694.25 1460.98 3694.25 1449.38 3702.74 1442.16L3728.36 1420.6C3736.82 1413.45 3750.51 1413.45 3759.07 1420.6 3767.53 1427.75 3767.53 1439.42 3759.07 1446.57L3733.55 1468.14C3729.29 1471.72 3723.72 1473.51 3718.18 1473.51 3712.65 1473.51 3707.08 1471.72 3702.78 1468.14M3761.54 1525.09 3797.58 1525.09C3809.62 1525.09 3819.35 1533.31 3819.35 1543.44 3819.35 1553.58 3809.62 1561.8 3797.58 1561.8L3761.54 1561.8C3749.54 1561.8 3739.81 1553.58 3739.81 1543.44 3739.81 1533.31 3749.54 1525.09 3761.54 1525.09M3759.07 1640.31C3767.53 1647.48 3767.53 1659.08 3759.07 1666.29 3754.87 1669.87 3749.3 1671.66 3743.77 1671.66 3738.23 1671.66 3732.59 1669.87 3728.4 1666.29L3702.78 1644.71C3694.32 1637.56 3694.32 1625.95 3702.78 1618.75 3711.27 1611.59 3725.09 1611.59 3733.62 1618.75L3759.1 1640.31ZM3571.31 1712.99C3634.04 1712.99 3685.14 1669.87 3685.14 1616.87 3685.14 1615.07 3685.03 1613.32 3684.93 1611.59 3707.9 1594.42 3721.38 1569.69 3721.38 1543.44 3721.38 1493.29 3673 1452.49 3613.71 1452.49 3598.75 1452.49 3584.14 1455.11 3570.66 1460.06 3542.84 1437.3 3504.77 1423.5 3463.2 1423.5 3449.72 1423.5 3436.45 1424.92 3423.69 1427.81 3393.46 1406.65 3355.63 1395.09 3316.02 1395.09 3224.55 1395.09 3149.79 1456.81 3147.18 1533.53 3111.96 1550.55 3089.89 1582.03 3089.89 1616.91 3089.89 1669.91 3140.99 1713.04 3203.71 1713.04L3571.42 1713.04ZM3677.85 1543.44C3677.85 1552.62 3675.13 1561.48 3670.01 1569.28 3657.69 1551.06 3638.44 1536.38 3614.74 1528.12 3611.58 1514.76 3606.04 1502.24 3598.45 1490.77 3603.43 1489.75 3608.38 1489.25 3613.61 1489.25 3648.93 1489.25 3677.81 1513.58 3677.81 1543.49M3133.28 1616.87C3133.28 1592.67 3150.51 1571.07 3177.2 1561.85 3185.79 1558.86 3191.23 1551.66 3190.68 1543.82 3190.57 1541.75 3190.44 1539.68 3190.44 1537.71 3190.44 1479.29 3246.73 1431.8 3315.92 1431.8 3348.62 1431.8 3379.67 1442.35 3403.09 1461.58 3409.07 1466.45 3417.81 1468 3425.65 1465.66 3437.65 1462.04 3450.24 1460.21 3463.16 1460.21 3520.01 1460.21 3567.57 1496.14 3573.65 1543.82 3574.58 1551.34 3580.87 1557.58 3589.54 1559.56 3620.25 1566.62 3641.6 1590.16 3641.6 1616.91 3641.6 1649.68 3610 1676.33 3571.24 1676.33L3203.57 1676.33C3164.82 1676.33 3133.22 1649.68 3133.22 1616.91M3214.03 1537.71C3214.03 1490.3 3259.83 1451.71 3315.95 1451.71 3327.95 1451.71 3337.72 1459.93 3337.72 1470.07 3337.72 1480.2 3327.95 1488.42 3315.95 1488.42 3283.8 1488.42 3257.53 1510.55 3257.53 1537.71 3257.53 1547.85 3247.79 1556.07 3235.79 1556.07 3223.79 1556.07 3214.03 1547.85 3214.03 1537.71M4175.92 1692.21C4182 1692.21 4188.12 1691.76 4194.11 1690.84 4213.23 1709.74 4241.56 1721.8 4273.23 1721.8 4330.42 1721.8 4377.05 1682.47 4377.05 1634.16 4377.05 1595.29 4336.2 1556.07 4303.46 1524.54 4298.47 1519.81 4293.97 1515.37 4289.77 1511.27 4285.68 1507.15 4279.56 1504.75 4273.23 1504.75 4266.94 1504.75 4260.82 1507.15 4256.62 1511.27 4252.53 1515.37 4247.92 1519.81 4243.01 1524.54 4241.77 1525.77 4240.43 1526.97 4239.15 1528.21 4228.39 1516.41 4216.77 1505.23 4206.11 1494.94 4201.12 1490.21 4196.48 1485.76 4192.42 1481.68 4188.36 1477.54 4182.21 1475.16 4175.92 1475.16 4169.59 1475.16 4163.43 1477.54 4159.27 1481.68 4155.18 1485.76 4150.57 1490.21 4145.69 1494.94 4112.85 1526.46 4072.1 1565.75 4072.1 1604.56 4072.1 1652.89 4118.63 1692.21 4175.92 1692.21M4273.23 1551.1C4298.13 1575.1 4333.58 1609.94 4333.58 1634.16 4333.58 1662.24 4306.52 1685.09 4273.23 1685.09 4239.98 1685.09 4212.92 1662.24 4212.92 1634.16 4212.92 1609.94 4248.37 1575.1 4273.23 1551.1M4175.92 1521.51C4187.4 1532.61 4199.82 1544.78 4210.51 1557.12 4188.23 1581.29 4169.42 1607.83 4169.42 1634.16 4169.42 1641.51 4170.55 1648.62 4172.58 1655.41 4140.77 1653.94 4115.5 1631.74 4115.5 1604.56 4115.5 1580.34 4150.85 1545.51 4175.85 1521.51M4393.73 2199.26C4403.6 2175.46 4402.12 2148.92 4388.88 2125.66 4376.29 2103.45 4355.11 2086.75 4328.94 2077.99 4333.69 2055.73 4328.25 2032.46 4313.19 2012.91 4293.52 1987.54 4260.41 1972.45 4224.54 1972.45 4188.67 1972.45 4155.46 1987.59 4135.89 2012.91 4120.72 2032.46 4115.39 2055.68 4120.14 2077.99 4094 2086.79 4072.68 2103.45 4060.13 2125.66 4046.96 2148.92 4045.38 2175.46 4055.35 2199.26 4017.08 2226.84 4001.91 2269.52 4016.6 2311.96 4033 2359.37 4081.25 2389.97 4139.71 2389.97 4160.2 2389.97 4180.66 2385.78 4198.82 2377.87 4200.5 2377.15 4202.08 2376.49 4203.84 2375.94L4203.84 2471.97C4203.84 2481.6 4213.12 2489.47 4224.54 2489.47 4235.96 2489.47 4245.14 2481.66 4245.14 2471.97L4245.14 2375.94C4246.82 2376.53 4248.51 2377.15 4250.26 2377.87 4268.35 2385.78 4288.74 2389.97 4309.34 2389.97 4367.66 2389.97 4416.04 2359.37 4432.34 2311.96 4447.06 2269.52 4431.9 2226.84 4393.73 2199.26M4390.7 2301.68C4382.14 2326.61 4356.21 2353.25 4309.37 2353.25 4295.58 2353.25 4282.41 2350.57 4270.21 2345.24 4262.06 2341.67 4253.67 2339.12 4245.21 2337.54L4245.21 2310.07 4329.35 2239.09C4337.37 2232.31 4337.37 2221.24 4329.35 2214.41 4321.31 2207.57 4308.14 2207.57 4300.16 2214.41L4245.24 2260.72 4245.24 2135.43C4245.24 2125.79 4236.06 2118.01 4224.68 2118.01 4213.23 2118.01 4203.94 2125.79 4203.94 2135.43L4203.94 2203.21 4175.3 2182.65C4166.7 2176.46 4153.67 2177.33 4146.34 2184.63 4138.98 2191.92 4140.08 2202.9 4148.71 2209.14L4204.01 2248.88 4204.01 2337.57C4195.52 2339.19 4187.16 2341.7 4178.98 2345.28 4166.87 2350.6 4153.7 2353.32 4139.91 2353.32 4093.04 2353.32 4067.25 2326.64 4058.62 2301.72 4050.23 2277.68 4054.53 2242.03 4094.14 2220.74 4103.77 2215.51 4107.04 2204.82 4101.36 2196.34 4090.19 2179.31 4089.47 2159.34 4099.57 2141.58 4109.55 2123.96 4128.32 2111.95 4151.12 2108.68 4157.69 2107.72 4163.33 2104.28 4166.49 2099.28 4169.62 2094.32 4170.04 2088.4 4167.32 2083.21 4158.82 2066.89 4160.75 2048.16 4172.41 2033.07 4184.2 2017.88 4203.22 2009.2 4224.71 2009.2 4246.17 2009.2 4265.15 2017.92 4276.88 2033.07 4288.57 2048.16 4290.5 2066.89 4282 2083.21 4279.39 2088.4 4279.59 2094.32 4282.83 2099.28 4285.96 2104.28 4291.77 2107.72 4298.3 2108.68 4321.07 2111.95 4339.88 2123.96 4349.81 2141.58 4359.89 2159.34 4359.24 2179.31 4347.92 2196.34 4342.39 2204.82 4345.55 2215.51 4355.28 2220.74 4394.79 2242.03 4399.09 2277.68 4390.8 2301.72M3763.78 1720.93C3591.53 1720.93 3451.47 1839.24 3451.47 1984.65 3451.47 2130.07 3591.53 2248.31 3763.78 2248.31 3936.03 2248.31 4076.09 2130.02 4076.09 1984.65 4076.09 1839.28 3936.03 1720.93 3763.78 1720.93M3857.01 1832.77C3833.9 1836.8 3809.86 1839.24 3785.55 1840.16L3785.55 1769.94C3813.64 1787.75 3837.58 1808.99 3857.01 1832.77M3742.05 1769.94 3742.05 1840.16C3717.7 1839.24 3693.56 1836.8 3670.56 1832.77 3689.92 1808.99 3713.95 1787.75 3742.05 1769.94M3742.05 1877.18 3742.05 1966.3 3615.88 1966.3C3618.6 1930.87 3629.57 1896.95 3647.48 1866.08 3677.36 1872.23 3709.28 1875.99 3742.05 1877.18M3742.05 2003.01 3742.05 2092.11C3709.31 2093.27 3677.5 2097.04 3647.72 2103.18 3629.88 2072.3 3618.87 2038.43 3616.05 2003.01L3742.08 2003.01ZM3742.05 2129.11 3742.05 2199.31C3713.95 2181.51 3690.09 2160.26 3670.73 2136.49 3693.73 2132.51 3717.84 2130.07 3742.05 2129.15M3785.55 2129.11C3809.76 2130.02 3833.9 2132.46 3856.83 2136.45 3837.47 2160.22 3813.57 2181.47 3785.55 2199.26L3785.55 2129.06ZM3785.55 2092.11 3785.55 2003.01 3911.58 2003.01C3908.76 2038.43 3897.79 2072.34 3879.87 2103.18 3850.09 2097.08 3818.28 2093.31 3785.58 2092.11M3785.55 1966.3 3785.55 1877.18C3818.25 1876.04 3850.2 1872.23 3880.11 1866.08 3898 1896.95 3908.86 1930.87 3911.68 1966.3L3785.55 1966.3ZM3900.92 1822.85C3886.68 1803.77 3870 1786.05 3851.37 1770.04 3882.73 1779.16 3911.48 1793.07 3936.41 1810.75 3925.2 1815.28 3913.3 1819.32 3900.99 1822.85M3626.64 1822.85C3614.3 1819.32 3602.4 1815.28 3591.22 1810.75 3616.09 1793.07 3644.9 1779.16 3676.26 1770.04 3657.59 1786.05 3640.95 1803.77 3626.71 1822.85M3605.6 1855.48C3586.37 1890.26 3575.16 1927.89 3572.45 1966.25L3495.83 1966.25C3500.44 1917.51 3523.41 1873.1 3558.86 1837.91 3573.27 1844.56 3588.99 1850.43 3605.6 1855.48M3572.45 2003.01C3575.27 2042.06 3586.58 2079.55 3605.49 2113.82 3588.89 2118.88 3573.24 2124.75 3558.86 2131.35 3523.41 2096.1 3500.44 2051.74 3495.83 2003.01L3572.45 2003.01ZM3626.54 2146.5C3640.43 2165.45 3656.97 2183.07 3675.89 2199.13 3644.63 2190 3615.98 2176.09 3591.22 2158.52 3602.3 2153.98 3614.2 2149.99 3626.54 2146.44M3901.02 2146.5C3913.37 2149.99 3925.16 2154.03 3936.34 2158.52 3911.58 2176.09 3882.93 2189.95 3851.68 2199.13 3870.59 2183.07 3887.13 2165.41 3901.02 2146.5M3922.14 2113.82C3941.05 2079.51 3952.33 2042.06 3955.18 2003.01L4031.8 2003.01C4027.19 2051.74 4004.18 2096.16 3968.76 2131.35 3954.36 2124.75 3938.74 2118.88 3922.14 2113.82M3955.18 1966.3C3952.47 1927.93 3941.15 1890.26 3922 1855.53 3938.64 1850.47 3954.29 1844.56 3968.76 1837.95 4004.18 1873.19 4027.19 1917.62 4031.8 1966.3L3955.18 1966.3ZM3831.28 1598.47C3831.28 1588.32 3841.02 1580.12 3853.05 1580.12L4017.35 1580.12C4029.36 1580.12 4039.09 1588.32 4039.09 1598.47 4039.09 1608.61 4029.36 1616.81 4017.35 1616.81L3853.05 1616.81C3841.02 1616.81 3831.28 1608.61 3831.28 1598.47M4224.54 1744.97C4236.58 1744.97 4246.27 1753.2 4246.27 1763.33L4246.27 1911.14C4246.27 1921.28 4236.58 1929.5 4224.54 1929.5 4212.54 1929.5 4202.81 1921.28 4202.81 1911.14L4202.81 1763.33C4202.81 1753.2 4212.54 1744.97 4224.54 1744.97M3333.04 1772.38C3345.04 1772.38 3354.78 1780.59 3354.78 1790.73L3354.78 2132.64C3354.78 2142.78 3345.04 2150.99 3333.04 2150.99 3321.01 2150.99 3311.31 2142.78 3311.31 2132.64L3311.31 1790.73C3311.31 1780.59 3321.01 1772.38 3333.04 1772.38M3957.45 2351.77C3957.45 2361.88 3947.72 2370.1 3935.72 2370.1L3591.91 2370.1C3579.91 2370.1 3570.18 2361.88 3570.18 2351.77 3570.18 2341.6 3579.91 2333.41 3591.91 2333.41L3935.72 2333.41C3947.72 2333.41 3957.45 2341.6 3957.45 2351.77" stroke="#FFFFFF" stroke-width="7.87756" stroke-miterlimit="8" fill="#6A8D29" fill-rule="evenodd"/></g></svg>