<svg width="83" height="79" xmlns="http://www.w3.org/2000/svg" xmlns:xlink="http://www.w3.org/1999/xlink" xml:space="preserve" overflow="hidden"><g transform="translate(-298 -336)"><path d="M50.2393 8.78494C50.2393 13.205 46.3884 16.7881 41.6381 16.7881 36.8878 16.7881 33.0369 13.205 33.0369 8.78494 33.0369 4.3649 36.8878 0.781753 41.6381 0.781753 46.3884 0.781753 50.2393 4.3649 50.2393 8.78494Z" stroke="#6A8D29" stroke-width="2.43147" stroke-linecap="round" stroke-linejoin="round" fill="#FFFFFF" transform="matrix(1.00344 0 0 1 298.042 336)"/><path d="M81.8514 37.7997C81.8514 41.2256 78.8668 44.0029 75.1851 44.0029 71.5033 44.0029 68.5187 41.2256 68.5187 37.7997 68.5187 34.3738 71.5033 31.5965 75.1851 31.5965 78.8668 31.5965 81.8514 34.3738 81.8514 37.7997Z" stroke="#6A8D29" stroke-width="2.43147" stroke-linecap="round" stroke-linejoin="round" fill="#FFFFFF" transform="matrix(1.00344 0 0 1 298.042 336)"/><path d="M28.7372 63.2125C28.7372 70.3958 22.4792 76.2189 14.7595 76.2189 7.0398 76.2189 0.781752 70.3958 0.781752 63.2125 0.781752 56.0293 7.0398 50.2061 14.7595 50.2061 22.4792 50.2061 28.7372 56.0293 28.7372 63.2125Z" stroke="#6A8D29" stroke-width="2.43147" stroke-linecap="round" stroke-linejoin="round" fill="#FFFFFF" transform="matrix(1.00344 0 0 1 298.042 336)"/><path d="M47.9722 14.2005 70.4594 33.4258" stroke="#6A8D29" stroke-width="2.43147" stroke-linecap="round" stroke-linejoin="round" fill="none" transform="matrix(1.00344 0 0 1 298.042 336)"/><path d="M19.9406 51.1286 37.9345 16.0103" stroke="#6A8D29" stroke-width="2.43147" stroke-linecap="round" stroke-linejoin="round" fill="none" transform="matrix(1.00344 0 0 1 298.042 336)"/><path d="M80.3446 7.18431C80.3446 10.0576 77.8412 12.3869 74.7531 12.3869 71.665 12.3869 69.1617 10.0576 69.1617 7.18431 69.1617 4.31101 71.665 1.98174 74.7531 1.98174 77.8412 1.98174 80.3446 4.31101 80.3446 7.18431Z" stroke="#6A8D29" stroke-width="2.43147" stroke-linecap="round" stroke-linejoin="round" fill="#FFFFFF" transform="matrix(1.00344 0 0 1 298.042 336)"/><path d="M16.0494 22.5926C16.0494 25.7973 13.2572 28.3952 9.81295 28.3952 6.36866 28.3952 3.57652 25.7973 3.57652 22.5926 3.57652 19.388 6.36866 16.7901 9.81295 16.7901 13.2572 16.7901 16.0494 19.388 16.0494 22.5926Z" stroke="#6A8D29" stroke-width="2.43147" stroke-linecap="round" stroke-linejoin="round" fill="#FFFFFF" transform="matrix(1.00344 0 0 1 298.042 336)"/><path d="M58.1956 70.0157C58.1956 74.5469 54.2485 78.2202 49.3794 78.2202 44.5103 78.2202 40.5632 74.5469 40.5632 70.0157 40.5632 65.4845 44.5103 61.8112 49.3794 61.8112 54.2485 61.8112 58.1956 65.4845 58.1956 70.0157Z" stroke="#6A8D29" stroke-width="2.43147" stroke-linecap="round" stroke-linejoin="round" fill="#FFFFFF" transform="matrix(1.00344 0 0 1 298.042 336)"/><path d="M78.4098 59.0086C78.4098 61.5506 76.1951 63.6112 73.4632 63.6112 70.7313 63.6112 68.5167 61.5506 68.5167 59.0086 68.5167 56.4667 70.7313 54.4061 73.4632 54.4061 76.1951 54.4061 78.4098 56.4667 78.4098 59.0086Z" stroke="#6A8D29" stroke-width="2.43147" stroke-linecap="round" stroke-linejoin="round" fill="#FFFFFF" transform="matrix(1.00344 0 0 1 298.042 336)"/><path d="M15.3302 19.8839 33.5704 11.566" stroke="#6A8D29" stroke-width="2.43147" stroke-linecap="round" stroke-linejoin="round" fill="none" transform="matrix(1.00344 0 0 1 298.042 336)"/><path d="M75.2261 31.5965 75.357 12.3576" stroke="#6A8D29" stroke-width="2.43147" stroke-linecap="round" stroke-linejoin="round" fill="none" transform="matrix(1.00344 0 0 1 298.042 336)"/><path d="M57.5526 66.9356 69.146 61.2542" stroke="#6A8D29" stroke-width="2.43147" stroke-linecap="round" stroke-linejoin="round" fill="none" transform="matrix(1.00344 0 0 1 298.042 336)"/><path d="M28.0043 67.3792 40.6218 69.0854" stroke="#6A8D29" stroke-width="2.43147" stroke-linecap="round" stroke-linejoin="round" fill="none" transform="matrix(1.00344 0 0 1 298.042 336)"/><path d="M74.6652 54.5448 74.9916 44.0009" stroke="#6A8D29" stroke-width="2.43147" stroke-linecap="round" stroke-linejoin="round" fill="none" transform="matrix(1.00344 0 0 1 298.042 336)"/><path d="M50.1318 7.52437 69.2105 6.512" stroke="#6A8D29" stroke-width="2.43147" stroke-linecap="round" stroke-linejoin="round" fill="none" transform="matrix(1.00344 0 0 1 298.042 336)"/><path d="M9.54715 28.3893 11.8865 50.4817" stroke="#6A8D29" stroke-width="2.43147" stroke-linecap="round" stroke-linejoin="round" fill="none" transform="matrix(1.00344 0 0 1 298.042 336)"/><path d="M57.6464 49.354C57.6464 52.7432 54.6942 55.4907 51.0523 55.4907 47.4105 55.4907 44.4583 52.7432 44.4583 49.354 44.4583 45.9648 47.4105 43.2172 51.0523 43.2172 54.6942 43.2172 57.6464 45.9648 57.6464 49.354Z" stroke="#6A8D29" stroke-width="2.43147" stroke-linecap="round" stroke-linejoin="round" fill="#FFFFFF" transform="matrix(1.00344 0 0 1 298.042 336)"/><path d="M57.5956 50.1221 68.5695 37.0238" stroke="#6A8D29" stroke-width="2.43147" stroke-linecap="round" stroke-linejoin="round" fill="none" transform="matrix(1.00344 0 0 1 298.042 336)"/><path d="M43.184 16.6591 50.2022 43.268" stroke="#6A8D29" stroke-width="2.43147" stroke-linecap="round" stroke-linejoin="round" fill="none" transform="matrix(1.00344 0 0 1 298.042 336)"/><path d="M25.0317 54.3924 46.4947 53.7865" stroke="#6A8D29" stroke-width="2.43147" stroke-linecap="round" stroke-linejoin="round" fill="none" transform="matrix(1.00344 0 0 1 298.042 336)"/></g></svg>