<svg width="82" height="83" xmlns="http://www.w3.org/2000/svg" xmlns:xlink="http://www.w3.org/1999/xlink" xml:space="preserve" overflow="hidden"><g transform="translate(-308 -578)"><path d="M78.966 27.798C76.342 25.584 72.406 25.912 70.192 28.536 69.208 29.684 68.716 31.078 68.716 32.554L68.716 44.854C68.306 44.69 67.814 44.608 67.404 44.526 65.518 44.362 63.714 45.018 62.402 46.33L47.15 61.582C45.018 63.714 43.87 66.584 43.87 69.618L43.87 79.212C43.87 80.36 44.772 81.262 45.92 81.262 47.068 81.262 47.97 80.36 47.97 79.212L47.97 69.536C47.97 67.65 48.708 65.764 50.02 64.452L65.19 49.282C66.01 48.462 67.322 48.462 68.142 49.282 68.962 50.102 68.962 51.414 68.142 52.234L59.368 61.09C58.63 61.992 58.712 63.222 59.614 63.96 60.352 64.616 61.5 64.616 62.32 63.96L71.094 55.186C72.57 53.71 73.226 51.496 72.734 49.446 72.734 49.282 72.734 49.2 72.734 49.036L72.734 32.554C72.734 31.406 73.718 30.422 74.866 30.422 76.014 30.422 76.998 31.406 76.998 32.554L76.998 32.554 76.998 55.514C76.998 57.81 76.096 60.024 74.456 61.664L62.32 73.964C61.91 74.374 61.746 74.866 61.746 75.44L61.746 79.212C61.746 80.36 62.648 81.262 63.796 81.262 64.944 81.262 65.846 80.36 65.846 79.212L65.846 76.26 77.408 64.616C79.868 62.238 81.18 58.958 81.18 55.514L81.18 32.554C81.18 30.75 80.36 29.028 78.966 27.798Z" stroke="#3A8B95" stroke-width="0.273367" fill="#3A8B95" transform="matrix(1 0 0 1.0122 308 578.083)"/><path d="M16.236 76.26 16.236 79.13C16.236 80.278 17.138 81.18 18.286 81.18 19.434 81.18 20.336 80.278 20.336 79.13L20.336 75.358C20.336 74.784 20.09 74.292 19.68 73.882L7.544 61.746C5.904 60.106 4.92 57.892 4.92 55.596L4.92 32.636C4.92 31.488 5.904 30.504 7.052 30.504 8.2 30.504 9.184 31.488 9.184 32.636L9.184 49.036C9.184 49.2 9.184 49.282 9.184 49.446 8.692 51.496 9.348 53.71 10.824 55.186L19.68 63.96C20.5 64.78 21.812 64.78 22.55 63.96 23.288 63.14 23.37 61.828 22.55 61.09L13.858 52.316C13.038 51.496 13.038 50.184 13.858 49.364 14.678 48.544 15.99 48.544 16.81 49.364L16.81 49.364 31.98 64.452C33.374 65.764 34.112 67.65 34.112 69.536L34.112 79.13C34.112 80.278 35.014 81.18 36.162 81.18 37.31 81.18 38.212 80.278 38.212 79.13L38.212 69.536C38.212 66.502 37.064 63.632 34.932 61.5L19.68 46.412C18.368 45.1 16.482 44.444 14.596 44.608 14.186 44.69 13.694 44.772 13.284 44.936L13.284 32.554C13.284 29.11 10.496 26.322 7.052 26.322 3.608 26.322 0.82 29.11 0.82 32.554L0.82 55.514C0.82 58.958 2.214 62.238 4.592 64.616L16.236 76.26Z" stroke="#3A8B95" stroke-width="0.273367" fill="#3A8B95" transform="matrix(1 0 0 1.0122 308 578.083)"/><path d="M16.646 25.256C16.646 36.08 23.78 45.674 34.194 48.708L37.474 54.612C38.212 55.924 39.606 56.744 41.082 56.744L41.082 56.744C42.558 56.744 43.952 55.924 44.69 54.612L47.97 48.708C60.926 44.936 68.306 31.324 64.534 18.368 60.762 5.412 47.232-1.968 34.276 1.804 23.862 4.838 16.646 14.432 16.646 25.256L16.646 25.256ZM61.418 25.256C61.418 34.522 55.104 42.64 46.084 44.936 45.592 45.1 45.1 45.428 44.772 45.92L41 52.644 37.31 46.002C37.064 45.51 36.572 45.1 35.998 45.018 25.174 42.23 18.614 31.16 21.402 20.254 24.19 9.348 35.178 2.788 46.084 5.576 55.104 7.872 61.418 15.99 61.418 25.256L61.418 25.256Z" stroke="#3A8B95" stroke-width="0.273367" fill="#3A8B95" transform="matrix(1 0 0 1.0122 308 578.083)"/><path d="M43.05 25.338C43.05 26.4702 42.1322 27.388 41 27.388 39.8678 27.388 38.95 26.4702 38.95 25.338 38.95 24.2058 39.8678 23.288 41 23.288 42.1322 23.288 43.05 24.2058 43.05 25.338Z" stroke="#3A8B95" stroke-width="0.273367" fill="#3A8B95" transform="matrix(1 0 0 1.0122 308 578.083)"/><path d="M34.358 25.338C34.358 26.4702 33.4402 27.388 32.308 27.388 31.1758 27.388 30.258 26.4702 30.258 25.338 30.258 24.2058 31.1758 23.288 32.308 23.288 33.4402 23.288 34.358 24.2058 34.358 25.338Z" stroke="#3A8B95" stroke-width="0.273367" fill="#3A8B95" transform="matrix(1 0 0 1.0122 308 578.083)"/><path d="M51.742 25.338C51.742 26.4702 50.8242 27.388 49.692 27.388 48.5598 27.388 47.642 26.4702 47.642 25.338 47.642 24.2058 48.5598 23.288 49.692 23.288 50.8242 23.288 51.742 24.2058 51.742 25.338Z" stroke="#3A8B95" stroke-width="0.273367" fill="#3A8B95" transform="matrix(1 0 0 1.0122 308 578.083)"/></g></svg>