<svg width="80" height="78" xmlns="http://www.w3.org/2000/svg" xmlns:xlink="http://www.w3.org/1999/xlink" xml:space="preserve" overflow="hidden"><g transform="translate(-304 -456)"><path d="M44.2668 68.4485 34.0225 68.4485C20.3107 68.4485 9.19723 57.335 9.19723 43.6232L9.19723 11.1231 0.998968 11.1231C0.998968 11.1231 9.19723 0.998968 9.19723 0.998968L17.4003 11.1183" stroke="#04735B" stroke-width="3.54487" stroke-linecap="round" stroke-linejoin="round" fill="none" transform="matrix(1.07196 0 0 1 304 456.04)"/><path d="M30.3581 9.47098 40.6023 9.47098C54.3141 9.47098 65.4276 20.5845 65.4276 34.2963L65.4276 66.8012 73.6307 66.8012C73.6307 66.8012 65.4276 76.9253 65.4276 76.9253L57.2245 66.806" stroke="#04735B" stroke-width="3.54487" stroke-linecap="round" stroke-linejoin="round" fill="none" transform="matrix(1.07196 0 0 1 304 456.04)"/><path d="M37.7783 16.7231 37.7783 22.5104" stroke="#04735B" stroke-width="3.54487" stroke-linecap="round" stroke-linejoin="round" fill="none" transform="matrix(1.07196 0 0 1 304 456.04)"/><path d="M27.2411 49.7947C29.532 53.901 33.9217 55.4283 37.0723 55.4283 40.2229 55.4283 47.3837 54.1892 47.3837 46.9323 47.3837 39.6754 38.1481 39.0078 38.1481 39.0078L37.3124 38.9117C37.3124 38.9117 27.851 38.2441 27.851 30.9872 27.851 25.5409 31.8805 23.4854 35.228 22.7986 37.1491 22.4047 39.1471 22.4864 41.0297 23.0531 42.922 23.6246 44.8671 24.7821 46.3704 27.4764" stroke="#04735B" stroke-width="3.54487" stroke-linecap="round" stroke-linejoin="round" fill="none" transform="matrix(1.07196 0 0 1 304 456.04)"/><path d="M38.028 61.1964 38.028 55.4091" stroke="#04735B" stroke-width="3.54487" stroke-linecap="round" stroke-linejoin="round" fill="none" transform="matrix(1.07196 0 0 1 304 456.04)"/></g></svg>