<?xml version="1.0" encoding="utf-8"?>
<!-- Designed by Vexels.com - 2020 All Rights Reserved - https://vexels.com/terms-and-conditions/  -->
<svg version="1.1" id="Layer_1" xmlns="http://www.w3.org/2000/svg" xmlns:xlink="http://www.w3.org/1999/xlink" x="0px" y="0px"
	 viewBox="0 0 1200 1200" enable-background="new 0 0 1200 1200" xml:space="preserve">
<g>
	<g>
		<path fill="#000000" d="M616.87,711.073c-129.457,0-234.776-105.319-234.776-234.776S487.413,241.52,616.87,241.52
			s234.776,105.319,234.776,234.776S746.328,711.073,616.87,711.073z M616.87,265.247c-116.371,0-211.05,94.678-211.05,211.05
			s94.678,211.05,211.05,211.05s211.05-94.678,211.05-211.05S733.242,265.247,616.87,265.247z"/>
	</g>
	<g>
		<path fill="#000000" d="M616.857,711.073c-2.198,0-4.417-0.604-6.402-1.882c-4.946-3.18-121.091-79.642-120.981-232.901
			c0.089-140.469,115.362-228.704,120.266-232.392c5.234-3.929,12.667-2.885,16.603,2.356c3.936,5.227,2.892,12.667-2.336,16.61
			c-1.106,0.831-110.725,85.027-110.807,213.44c-0.096,140.434,108.987,212.218,110.086,212.925
			c5.516,3.544,7.11,10.888,3.565,16.397C624.584,709.149,620.758,711.073,616.857,711.073z"/>
	</g>
	<g>
		<path fill="#000000" d="M616.884,711.073c-3.97,0-7.845-1.985-10.091-5.598c-3.455-5.564-1.752-12.873,3.806-16.335
			c1.456-0.914,114.098-73.164,114.002-212.836c-0.089-128.626-113.555-212.485-114.702-213.317
			c-5.303-3.854-6.478-11.272-2.631-16.575c3.854-5.296,11.272-6.471,16.575-2.631c5.076,3.689,124.388,91.917,124.484,232.509
			c0.11,153.376-120.081,229.816-125.191,232.997C621.184,710.496,619.02,711.073,616.884,711.073z"/>
	</g>
	<g>
		<path fill="#000000" d="M826.217,411.41H407.531c-6.553,0-11.863-5.31-11.863-11.863s5.31-11.863,11.863-11.863h418.686
			c6.553,0,11.863,5.31,11.863,11.863S832.77,411.41,826.217,411.41z"/>
	</g>
	<g>
		<path fill="#000000" d="M826.217,557.003H407.531c-6.553,0-11.863-5.31-11.863-11.863s5.31-11.863,11.863-11.863h418.686
			c6.553,0,11.863,5.31,11.863,11.863S832.77,557.003,826.217,557.003z"/>
	</g>
	<g>
		<path fill="#000000" d="M616.87,711.073c-6.553,0-11.863-5.31-11.863-11.863V253.384c0-6.553,5.31-11.863,11.863-11.863
			s11.863,5.31,11.863,11.863v445.826C628.733,705.763,623.424,711.073,616.87,711.073z"/>
	</g>
	<g>
		<g>
			<path fill="#000000" d="M597.554,893.828c-3.036,0-6.066-1.188-8.339-3.551c-54.631-56.843-178.6-123.247-458.754-116.612
				c-5.489,0.13-9.747,0.234-12.626,0.24c-0.495,0-1.923,1.422-2.445,4.925c-3.792,25.505-9.328,39.271-12.99,48.38
				c-1.573,3.909-2.816,6.993-2.967,8.841c-0.529,6.361-6.196,11.107-12.481,10.572c-6.368-0.529-11.101-6.114-10.572-12.481
				c0.44-5.331,2.349-10.07,4.561-15.559c3.448-8.586,8.181-20.347,11.575-43.159c2.191-14.707,12.344-24.612,25.258-24.654
				c2.768-0.007,6.869-0.103,12.138-0.227c288.651-6.89,418.143,63.513,475.982,123.701c4.424,4.609,4.279,11.932-0.323,16.356
				C603.324,892.757,600.439,893.828,597.554,893.828z"/>
		</g>
		<g>
			<path fill="#000000" d="M543.892,955.74c-0.412,0-0.831-0.021-1.257-0.069l-477.541-51.54c-9.067-0.948-15.827-9.418-15.03-18.87
				l3.826-37.533c0.371-4.52,2.652-8.937,6.23-11.904c3.455-2.858,7.755-4.142,12.207-3.73l489.006,56.211
				c6.347,0.735,10.901,6.471,10.173,12.811c-0.735,6.347-6.512,10.86-12.811,10.173L76.311,855.841l-2.645,25.952l471.455,50.88
				c6.347,0.687,10.943,6.388,10.256,12.742C554.738,951.344,549.724,955.74,543.892,955.74z"/>
		</g>
		<g>
			<path fill="#000000" d="M651.615,958.481H546.543c-3.867,0-7.625-1.614-10.304-4.417c-2.665-2.796-4.094-6.594-3.915-10.427
				c1.745-35.651,31.063-63.554,66.755-63.554c35.686,0,65.003,27.903,66.748,63.526c0.192,3.812-1.223,7.625-3.888,10.427
				C659.26,956.86,655.496,958.481,651.615,958.481z M556.916,935.346h84.32c-5.076-18.622-22.071-32.127-42.156-32.127
				C578.987,903.218,561.978,916.73,556.916,935.346z"/>
		</g>
		<g>
			<path fill="#000000" d="M602.466,893.828c-2.885,0-5.77-1.072-8.016-3.229c-4.602-4.424-4.747-11.746-0.323-16.356
				c57.846-60.195,187.516-130.508,475.975-123.701c5.276,0.124,9.376,0.22,12.138,0.227c12.928,0.041,23.074,9.953,25.258,24.66
				c3.393,22.806,8.126,34.566,11.582,43.146c2.212,5.495,4.121,10.235,4.561,15.566c0.529,6.368-4.204,11.952-10.572,12.481
				c-6.347,0.522-11.952-4.211-12.481-10.572c-0.151-1.848-1.395-4.932-2.968-8.834c-3.661-9.109-9.205-22.875-12.997-48.387
				c-0.522-3.51-1.944-4.925-2.445-4.925c-2.871-0.007-7.137-0.11-12.619-0.24c-280.271-6.478-404.123,59.769-458.754,116.612
				C608.531,892.633,605.502,893.828,602.466,893.828z"/>
		</g>
		<g>
			<path fill="#000000" d="M656.121,955.74c-5.832,0-10.846-4.396-11.485-10.324c-0.687-6.354,3.909-12.055,10.256-12.742
				l471.462-50.88l-2.645-25.959L641.318,911.29c-6.34,0.701-12.083-3.826-12.811-10.173c-0.728-6.34,3.826-12.076,10.173-12.811
				l488.896-56.197c4.527-0.46,8.848,0.852,12.303,3.703c3.579,2.961,5.866,7.378,6.272,12.11l3.785,37.142
				c0.804,9.665-5.963,18.121-15.057,19.069l-477.5,51.54C656.952,955.713,656.533,955.74,656.121,955.74z"/>
		</g>
	</g>
</g>
</svg>
