<svg width="568" height="501" xmlns="http://www.w3.org/2000/svg" xmlns:xlink="http://www.w3.org/1999/xlink" xml:space="preserve" overflow="hidden"><defs><filter id="fx0" x="-10%" y="-10%" width="120%" height="120%" filterUnits="userSpaceOnUse" primitiveUnits="userSpaceOnUse"><feComponentTransfer color-interpolation-filters="sRGB"><feFuncR type="discrete" tableValues="0 0"/><feFuncG type="discrete" tableValues="0 0"/><feFuncB type="discrete" tableValues="0 0"/><feFuncA type="linear" slope="0.4" intercept="0"/></feComponentTransfer><feGaussianBlur stdDeviation="6.11111 6.11111"/></filter><clipPath id="clip1"><rect x="3081" y="1342" width="568" height="501"/></clipPath><clipPath id="clip2"><path d="M3365 1352C3221.41 1352 3105 1453.41 3105 1578.5 3105 1703.59 3221.41 1805 3365 1805 3508.59 1805 3625 1703.59 3625 1578.5 3625 1453.41 3508.59 1352 3365 1352ZM3081 1342 3649 1342 3649 1843 3081 1843Z" fill-rule="evenodd" clip-rule="evenodd"/></clipPath></defs><g clip-path="url(#clip1)" transform="translate(-3081 -1342)"><g clip-path="url(#clip2)"><g filter="url(#fx0)" transform="translate(3080 1341)"><g><path d="M25 251.25C25 126.158 141.406 24.75 285 24.75 428.594 24.75 545 126.158 545 251.25 545 376.343 428.594 477.75 285 477.75 141.406 477.75 25 376.343 25 251.25Z" stroke="#6A8D29" stroke-width="10" stroke-linejoin="round" stroke-miterlimit="10" fill="#FFFFFF" fill-rule="evenodd"/></g></g></g><path d="M3105 1578.5C3105 1453.41 3221.41 1352 3365 1352 3508.59 1352 3625 1453.41 3625 1578.5 3625 1703.59 3508.59 1805 3365 1805 3221.41 1805 3105 1703.59 3105 1578.5Z" stroke="#6A8D29" stroke-width="10.3125" stroke-linejoin="round" stroke-miterlimit="10" fill="#FFFFFF" fill-rule="evenodd"/><path d="M3397 1700C3397 1717.67 3384.24 1732 3368.5 1732 3352.76 1732 3340 1717.67 3340 1700 3340 1682.33 3352.76 1668 3368.5 1668 3384.24 1668 3397 1682.33 3397 1700Z" stroke="#6A8D29" stroke-width="8.32434" stroke-linecap="round" stroke-linejoin="round" stroke-miterlimit="10" fill="none" fill-rule="evenodd"/><path d="M3351 1655C3351 1646.16 3358.61 1639 3368 1639 3377.39 1639 3385 1646.16 3385 1655" stroke="#6A8D29" stroke-width="8.32434" stroke-linecap="round" stroke-linejoin="round" stroke-miterlimit="10" fill="none" fill-rule="evenodd"/><path d="M3335 1675 3327.39 1672.21C3324.72 1671.24 3323 1669.04 3323 1666.62L3323 1656" stroke="#6A8D29" stroke-width="8.32434" stroke-linecap="round" stroke-linejoin="round" stroke-miterlimit="10" fill="none" fill-rule="evenodd"/><path d="M3340 1700 3323 1700" stroke="#6A8D29" stroke-width="8.32434" stroke-linecap="round" stroke-linejoin="round" stroke-miterlimit="10" fill="none" fill-rule="evenodd"/><path d="M3331 1726 3325.37 1728.58C3323.67 1729.36 3322.42 1730.71 3321.88 1732.32L3319 1741" stroke="#6A8D29" stroke-width="8.32434" stroke-linecap="round" stroke-linejoin="round" stroke-miterlimit="10" fill="none" fill-rule="evenodd"/><path d="M3403 1675 3410.61 1672.21C3413.28 1671.24 3415 1669.04 3415 1666.62L3415 1656" stroke="#6A8D29" stroke-width="8.32434" stroke-linecap="round" stroke-linejoin="round" stroke-miterlimit="10" fill="none" fill-rule="evenodd"/><path d="M3397 1700 3415 1700" stroke="#6A8D29" stroke-width="8.32434" stroke-linecap="round" stroke-linejoin="round" stroke-miterlimit="10" fill="none" fill-rule="evenodd"/><path d="M3405 1725 3412.06 1728.08C3413.9 1728.89 3415.27 1730.3 3415.86 1731.97L3419 1741" stroke="#6A8D29" stroke-width="8.32434" stroke-linecap="round" stroke-linejoin="round" stroke-miterlimit="10" fill="none" fill-rule="evenodd"/><path d="M3376 1641 3380 1633" stroke="#6A8D29" stroke-width="8.32434" stroke-linecap="round" stroke-linejoin="round" stroke-miterlimit="10" fill="none" fill-rule="evenodd"/><path d="M3357 1641 3353 1633" stroke="#6A8D29" stroke-width="8.32434" stroke-linecap="round" stroke-linejoin="round" stroke-miterlimit="10" fill="none" fill-rule="evenodd"/><path d="M3194 1604C3185.77 1611.12 3179.67 1619.7 3176 1629" stroke="#6A8D29" stroke-width="8.32434" stroke-linecap="round" stroke-linejoin="round" stroke-miterlimit="10" fill="none" fill-rule="evenodd"/><path d="M3268 1604C3276.67 1611.12 3283.11 1619.7 3287 1629" stroke="#6A8D29" stroke-width="8.32434" stroke-linecap="round" stroke-linejoin="round" stroke-miterlimit="10" fill="none" fill-rule="evenodd"/><path d="M3210 1637 3209 1645" stroke="#6A8D29" stroke-width="8.32434" stroke-linecap="round" stroke-linejoin="round" stroke-miterlimit="10" fill="none" fill-rule="evenodd"/><path d="M3252 1637 3253 1645" stroke="#6A8D29" stroke-width="8.32434" stroke-linecap="round" stroke-linejoin="round" stroke-miterlimit="10" fill="none" fill-rule="evenodd"/><path d="M3178.02 1566.54C3178.09 1565.45 3178.2 1564.36 3178.39 1563.29 3179.49 1556.34 3180.97 1545.76 3180.51 1541.02L3178.62 1521.35C3178.35 1518.54 3182.36 1517.01 3184.6 1519.06L3202.35 1535.36C3202.35 1535.36 3202.54 1535.45 3202.63 1535.42 3220.93 1526.93 3240.92 1526.93 3259.44 1535.45L3277.42 1518.95C3279.65 1516.9 3283.63 1518.4 3283.4 1521.21L3281.91 1539.06C3281.45 1544.52 3282.81 1556.61 3283.74 1563.99 3283.87 1565.03 3283.96 1566.05 3284 1567.09L3283.49 1574.42C3283.38 1575.07 3283.25 1575.71 3283.1 1576.38 3283.1 1576.38 3283.03 1576.72 3283.01 1576.74 3281.95 1581.29 3277.8 1585.72 3273.22 1589.6 3269.86 1592.44 3266.28 1594.99 3263.48 1597.07 3254.24 1604.02 3244.13 1611.95 3231.13 1612 3229.62 1612 3228.16 1611.91 3226.73 1611.72 3216 1610.3 3207.38 1603.72 3199.27 1597.72 3196.25 1595.48 3192.27 1592.69 3188.62 1589.6 3184.02 1585.69 3179.93 1581.26 3178.84 1576.71 3178.66 1575.95 3178.51 1575.18 3178.4 1574.42L3178 1566.52Z" stroke="#6A8D29" stroke-width="8.32434" stroke-linecap="round" stroke-linejoin="round" stroke-miterlimit="10" fill="none" fill-rule="evenodd"/><path d="M3517.57 1617.88 3499.71 1614.26C3491.06 1612.49 3482.79 1609.55 3475.24 1605.52L3464.75 1599.91C3460.71 1597.75 3456.9 1595.3 3453.35 1592.56L3449.89 1589.9C3444.82 1585.99 3438.99 1582.92 3432.62 1580.81L3430.41 1580.09C3426.17 1578.68 3423.58 1575.05 3424.06 1571.19L3424.06 1571.08C3424.48 1567.83 3427 1565.06 3430.59 1563.95L3441.95 1560.4C3443.9 1559.79 3445.58 1558.69 3446.76 1557.22L3449.13 1554.29C3455.04 1546.99 3463.11 1541.16 3472.53 1537.41L3486.05 1532.04C3494.46 1528.69 3503.59 1526.82 3512.87 1526.55L3530.97 1526.01C3535.98 1525.86 3547.23 1527.19 3555.46 1529.45 3558.9 1530.39 3558.83 1534.59 3555.35 1535.44 3548.87 1537.05 3540.56 1539.02 3536.86 1539.54 3536.66 1539.57 3536.46 1539.6 3536.24 1539.63 3527.33 1541.25 3522.89 1549.92 3527.25 1556.76L3527.9 1557.76C3531.78 1563.85 3531.97 1571.17 3528.43 1577.42L3525.63 1582.35C3524.91 1583.63 3524.6 1585.06 3524.77 1586.46L3526.09 1597.96C3526.31 1599.85 3525.71 1601.74 3524.4 1603.26L3524.4 1603.26C3522.52 1605.47 3522.13 1608.35 3523.39 1610.85L3524.33 1612.73C3524.62 1613.31 3524.58 1613.97 3524.36 1614.63 3523.53 1617.09 3520.48 1618.46 3517.59 1617.86Z" stroke="#6A8D29" stroke-width="8.32434" stroke-linecap="round" stroke-linejoin="round" stroke-miterlimit="10" fill="none" fill-rule="evenodd"/><path d="M3545.84 1572.31 3550.25 1570.55C3555.66 1568.4 3561.43 1572.88 3559.68 1577.88L3557.07 1585.33C3555.93 1588.58 3555.59 1591.99 3556.06 1595.35L3556.73 1600.17C3557.47 1605.43 3550.76 1608.93 3545.88 1605.84L3532 1597.06" stroke="#6A8D29" stroke-width="8.32434" stroke-linecap="round" stroke-linejoin="round" stroke-miterlimit="10" fill="none" fill-rule="evenodd"/><path d="M3446 1609C3449.95 1617.5 3460.94 1625.07 3476.02 1629.44 3476.91 1629.69 3477.82 1629.86 3478.71 1629.94 3483.5 1630.38 3487.8 1628.38 3486.87 1625.59 3485.02 1620.02 3483.01 1613.24 3483.66 1611.75L3484 1611" stroke="#6A8D29" stroke-width="8.32434" stroke-linecap="round" stroke-linejoin="round" stroke-miterlimit="10" fill="none" fill-rule="evenodd"/><path d="M3364.5 1458.2C3364.02 1466.82 3369.02 1475.29 3378.11 1479.93L3409.67 1496.03C3409.67 1496.03 3390.37 1497.6 3381.09 1498.94L3381.09 1498.94C3358.54 1499.94 3338 1487.88 3330.92 1469.47L3330.92 1469.47C3328.71 1463.7 3325.1 1458.4 3320.32 1453.92L3314.23 1448.21C3306.21 1440.69 3305.9 1429.24 3313.48 1421.39L3313.48 1421.39C3322.96 1411.58 3340.47 1411.53 3350.01 1421.3L3368.43 1440.13 3373.39 1442.4C3389.43 1449.71 3404.27 1458.84 3417.49 1469.55L3450 1495.86 3443.75 1495.62C3442.39 1495.57 3441 1495.52 3439.64 1495.49 3437.66 1495.44 3435.69 1495.27 3433.76 1495" stroke="#6A8D29" stroke-width="8.32434" stroke-linecap="round" stroke-linejoin="round" stroke-miterlimit="10" fill="none" fill-rule="evenodd"/><path d="M3308 1433 3290 1445" stroke="#6A8D29" stroke-width="8.32434" stroke-linecap="round" stroke-linejoin="round" stroke-miterlimit="10" fill="none" fill-rule="evenodd"/><path d="M3371 1520.09 3386.16 1524 3380.65 1513.96 3388 1499" stroke="#6A8D29" stroke-width="8.32434" stroke-linecap="round" stroke-linejoin="round" stroke-miterlimit="10" fill="none" fill-rule="evenodd"/><path d="M3359 1495 3353.06 1524 3340 1516.43" stroke="#6A8D29" stroke-width="8.32434" stroke-linecap="round" stroke-linejoin="round" stroke-miterlimit="10" fill="none" fill-rule="evenodd"/></g></svg>