<svg width="1350" height="1154" xmlns="http://www.w3.org/2000/svg" xmlns:xlink="http://www.w3.org/1999/xlink" xml:space="preserve" overflow="hidden"><g transform="translate(-3623 244)"><path d="M4398.39 754.016C4398.39 814.756 4354.51 864.016 4300.39 864.016 4246.26 864.016 4202.39 814.756 4202.39 754.016 4202.39 693.275 4246.26 644.016 4300.39 644.016 4354.51 644.016 4398.39 693.275 4398.39 754.016Z" stroke="#6A8D29" stroke-width="28.6148" stroke-linecap="round" stroke-linejoin="round" stroke-miterlimit="10" fill="none" fill-rule="evenodd"/><path d="M4240.39 599.016C4240.39 568.628 4266.57 544.016 4298.89 544.016 4331.2 544.016 4357.39 568.628 4357.39 599.016" stroke="#6A8D29" stroke-width="28.6148" stroke-linecap="round" stroke-linejoin="round" stroke-miterlimit="10" fill="none" fill-rule="evenodd"/><path d="M4185.39 668.011 4159.39 658.319C4150.27 654.95 4144.4 647.308 4144.4 638.901L4144.4 602.011" stroke="#6A8D29" stroke-width="28.6148" stroke-linecap="round" stroke-linejoin="round" stroke-miterlimit="10" fill="none" fill-rule="evenodd"/><path d="M4202.4 754.077 4144.4 754.077" stroke="#6A8D29" stroke-width="28.6148" stroke-linecap="round" stroke-linejoin="round" stroke-miterlimit="10" fill="none" fill-rule="evenodd"/><path d="M4171.39 843.012 4152.16 851.955C4146.35 854.66 4142.08 859.339 4140.23 864.921L4130.4 895.012" stroke="#6A8D29" stroke-width="28.6148" stroke-linecap="round" stroke-linejoin="round" stroke-miterlimit="10" fill="none" fill-rule="evenodd"/><path d="M4419.4 668.011 4445.4 658.319C4454.52 654.95 4460.39 647.308 4460.39 638.901L4460.39 602.011" stroke="#6A8D29" stroke-width="28.6148" stroke-linecap="round" stroke-linejoin="round" stroke-miterlimit="10" fill="none" fill-rule="evenodd"/><path d="M4398.39 754.077 4460.39 754.077" stroke="#6A8D29" stroke-width="28.6148" stroke-linecap="round" stroke-linejoin="round" stroke-miterlimit="10" fill="none" fill-rule="evenodd"/><path d="M4426.39 840.016 4450.6 850.603C4456.91 853.387 4461.6 858.235 4463.63 863.975L4474.39 895.016" stroke="#6A8D29" stroke-width="28.6148" stroke-linecap="round" stroke-linejoin="round" stroke-miterlimit="10" fill="none" fill-rule="evenodd"/><path d="M4326.37 551.007 4340.37 523.007" stroke="#6A8D29" stroke-width="28.6148" stroke-linecap="round" stroke-linejoin="round" stroke-miterlimit="10" fill="none" fill-rule="evenodd"/><path d="M4261.37 551.007 4247.37 523.007" stroke="#6A8D29" stroke-width="28.6148" stroke-linecap="round" stroke-linejoin="round" stroke-miterlimit="10" fill="none" fill-rule="evenodd"/><path d="M3700.39 424.015C3672.04 448.508 3651.03 478.023 3638.39 510.015" stroke="#6A8D29" stroke-width="28.6148" stroke-linecap="round" stroke-linejoin="round" stroke-miterlimit="10" fill="none" fill-rule="evenodd"/><path d="M3955.39 424.015C3985.05 448.508 4007.09 478.023 4020.39 510.015" stroke="#6A8D29" stroke-width="28.6148" stroke-linecap="round" stroke-linejoin="round" stroke-miterlimit="10" fill="none" fill-rule="evenodd"/><path d="M3755.53 537.007 3752.53 565.007" stroke="#6A8D29" stroke-width="28.6148" stroke-linecap="round" stroke-linejoin="round" stroke-miterlimit="10" fill="none" fill-rule="evenodd"/><path d="M3900.53 537.007 3903.53 565.007" stroke="#6A8D29" stroke-width="28.6148" stroke-linecap="round" stroke-linejoin="round" stroke-miterlimit="10" fill="none" fill-rule="evenodd"/><path d="M3645.46 294.809C3645.7 291.063 3646.07 287.318 3646.73 283.642 3650.52 259.76 3655.61 223.406 3654.03 207.119L3647.52 139.53C3646.59 129.875 3660.4 124.617 3668.11 131.661L3729.23 187.67C3729.23 187.67 3729.89 187.979 3730.2 187.877 3793.21 158.704 3862.04 158.704 3925.82 187.979L3987.73 131.283C3995.41 124.239 4009.11 129.393 4008.32 139.049L4003.19 200.384C4001.61 219.145 4006.29 260.688 4009.49 286.047 4009.94 289.62 4010.25 293.125 4010.39 296.699L4008.63 321.886C4008.25 324.119 4007.8 326.318 4007.29 328.621 4007.29 328.621 4007.05 329.789 4006.98 329.858 4003.33 345.492 3989.04 360.714 3973.27 374.046 3961.7 383.805 3949.37 392.567 3939.73 399.714 3907.91 423.596 3873.1 450.844 3828.33 451.016 3823.13 451.016 3818.11 450.707 3813.18 450.054 3776.24 445.174 3746.55 422.564 3718.63 401.948 3708.23 394.251 3694.52 384.664 3681.96 374.046 3666.12 360.611 3652.03 345.389 3648.28 329.755 3647.66 327.143 3647.14 324.497 3646.76 321.886L3645.39 294.74Z" stroke="#6A8D29" stroke-width="28.6148" stroke-linecap="round" stroke-linejoin="round" stroke-miterlimit="10" fill="none" fill-rule="evenodd"/><path d="M4813.29 471.603 4751.85 459.17C4722.09 453.09 4693.64 442.992 4667.66 429.15L4631.57 409.881C4617.67 402.462 4604.56 394.047 4592.35 384.637L4580.45 375.5C4563.01 362.07 4542.95 351.525 4521.03 344.278L4513.43 341.805C4498.84 336.963 4489.93 324.494 4491.58 311.236L4491.58 310.858C4493.03 299.695 4501.7 290.181 4514.05 286.368L4553.13 274.175C4559.84 272.08 4565.62 268.302 4569.68 263.253L4577.83 253.19C4598.17 228.116 4625.93 208.091 4658.34 195.211L4704.85 176.767C4733.78 165.26 4765.2 158.837 4797.12 157.91L4859.39 156.055C4876.63 155.54 4915.33 160.108 4943.65 167.871 4955.48 171.1 4955.24 185.525 4943.27 188.444 4920.98 193.975 4892.39 200.741 4879.66 202.527 4878.97 202.63 4878.28 202.733 4877.52 202.836 4846.87 208.4 4831.59 238.18 4846.59 261.673L4848.83 265.108C4862.18 286.025 4862.83 311.168 4850.65 332.635L4841.02 349.568C4838.54 353.964 4837.48 358.876 4838.06 363.684L4842.6 403.184C4843.36 409.675 4841.3 416.167 4836.79 421.388L4836.79 421.388C4830.32 428.978 4828.98 438.871 4833.31 447.457L4836.55 453.914C4837.55 455.907 4837.41 458.174 4836.65 460.441 4833.8 468.89 4823.3 473.595 4813.36 471.534Z" stroke="#6A8D29" stroke-width="28.6148" stroke-linecap="round" stroke-linejoin="round" stroke-miterlimit="10" fill="none" fill-rule="evenodd"/><path d="M4909.84 314.954 4924.96 308.913C4943.51 301.533 4963.3 316.91 4957.3 334.072L4948.35 359.642C4944.44 370.798 4943.27 382.502 4944.89 394.034L4947.18 410.578C4949.72 428.633 4926.71 440.646 4909.98 430.04L4862.39 399.904" stroke="#6A8D29" stroke-width="28.6148" stroke-linecap="round" stroke-linejoin="round" stroke-miterlimit="10" fill="none" fill-rule="evenodd"/><path d="M4567.4 441.017C4580.88 470.159 4618.41 496.112 4669.91 511.095 4672.95 511.952 4676.06 512.535 4679.09 512.809 4695.45 514.318 4710.14 507.461 4706.96 497.895 4700.64 478.799 4693.78 455.554 4696 450.445L4697.16 447.874" stroke="#6A8D29" stroke-width="28.6148" stroke-linecap="round" stroke-linejoin="round" stroke-miterlimit="10" fill="none" fill-rule="evenodd"/><path d="M4286.56-77.1439C4284.91-47.5302 4302.09-18.4311 4333.33-2.49046L4441.79 52.8207C4441.79 52.8207 4375.47 58.2143 4343.57 62.8177L4343.57 62.8177C4266.08 66.2532 4195.49 24.8214 4171.16-38.4259L4171.16-38.4259C4163.57-58.2489 4151.16-76.4568 4134.73-91.8478L4113.8-111.464C4086.24-137.299 4085.18-176.636 4111.23-203.604L4111.23-203.604C4143.81-237.306 4203.98-237.478 4236.77-203.913L4300.07-139.223 4317.11-131.425C4372.23-106.311 4423.23-74.9452 4468.67-38.151L4580.39 52.2364 4558.91 51.4122C4554.24 51.2402 4549.46 51.0685 4544.79 50.9654 4537.98 50.7937 4531.21 50.2097 4524.58 49.282" stroke="#6A8D29" stroke-width="28.6148" stroke-linecap="round" stroke-linejoin="round" stroke-miterlimit="10" fill="none" fill-rule="evenodd"/><path d="M4092.39-163.982 4030.39-122.981" stroke="#6A8D29" stroke-width="28.6148" stroke-linecap="round" stroke-linejoin="round" stroke-miterlimit="10" fill="none" fill-rule="evenodd"/><path d="M4309.4 135.565 4361.12 149.015 4342.32 114.478 4367.4 63.0154" stroke="#6A8D29" stroke-width="28.6148" stroke-linecap="round" stroke-linejoin="round" stroke-miterlimit="10" fill="none" fill-rule="evenodd"/><path d="M4267.39 49.0142 4247.07 149.014 4202.39 122.911" stroke="#6A8D29" stroke-width="28.6148" stroke-linecap="round" stroke-linejoin="round" stroke-miterlimit="10" fill="none" fill-rule="evenodd"/></g></svg>