<svg width="568" height="501" xmlns="http://www.w3.org/2000/svg" xmlns:xlink="http://www.w3.org/1999/xlink" xml:space="preserve" overflow="hidden"><defs><filter id="fx0" x="-10%" y="-10%" width="120%" height="120%" filterUnits="userSpaceOnUse" primitiveUnits="userSpaceOnUse"><feComponentTransfer color-interpolation-filters="sRGB"><feFuncR type="discrete" tableValues="0 0"/><feFuncG type="discrete" tableValues="0 0"/><feFuncB type="discrete" tableValues="0 0"/><feFuncA type="linear" slope="0.4" intercept="0"/></feComponentTransfer><feGaussianBlur stdDeviation="6.11111 6.11111"/></filter><clipPath id="clip1"><rect x="3081" y="666" width="568" height="501"/></clipPath><clipPath id="clip2"><path d="M3365 676C3221.41 676 3105 777.408 3105 902.5 3105 1027.59 3221.41 1129 3365 1129 3508.59 1129 3625 1027.59 3625 902.5 3625 777.408 3508.59 676 3365 676ZM3081 666 3649 666 3649 1167 3081 1167Z" fill-rule="evenodd" clip-rule="evenodd"/></clipPath></defs><g clip-path="url(#clip1)" transform="translate(-3081 -666)"><g clip-path="url(#clip2)"><g filter="url(#fx0)" transform="translate(3080 665)"><g><path d="M25 251.25C25 126.158 141.406 24.7502 285 24.7502 428.594 24.7502 545 126.158 545 251.25 545 376.342 428.594 477.75 285 477.75 141.406 477.75 25 376.342 25 251.25Z" stroke="#6A8D29" stroke-width="10" stroke-linejoin="round" stroke-miterlimit="10" fill="#FFFFFF" fill-rule="evenodd"/></g></g></g><path d="M3105 902.5C3105 777.408 3221.41 676 3365 676 3508.59 676 3625 777.408 3625 902.5 3625 1027.59 3508.59 1129 3365 1129 3221.41 1129 3105 1027.59 3105 902.5Z" stroke="#6A8D29" stroke-width="10.3125" stroke-linejoin="round" stroke-miterlimit="10" fill="#FFFFFF" fill-rule="evenodd"/><path d="M3239.54 977.194C3209.93 977.194 3185.79 997.548 3185.79 1022.58 3185.79 1047.6 3209.93 1067.95 3239.54 1067.95 3269.14 1067.95 3293.28 1047.6 3293.28 1022.58 3293.28 997.548 3269.17 977.194 3239.54 977.194M3213.42 1049.35C3216.16 1039.16 3226.89 1031.77 3239.54 1031.77 3252.18 1031.77 3262.94 1039.16 3265.68 1049.35 3258.57 1054.3 3249.45 1057.27 3239.54 1057.27 3229.62 1057.27 3220.54 1054.3 3213.42 1049.35M3239.54 1021.09C3233.81 1021.09 3229.13 1017.14 3229.13 1012.3 3229.13 1007.45 3233.81 1003.5 3239.54 1003.5 3245.26 1003.5 3249.97 1007.45 3249.97 1012.3 3249.97 1017.14 3245.29 1021.09 3239.54 1021.09M3275.1 1039.95C3271.34 1033.32 3265.06 1027.95 3257.35 1024.67 3260.64 1021.31 3262.61 1017 3262.61 1012.31 3262.61 1001.56 3252.27 992.836 3239.54 992.836 3226.79 992.836 3216.49 1001.58 3216.49 1012.31 3216.49 1017 3218.47 1021.31 3221.75 1024.67 3214.06 1027.95 3207.77 1033.32 3204.01 1039.95 3200.48 1034.84 3198.44 1028.9 3198.44 1022.58 3198.44 1003.43 3216.89 987.872 3239.54 987.872 3262.19 987.872 3280.63 1003.43 3280.63 1022.58 3280.63 1028.9 3278.62 1034.84 3275.1 1039.95M3314.82 751.155 3314.82 742.291C3314.82 739.342 3317.65 736.952 3321.15 736.952 3324.64 736.952 3327.46 739.342 3327.46 742.291L3327.46 751.155C3327.46 754.104 3324.64 756.494 3321.15 756.494 3317.65 756.494 3314.82 754.104 3314.82 751.155M3347.05 765.568C3344.58 763.484 3344.58 760.109 3347.05 758.011L3354.5 751.74C3356.96 749.659 3360.94 749.659 3363.43 751.74 3365.89 753.82 3365.89 757.212 3363.43 759.292L3356.01 765.568C3354.77 766.609 3353.15 767.129 3351.54 767.129 3349.93 767.129 3348.31 766.609 3347.06 765.568M3364.15 782.131 3374.63 782.131C3378.13 782.131 3380.96 784.521 3380.96 787.47 3380.96 790.419 3378.13 792.809 3374.63 792.809L3364.15 792.809C3360.66 792.809 3357.83 790.419 3357.83 787.47 3357.83 784.521 3360.66 782.131 3364.15 782.131M3363.43 815.644C3365.89 817.729 3365.89 821.104 3363.43 823.201 3362.21 824.241 3360.59 824.762 3358.98 824.762 3357.37 824.762 3355.73 824.241 3354.51 823.201L3347.06 816.925C3344.6 814.844 3344.6 811.466 3347.06 809.372 3349.53 807.292 3353.55 807.292 3356.03 809.372L3363.44 815.644ZM3308.83 836.785C3327.07 836.785 3341.93 824.241 3341.93 808.826 3341.93 808.302 3341.9 807.795 3341.87 807.292 3348.55 802.297 3352.47 795.105 3352.47 787.47 3352.47 772.881 3338.4 761.016 3321.16 761.016 3316.81 761.016 3312.56 761.777 3308.64 763.217 3300.55 756.597 3289.48 752.582 3277.39 752.582 3273.47 752.582 3269.61 752.995 3265.9 753.837 3257.11 747.682 3246.11 744.32 3234.59 744.32 3207.99 744.32 3186.25 762.271 3185.49 784.586 3175.25 789.538 3168.83 798.694 3168.83 808.839 3168.83 824.254 3183.69 836.798 3201.93 836.798L3308.86 836.798ZM3339.81 787.47C3339.81 790.14 3339.02 792.715 3337.53 794.984 3333.95 789.684 3328.35 785.416 3321.46 783.013 3320.54 779.127 3318.93 775.486 3316.72 772.15 3318.17 771.853 3319.61 771.707 3321.13 771.707 3331.4 771.707 3339.8 778.783 3339.8 787.483M3181.45 808.826C3181.45 801.789 3186.46 795.505 3194.22 792.822 3196.72 791.954 3198.3 789.86 3198.14 787.578 3198.11 786.976 3198.07 786.374 3198.07 785.802 3198.07 768.81 3214.44 754.998 3234.56 754.998 3244.07 754.998 3253.1 758.067 3259.91 763.66 3261.65 765.074 3264.19 765.526 3266.47 764.846 3269.96 763.793 3273.62 763.26 3277.38 763.26 3293.91 763.26 3307.74 773.71 3309.51 787.578 3309.78 789.766 3311.61 791.58 3314.13 792.156 3323.06 794.211 3329.27 801.058 3329.27 808.839 3329.27 818.37 3320.08 826.12 3308.81 826.12L3201.89 826.12C3190.62 826.12 3181.43 818.37 3181.43 808.839M3204.93 785.802C3204.93 772.012 3218.25 760.788 3234.57 760.788 3238.06 760.788 3240.9 763.178 3240.9 766.127 3240.9 769.076 3238.06 771.466 3234.57 771.466 3225.22 771.466 3217.58 777.901 3217.58 785.802 3217.58 788.751 3214.75 791.141 3211.26 791.141 3207.77 791.141 3204.93 788.751 3204.93 785.802M3484.65 830.741C3486.42 830.741 3488.2 830.608 3489.94 830.341 3495.5 835.839 3503.74 839.347 3512.95 839.347 3529.58 839.347 3543.14 827.908 3543.14 813.856 3543.14 802.55 3531.26 791.141 3521.74 781.972 3520.29 780.597 3518.98 779.303 3517.76 778.112 3516.57 776.913 3514.79 776.216 3512.95 776.216 3511.12 776.216 3509.34 776.913 3508.12 778.112 3506.93 779.303 3505.59 780.597 3504.16 781.972 3503.8 782.329 3503.41 782.677 3503.04 783.038 3499.91 779.608 3496.53 776.354 3493.43 773.362 3491.98 771.986 3490.63 770.693 3489.45 769.506 3488.27 768.302 3486.48 767.61 3484.65 767.61 3482.81 767.61 3481.02 768.302 3479.81 769.506 3478.62 770.693 3477.28 771.986 3475.86 773.362 3466.31 782.531 3454.46 793.957 3454.46 805.245 3454.46 819.302 3467.99 830.741 3484.65 830.741M3512.95 789.697C3520.19 796.678 3530.5 806.81 3530.5 813.856 3530.5 822.023 3522.63 828.669 3512.95 828.669 3503.28 828.669 3495.41 822.023 3495.41 813.856 3495.41 806.81 3505.72 796.678 3512.95 789.697M3484.65 781.091C3487.99 784.319 3491.6 787.857 3494.71 791.447 3488.23 798.479 3482.76 806.196 3482.76 813.856 3482.76 815.992 3483.09 818.06 3483.68 820.037 3474.43 819.608 3467.08 813.151 3467.08 805.245 3467.08 798.2 3477.36 788.072 3484.63 781.091M3547.99 978.221C3550.86 971.296 3550.43 963.579 3546.58 956.814 3542.92 950.353 3536.76 945.495 3529.15 942.946 3530.53 936.472 3528.95 929.706 3524.57 924.019 3518.85 916.638 3509.22 912.249 3498.79 912.249 3488.36 912.249 3478.7 916.655 3473.01 924.019 3468.6 929.706 3467.05 936.459 3468.43 942.946 3460.83 945.508 3454.63 950.353 3450.98 956.814 3447.15 963.579 3446.69 971.296 3449.59 978.221 3438.46 986.242 3434.05 998.657 3438.32 1011 3443.09 1024.79 3457.12 1033.69 3474.12 1033.69 3480.08 1033.69 3486.03 1032.47 3491.31 1030.17 3491.8 1029.96 3492.26 1029.77 3492.77 1029.61L3492.77 1057.54C3492.77 1060.34 3495.47 1062.63 3498.79 1062.63 3502.11 1062.63 3504.78 1060.36 3504.78 1057.54L3504.78 1029.61C3505.27 1029.78 3505.76 1029.96 3506.27 1030.17 3511.53 1032.47 3517.46 1033.69 3523.45 1033.69 3540.41 1033.69 3554.48 1024.79 3559.22 1011 3563.5 998.657 3559.09 986.242 3547.99 978.221M3547.11 1008.01C3544.62 1015.26 3537.08 1023.01 3523.46 1023.01 3519.45 1023.01 3515.62 1022.23 3512.07 1020.68 3509.7 1019.64 3507.26 1018.9 3504.8 1018.44L3504.8 1010.45 3529.27 989.806C3531.6 987.833 3531.6 984.613 3529.27 982.627 3526.93 980.637 3523.1 980.637 3520.78 982.627L3504.81 996.095 3504.81 959.655C3504.81 956.852 3502.14 954.587 3498.83 954.587 3495.5 954.587 3492.8 956.852 3492.8 959.655L3492.8 979.369 3484.47 973.389C3481.97 971.588 3478.18 971.842 3476.05 973.965 3473.91 976.084 3474.23 979.278 3476.74 981.093L3492.82 992.652 3492.82 1018.45C3490.35 1018.92 3487.92 1019.65 3485.54 1020.69 3482.02 1022.24 3478.19 1023.03 3474.18 1023.03 3460.55 1023.03 3453.05 1015.27 3450.54 1008.02 3448.1 1001.03 3449.35 990.661 3460.87 984.467 3463.67 982.945 3464.62 979.837 3462.97 977.37 3459.72 972.418 3459.51 966.61 3462.45 961.443 3465.35 956.319 3470.81 952.824 3477.44 951.874 3479.35 951.595 3480.99 950.593 3481.91 949.14 3482.82 947.696 3482.94 945.976 3482.15 944.467 3479.68 939.718 3480.24 934.271 3483.63 929.882 3487.06 925.463 3492.59 922.94 3498.84 922.94 3505.08 922.94 3510.6 925.476 3514.01 929.882 3517.41 934.271 3517.97 939.718 3515.5 944.467 3514.74 945.976 3514.8 947.696 3515.74 949.14 3516.65 950.593 3518.34 951.595 3520.24 951.874 3526.86 952.824 3532.33 956.319 3535.22 961.443 3538.15 966.61 3537.96 972.418 3534.67 977.37 3533.06 979.837 3533.98 982.945 3536.81 984.467 3548.3 990.661 3549.55 1001.03 3547.14 1008.02M3364.8 839.094C3314.71 839.094 3273.98 873.505 3273.98 915.799 3273.98 958.094 3314.71 992.488 3364.8 992.488 3414.89 992.488 3455.62 958.082 3455.62 915.799 3455.62 873.517 3414.89 839.094 3364.8 839.094M3391.91 871.622C3385.19 872.795 3378.2 873.505 3371.13 873.771L3371.13 853.348C3379.3 858.528 3386.26 864.705 3391.91 871.622M3358.48 853.348 3358.48 873.771C3351.4 873.505 3344.38 872.795 3337.69 871.622 3343.32 864.705 3350.31 858.528 3358.48 853.348M3358.48 884.539 3358.48 910.461 3321.79 910.461C3322.58 900.157 3325.77 890.291 3330.98 881.311 3339.67 883.099 3348.95 884.195 3358.48 884.539M3358.48 921.138 3358.48 947.055C3348.96 947.391 3339.71 948.487 3331.05 950.275 3325.86 941.291 3322.66 931.442 3321.84 921.138L3358.49 921.138ZM3358.48 957.815 3358.48 978.234C3350.31 973.058 3343.37 966.877 3337.74 959.964 3344.43 958.804 3351.44 958.094 3358.48 957.828M3371.13 957.815C3378.17 958.082 3385.19 958.791 3391.86 959.952 3386.23 966.864 3379.28 973.045 3371.13 978.221L3371.13 957.802ZM3371.13 947.055 3371.13 921.138 3407.78 921.138C3406.96 931.442 3403.77 941.304 3398.56 950.275 3389.9 948.5 3380.65 947.404 3371.14 947.055M3371.13 910.461 3371.13 884.539C3380.64 884.208 3389.93 883.099 3398.63 881.311 3403.83 890.291 3406.99 900.157 3407.81 910.461L3371.13 910.461ZM3404.68 868.737C3400.54 863.188 3395.69 858.034 3390.27 853.378 3399.39 856.03 3407.75 860.075 3415 865.217 3411.74 866.536 3408.28 867.71 3404.7 868.737M3324.92 868.737C3321.33 867.71 3317.87 866.536 3314.62 865.217 3321.85 860.075 3330.23 856.03 3339.35 853.378 3333.92 858.034 3329.08 863.188 3324.94 868.737M3318.8 878.229C3313.21 888.344 3309.95 899.288 3309.16 910.448L3286.88 910.448C3288.22 896.271 3294.9 883.353 3305.21 873.118 3309.4 875.052 3313.97 876.759 3318.8 878.229M3309.16 921.138C3309.98 932.496 3313.27 943.402 3318.77 953.37 3313.94 954.84 3309.39 956.547 3305.21 958.468 3294.9 948.216 3288.22 935.311 3286.88 921.138L3309.16 921.138ZM3324.89 962.875C3328.93 968.385 3333.74 973.51 3339.24 978.182 3330.15 975.526 3321.82 971.481 3314.62 966.37 3317.84 965.05 3321.3 963.889 3324.89 962.857M3404.71 962.875C3408.3 963.889 3411.73 965.063 3414.98 966.37 3407.78 971.481 3399.45 975.513 3390.36 978.182 3395.86 973.51 3400.67 968.373 3404.71 962.875M3410.85 953.37C3416.35 943.389 3419.63 932.496 3420.46 921.138L3442.74 921.138C3441.4 935.311 3434.71 948.233 3424.41 958.468 3420.22 956.547 3415.68 954.84 3410.85 953.37M3420.46 910.461C3419.67 899.301 3416.38 888.344 3410.81 878.242 3415.65 876.772 3420.2 875.052 3424.41 873.131 3434.71 883.379 3441.4 896.301 3442.74 910.461L3420.46 910.461ZM3384.43 803.475C3384.43 800.521 3387.26 798.136 3390.76 798.136L3438.54 798.136C3442.03 798.136 3444.86 800.521 3444.86 803.475 3444.86 806.423 3442.03 808.809 3438.54 808.809L3390.76 808.809C3387.26 808.809 3384.43 806.423 3384.43 803.475M3498.79 846.087C3502.29 846.087 3505.11 848.478 3505.11 851.426L3505.11 894.418C3505.11 897.367 3502.29 899.757 3498.79 899.757 3495.3 899.757 3492.47 897.367 3492.47 894.418L3492.47 851.426C3492.47 848.478 3495.3 846.087 3498.79 846.087M3239.54 854.057C3243.03 854.057 3245.86 856.447 3245.86 859.396L3245.86 958.842C3245.86 961.791 3243.03 964.181 3239.54 964.181 3236.04 964.181 3233.22 961.791 3233.22 958.842L3233.22 859.396C3233.22 856.447 3236.04 854.057 3239.54 854.057M3421.12 1022.58C3421.12 1025.52 3418.29 1027.91 3414.8 1027.91L3314.82 1027.91C3311.33 1027.91 3308.5 1025.52 3308.5 1022.58 3308.5 1019.62 3311.33 1017.24 3314.82 1017.24L3414.8 1017.24C3418.29 1017.24 3421.12 1019.62 3421.12 1022.58" stroke="#FFFFFF" stroke-width="2.29167" stroke-miterlimit="8" fill="#6A8D29" fill-rule="evenodd"/></g></svg>