<svg width="1284" height="1146" xmlns="http://www.w3.org/2000/svg" xmlns:xlink="http://www.w3.org/1999/xlink" xml:space="preserve" overflow="hidden"><g transform="translate(-1567 -280)"><path d="M2131.72 618.374 2176.73 618.374 2176.73 706.794 2221.72 706.794 2221.72 618.374 2266.73 618.374C2328.76 618.374 2379.22 568.79 2379.22 507.845 2379.22 473.164 2362.29 440.645 2334.24 419.889 2334.24 419.735 2334.24 419.58 2334.24 419.424 2334.24 346.279 2273.69 286.794 2199.22 286.794 2124.79 286.794 2064.24 346.279 2064.24 419.424 2064.24 419.6 2064.24 419.758 2064.24 419.889 2036.16 440.624 2019.22 473.143 2019.22 507.845 2019.22 568.79 2069.69 618.374 2131.72 618.374ZM2098.9 450.329C2106.79 445.995 2111.25 437.464 2110.29 428.689L2109.74 424.509C2109.53 422.805 2109.22 421.149 2109.22 419.424 2109.22 370.66 2149.58 331.004 2199.22 331.004 2248.87 331.004 2289.22 370.66 2289.22 419.424 2289.22 421.149 2288.92 422.805 2288.71 424.485L2288.16 428.664C2287.2 437.44 2291.66 445.974 2299.54 450.305 2320.94 462.154 2334.24 484.194 2334.24 507.845 2334.24 544.409 2303.93 574.164 2266.73 574.164L2221.72 574.164 2221.72 541.779 2279.21 504.134 2254.25 467.349 2221.72 488.638 2221.72 441.53 2176.73 441.53 2176.73 488.638 2144.2 467.349 2119.27 504.134 2176.73 541.779 2176.73 574.164 2131.72 574.164C2094.52 574.164 2064.24 544.409 2064.24 507.845 2064.24 484.194 2077.51 462.154 2098.9 450.329Z" stroke="#FFFFFF" stroke-width="11.8163" stroke-miterlimit="8" fill="#6A8D29" fill-rule="evenodd"/><path d="M1726.03 618.374 1771.17 618.374 1771.17 706.794 1816.28 706.794 1816.28 618.374 1861.42 618.374C1923.61 618.374 1974.22 568.79 1974.22 507.845 1974.22 473.164 1957.24 440.645 1929.11 419.889 1929.11 419.735 1929.11 419.58 1929.11 419.424 1929.11 346.279 1868.4 286.794 1793.72 286.794 1719.05 286.794 1658.33 346.279 1658.33 419.424 1658.33 419.6 1658.33 419.758 1658.33 419.889 1630.17 440.645 1613.22 473.164 1613.22 507.845 1613.22 568.79 1663.83 618.374 1726.03 618.374ZM1693.12 450.329C1701.03 445.995 1705.5 437.464 1704.54 428.689L1703.99 424.509C1703.78 422.805 1703.47 421.149 1703.47 419.424 1703.47 370.66 1743.94 331.004 1793.72 331.004 1843.51 331.004 1883.97 370.66 1883.97 419.424 1883.97 421.149 1883.66 422.805 1883.46 424.485L1882.91 428.664C1881.94 437.44 1886.41 445.974 1894.32 450.305 1915.77 462.154 1929.11 484.194 1929.11 507.845 1929.11 544.409 1898.72 574.164 1861.42 574.164L1816.28 574.164 1816.28 541.779 1873.93 504.134 1848.9 467.349 1816.28 488.638 1816.28 441.53 1771.17 441.53 1771.17 488.638 1738.54 467.349 1713.55 504.134 1771.17 541.779 1771.17 574.164 1726.03 574.164C1688.72 574.164 1658.33 544.409 1658.33 507.845 1658.33 484.194 1671.67 462.154 1693.12 450.329Z" stroke="#FFFFFF" stroke-width="11.8163" stroke-miterlimit="8" fill="#6A8D29" fill-rule="evenodd"/><path d="M2541.03 618.374 2586.17 618.374 2586.17 706.794 2631.28 706.794 2631.28 618.374 2676.42 618.374C2738.61 618.374 2789.22 568.79 2789.22 507.845 2789.22 473.164 2772.24 440.645 2744.08 419.889 2744.08 419.735 2744.08 419.58 2744.08 419.424 2744.08 346.279 2683.4 286.794 2608.72 286.794 2534.05 286.794 2473.33 346.279 2473.33 419.424 2473.33 419.6 2473.33 419.758 2473.33 419.889 2445.21 440.624 2428.22 473.143 2428.22 507.845 2428.22 568.79 2478.83 618.374 2541.03 618.374ZM2508.12 450.329C2516.03 445.995 2520.5 437.464 2519.54 428.689L2518.99 424.509C2518.78 422.805 2518.47 421.149 2518.47 419.424 2518.47 370.66 2558.94 331.004 2608.72 331.004 2658.51 331.004 2698.97 370.66 2698.97 419.424 2698.97 421.149 2698.66 422.805 2698.46 424.485L2697.91 428.664C2696.94 437.44 2701.41 445.974 2709.32 450.305 2730.77 462.154 2744.08 484.194 2744.08 507.845 2744.08 544.409 2713.72 574.164 2676.42 574.164L2631.28 574.164 2631.28 541.779 2688.93 504.134 2663.9 467.349 2631.28 488.638 2631.28 441.53 2586.17 441.53 2586.17 488.638 2553.54 467.349 2528.55 504.134 2586.17 541.779 2586.17 574.164 2541.03 574.164C2503.72 574.164 2473.33 544.409 2473.33 507.845 2473.33 484.194 2486.67 462.154 2508.12 450.329Z" stroke="#FFFFFF" stroke-width="11.8163" stroke-miterlimit="8" fill="#6A8D29" fill-rule="evenodd"/><path d="M2314.15 1038.52 2314.15 1125.79 2359.3 1125.79 2359.3 1038.52C2421.56 1038.52 2472.22 989.581 2472.22 929.43L2472.22 907.61C2472.22 895.549 2462.1 885.795 2449.65 885.795L2427.05 885.795C2390 885.795 2357.31 903.38 2336.72 930.106 2316.14 903.38 2283.45 885.795 2246.4 885.795L2223.8 885.795C2211.34 885.795 2201.22 895.549 2201.22 907.61L2201.22 929.43C2201.22 989.581 2251.89 1038.52 2314.15 1038.52ZM2427.05 929.43C2427.05 965.516 2396.65 994.885 2359.3 994.885 2359.3 958.799 2389.69 929.43 2427.05 929.43ZM2314.15 994.885C2276.79 994.885 2246.4 965.516 2246.4 929.43 2283.76 929.43 2314.15 958.799 2314.15 994.885Z" stroke="#FFFFFF" stroke-width="11.8163" stroke-miterlimit="8" fill="#6A8D29" fill-rule="evenodd"/><path d="M2630.56 1038.52 2630.56 1125.79 2675.88 1125.79 2675.88 1038.52C2738.37 1038.52 2789.22 989.581 2789.22 929.43L2789.22 907.61C2789.22 895.549 2779.06 885.795 2766.57 885.795L2743.88 885.795C2706.69 885.795 2673.88 903.38 2653.22 930.106 2632.56 903.38 2599.75 885.795 2562.57 885.795L2539.88 885.795C2527.38 885.795 2517.22 895.549 2517.22 907.61L2517.22 929.43C2517.22 989.581 2568.07 1038.52 2630.56 1038.52ZM2743.88 929.43C2743.88 965.516 2713.37 994.885 2675.88 994.885 2675.88 958.799 2706.38 929.43 2743.88 929.43ZM2630.56 994.885C2593.07 994.885 2562.57 965.516 2562.57 929.43 2600.03 929.43 2630.56 958.799 2630.56 994.885Z" stroke="#FFFFFF" stroke-width="11.8163" stroke-miterlimit="8" fill="#6A8D29" fill-rule="evenodd"/><path d="M2314.15 1305.07 2314.15 1393.79 2359.3 1393.79 2359.3 1305.07C2421.56 1305.07 2472.22 1255.31 2472.22 1194.16L2472.22 1171.97C2472.22 1159.71 2462.1 1149.79 2449.65 1149.79L2427.05 1149.79C2390 1149.79 2357.31 1167.67 2336.72 1194.84 2316.14 1167.67 2283.45 1149.79 2246.4 1149.79L2223.8 1149.79C2211.34 1149.79 2201.22 1159.71 2201.22 1171.97L2201.22 1194.16C2201.22 1255.31 2251.89 1305.07 2314.15 1305.07ZM2427.05 1194.16C2427.05 1230.85 2396.65 1260.7 2359.3 1260.7 2359.3 1224.01 2389.69 1194.16 2427.05 1194.16ZM2314.15 1260.7C2276.79 1260.7 2246.4 1230.85 2246.4 1194.16 2283.76 1194.16 2314.15 1224.01 2314.15 1260.7Z" stroke="#FFFFFF" stroke-width="11.8163" stroke-miterlimit="8" fill="#6A8D29" fill-rule="evenodd"/><path d="M2630.56 1305.07 2630.56 1393.79 2675.88 1393.79 2675.88 1305.07C2738.37 1305.07 2789.22 1255.31 2789.22 1194.16L2789.22 1171.97C2789.22 1159.71 2779.06 1149.79 2766.57 1149.79L2743.88 1149.79C2706.69 1149.79 2673.88 1167.67 2653.22 1194.84 2632.56 1167.67 2599.75 1149.79 2562.57 1149.79L2539.88 1149.79C2527.38 1149.79 2517.22 1159.71 2517.22 1171.97L2517.22 1194.16C2517.22 1255.31 2568.07 1305.07 2630.56 1305.07ZM2743.88 1194.16C2743.88 1230.85 2713.37 1260.7 2675.88 1260.7 2675.88 1224.01 2706.38 1194.16 2743.88 1194.16ZM2630.56 1260.7C2593.07 1260.7 2562.57 1230.85 2562.57 1194.16 2600.03 1194.16 2630.56 1224.01 2630.56 1260.7Z" stroke="#FFFFFF" stroke-width="11.8163" stroke-miterlimit="8" fill="#6A8D29" fill-rule="evenodd"/><path d="M1635.69 1149.81 1680.69 1149.81 1680.69 1347.8C1680.69 1359.96 1690.79 1369.79 1703.19 1369.79L1973.23 1369.79C1985.63 1369.79 1995.73 1359.96 1995.73 1347.8L1995.73 1149.81 2040.73 1149.81C2050.03 1149.81 2058.42 1144.16 2061.75 1135.62 2065.08 1127.09 2062.64 1117.43 2055.67 1111.36L1853.17 935.371C1844.65 927.935 1831.8 927.935 1823.28 935.371L1620.75 1111.36C1613.78 1117.41 1611.37 1127.09 1614.7 1135.62 1618 1144.16 1626.38 1149.81 1635.69 1149.81ZM1860.73 1325.8 1815.69 1325.8 1815.69 1281.8 1860.73 1281.8 1860.73 1325.8ZM1950.73 1325.8 1905.73 1325.8 1905.73 1259.8C1905.73 1247.64 1895.63 1237.8 1883.23 1237.8L1793.19 1237.8C1780.79 1237.8 1770.69 1247.64 1770.69 1259.8L1770.69 1325.8 1725.69 1325.8 1725.69 1149.81 1950.73 1149.81 1950.73 1325.8ZM1838.19 981.261 1981.54 1105.82 1973.23 1105.82 1703.19 1105.82 1694.88 1105.82 1838.19 981.261Z" stroke="#FFFFFF" stroke-width="11.8163" stroke-miterlimit="8" fill="#6A8D29" fill-rule="evenodd"/><path d="M1567.72 812.321 2832.72 812.321" stroke="#6A8D29" stroke-width="35.4494" stroke-linejoin="round" stroke-miterlimit="10" fill="none" fill-rule="evenodd"/><path d="M2130.59 812.295 2130.59 1408.29" stroke="#6A8D29" stroke-width="35.4494" stroke-linejoin="round" stroke-miterlimit="10" fill="none" fill-rule="evenodd"/></g></svg>