<svg width="568" height="501" xmlns="http://www.w3.org/2000/svg" xmlns:xlink="http://www.w3.org/1999/xlink" xml:space="preserve" overflow="hidden"><defs><filter id="fx0" x="-10%" y="-10%" width="120%" height="120%" filterUnits="userSpaceOnUse" primitiveUnits="userSpaceOnUse"><feComponentTransfer color-interpolation-filters="sRGB"><feFuncR type="discrete" tableValues="0 0"/><feFuncG type="discrete" tableValues="0 0"/><feFuncB type="discrete" tableValues="0 0"/><feFuncA type="linear" slope="0.4" intercept="0"/></feComponentTransfer><feGaussianBlur stdDeviation="6.11111 6.11111"/></filter><clipPath id="clip1"><rect x="2156" y="570" width="568" height="501"/></clipPath><clipPath id="clip2"><path d="M2440 580C2296.41 580 2180 681.407 2180 806.5 2180 931.592 2296.41 1033 2440 1033 2583.59 1033 2700 931.592 2700 806.5 2700 681.407 2583.59 580 2440 580ZM2156 570 2724 570 2724 1071 2156 1071Z" fill-rule="evenodd" clip-rule="evenodd"/></clipPath></defs><g clip-path="url(#clip1)" transform="translate(-2156 -570)"><g clip-path="url(#clip2)"><g filter="url(#fx0)" transform="translate(2155 569)"><g><path d="M25 251.25C25 126.157 141.406 24.7499 285 24.7499 428.594 24.7499 545 126.157 545 251.25 545 376.342 428.594 477.75 285 477.75 141.406 477.75 25 376.342 25 251.25Z" stroke="#6A8D29" stroke-width="10" stroke-linejoin="round" stroke-miterlimit="10" fill="#FFFFFF" fill-rule="evenodd"/></g></g></g><path d="M2180 806.5C2180 681.407 2296.41 580 2440 580 2583.59 580 2700 681.407 2700 806.5 2700 931.592 2583.59 1033 2440 1033 2296.41 1033 2180 931.592 2180 806.5Z" stroke="#6A8D29" stroke-width="10.3125" stroke-linejoin="round" stroke-miterlimit="10" fill="#FFFFFF" fill-rule="evenodd"/><path d="M2418.31 736.816 2431.44 736.816 2431.44 762.5 2444.56 762.5 2444.56 736.816 2457.69 736.816C2475.78 736.816 2490.5 722.413 2490.5 704.71 2490.5 694.636 2485.56 685.19 2477.38 679.161 2477.38 679.116 2477.38 679.071 2477.38 679.026 2477.38 657.779 2459.72 640.5 2438 640.5 2416.29 640.5 2398.63 657.779 2398.63 679.026 2398.63 679.077 2398.63 679.123 2398.63 679.161 2390.44 685.184 2385.5 694.63 2385.5 704.71 2385.5 722.413 2400.22 736.816 2418.31 736.816ZM2408.74 688.003C2411.04 686.744 2412.34 684.266 2412.06 681.717L2411.9 680.503C2411.84 680.008 2411.75 679.527 2411.75 679.026 2411.75 664.861 2423.52 653.342 2438 653.342 2452.48 653.342 2464.25 664.861 2464.25 679.026 2464.25 679.527 2464.16 680.008 2464.1 680.496L2463.94 681.71C2463.66 684.259 2464.96 686.738 2467.26 687.996 2473.5 691.438 2477.38 697.84 2477.38 704.71 2477.38 715.331 2468.54 723.974 2457.69 723.974L2444.56 723.974 2444.56 714.567 2461.33 703.632 2454.05 692.947 2444.56 699.131 2444.56 685.447 2431.44 685.447 2431.44 699.131 2421.95 692.947 2414.68 703.632 2431.44 714.567 2431.44 723.974 2418.31 723.974C2407.46 723.974 2398.63 715.331 2398.63 704.71 2398.63 697.84 2402.5 691.438 2408.74 688.003Z" stroke="#FFFFFF" stroke-width="3.4375" stroke-miterlimit="8" fill="#6A8D29" fill-rule="evenodd"/><path d="M2300.31 736.816 2313.44 736.816 2313.44 762.5 2326.56 762.5 2326.56 736.816 2339.69 736.816C2357.78 736.816 2372.5 722.413 2372.5 704.71 2372.5 694.636 2367.56 685.19 2359.38 679.161 2359.38 679.116 2359.38 679.071 2359.38 679.026 2359.38 657.779 2341.72 640.5 2320 640.5 2298.28 640.5 2280.62 657.779 2280.62 679.026 2280.62 679.077 2280.62 679.123 2280.62 679.161 2272.43 685.19 2267.5 694.636 2267.5 704.71 2267.5 722.413 2282.22 736.816 2300.31 736.816ZM2290.74 688.003C2293.04 686.744 2294.34 684.266 2294.06 681.717L2293.9 680.503C2293.84 680.008 2293.75 679.527 2293.75 679.026 2293.75 664.861 2305.52 653.342 2320 653.342 2334.48 653.342 2346.25 664.861 2346.25 679.026 2346.25 679.527 2346.16 680.008 2346.1 680.496L2345.94 681.71C2345.66 684.259 2346.96 686.738 2349.26 687.996 2355.5 691.438 2359.38 697.84 2359.38 704.71 2359.38 715.331 2350.54 723.974 2339.69 723.974L2326.56 723.974 2326.56 714.567 2343.33 703.632 2336.05 692.947 2326.56 699.131 2326.56 685.447 2313.44 685.447 2313.44 699.131 2303.95 692.947 2296.68 703.632 2313.44 714.567 2313.44 723.974 2300.31 723.974C2289.46 723.974 2280.62 715.331 2280.62 704.71 2280.62 697.84 2284.5 691.438 2290.74 688.003Z" stroke="#FFFFFF" stroke-width="3.4375" stroke-miterlimit="8" fill="#6A8D29" fill-rule="evenodd"/><path d="M2537.31 736.816 2550.44 736.816 2550.44 762.5 2563.56 762.5 2563.56 736.816 2576.69 736.816C2594.78 736.816 2609.5 722.413 2609.5 704.71 2609.5 694.636 2604.56 685.19 2596.37 679.161 2596.37 679.116 2596.37 679.071 2596.37 679.026 2596.37 657.779 2578.72 640.5 2557 640.5 2535.28 640.5 2517.62 657.779 2517.62 679.026 2517.62 679.077 2517.62 679.123 2517.62 679.161 2509.44 685.184 2504.5 694.63 2504.5 704.71 2504.5 722.413 2519.22 736.816 2537.31 736.816ZM2527.74 688.003C2530.04 686.744 2531.34 684.266 2531.06 681.717L2530.9 680.503C2530.84 680.008 2530.75 679.527 2530.75 679.026 2530.75 664.861 2542.52 653.342 2557 653.342 2571.48 653.342 2583.25 664.861 2583.25 679.026 2583.25 679.527 2583.16 680.008 2583.1 680.496L2582.94 681.71C2582.66 684.259 2583.96 686.738 2586.26 687.996 2592.5 691.438 2596.37 697.84 2596.37 704.71 2596.37 715.331 2587.54 723.974 2576.69 723.974L2563.56 723.974 2563.56 714.567 2580.33 703.632 2573.05 692.947 2563.56 699.131 2563.56 685.447 2550.44 685.447 2550.44 699.131 2540.95 692.947 2533.68 703.632 2550.44 714.567 2550.44 723.974 2537.31 723.974C2526.46 723.974 2517.62 715.331 2517.62 704.71 2517.62 697.84 2521.5 691.438 2527.74 688.003Z" stroke="#FFFFFF" stroke-width="3.4375" stroke-miterlimit="8" fill="#6A8D29" fill-rule="evenodd"/><path d="M2471.42 859.045 2471.42 884.5 2484.58 884.5 2484.58 859.045C2502.73 859.045 2517.5 844.771 2517.5 827.227L2517.5 820.863C2517.5 817.345 2514.55 814.5 2510.92 814.5L2504.33 814.5C2493.53 814.5 2484 819.629 2478 827.424 2472 819.629 2462.47 814.5 2451.67 814.5L2445.08 814.5C2441.45 814.5 2438.5 817.345 2438.5 820.863L2438.5 827.227C2438.5 844.771 2453.27 859.045 2471.42 859.045ZM2504.33 827.227C2504.33 837.752 2495.47 846.318 2484.58 846.318 2484.58 835.793 2493.44 827.227 2504.33 827.227ZM2471.42 846.318C2460.53 846.318 2451.67 837.752 2451.67 827.227 2462.56 827.227 2471.42 835.793 2471.42 846.318Z" stroke="#FFFFFF" stroke-width="3.4375" stroke-miterlimit="8" fill="#6A8D29" fill-rule="evenodd"/><path d="M2563.42 859.045 2563.42 884.5 2576.58 884.5 2576.58 859.045C2594.73 859.045 2609.5 844.771 2609.5 827.227L2609.5 820.863C2609.5 817.345 2606.55 814.5 2602.92 814.5L2596.33 814.5C2585.53 814.5 2576 819.629 2570 827.424 2564 819.629 2554.47 814.5 2543.67 814.5L2537.08 814.5C2533.45 814.5 2530.5 817.345 2530.5 820.863L2530.5 827.227C2530.5 844.771 2545.27 859.045 2563.42 859.045ZM2596.33 827.227C2596.33 837.752 2587.47 846.318 2576.58 846.318 2576.58 835.793 2585.44 827.227 2596.33 827.227ZM2563.42 846.318C2552.53 846.318 2543.67 837.752 2543.67 827.227 2554.55 827.227 2563.42 835.793 2563.42 846.318Z" stroke="#FFFFFF" stroke-width="3.4375" stroke-miterlimit="8" fill="#6A8D29" fill-rule="evenodd"/><path d="M2471.42 936.682 2471.42 962.5 2484.58 962.5 2484.58 936.682C2502.73 936.682 2517.5 922.204 2517.5 904.409L2517.5 897.954C2517.5 894.385 2514.55 891.5 2510.92 891.5L2504.33 891.5C2493.53 891.5 2484 896.702 2478 904.609 2472 896.702 2462.47 891.5 2451.67 891.5L2445.08 891.5C2441.45 891.5 2438.5 894.385 2438.5 897.954L2438.5 904.409C2438.5 922.204 2453.27 936.682 2471.42 936.682ZM2504.33 904.409C2504.33 915.085 2495.47 923.773 2484.58 923.773 2484.58 913.097 2493.44 904.409 2504.33 904.409ZM2471.42 923.773C2460.53 923.773 2451.67 915.085 2451.67 904.409 2462.56 904.409 2471.42 913.097 2471.42 923.773Z" stroke="#FFFFFF" stroke-width="3.4375" stroke-miterlimit="8" fill="#6A8D29" fill-rule="evenodd"/><path d="M2563.42 936.682 2563.42 962.5 2576.58 962.5 2576.58 936.682C2594.73 936.682 2609.5 922.204 2609.5 904.409L2609.5 897.954C2609.5 894.385 2606.55 891.5 2602.92 891.5L2596.33 891.5C2585.53 891.5 2576 896.702 2570 904.609 2564 896.702 2554.47 891.5 2543.67 891.5L2537.08 891.5C2533.45 891.5 2530.5 894.385 2530.5 897.954L2530.5 904.409C2530.5 922.204 2545.27 936.682 2563.42 936.682ZM2596.33 904.409C2596.33 915.085 2587.47 923.773 2576.58 923.773 2576.58 913.097 2585.44 904.409 2596.33 904.409ZM2563.42 923.773C2552.53 923.773 2543.67 915.085 2543.67 904.409 2554.55 904.409 2563.42 913.097 2563.42 923.773Z" stroke="#FFFFFF" stroke-width="3.4375" stroke-miterlimit="8" fill="#6A8D29" fill-rule="evenodd"/><path d="M2274.04 891.505 2287.14 891.505 2287.14 949.101C2287.14 952.64 2290.08 955.5 2293.69 955.5L2372.3 955.5C2375.91 955.5 2378.85 952.64 2378.85 949.101L2378.85 891.505 2391.95 891.505C2394.66 891.505 2397.1 889.86 2398.07 887.377 2399.04 884.894 2398.33 882.084 2396.3 880.319L2337.35 829.122C2334.87 826.959 2331.13 826.959 2328.65 829.122L2269.69 880.319C2267.66 882.078 2266.96 884.894 2267.93 887.377 2268.89 889.86 2271.33 891.505 2274.04 891.505ZM2339.55 942.701 2326.44 942.701 2326.44 929.902 2339.55 929.902 2339.55 942.701ZM2365.75 942.701 2352.65 942.701 2352.65 923.502C2352.65 919.964 2349.71 917.103 2346.1 917.103L2319.89 917.103C2316.28 917.103 2313.34 919.964 2313.34 923.502L2313.34 942.701 2300.24 942.701 2300.24 891.505 2365.75 891.505 2365.75 942.701ZM2332.99 842.472 2374.72 878.706 2372.3 878.706 2293.69 878.706 2291.27 878.706 2332.99 842.472Z" stroke="#FFFFFF" stroke-width="3.4375" stroke-miterlimit="8" fill="#6A8D29" fill-rule="evenodd"/><path d="M2254 793 2622 793" stroke="#6A8D29" stroke-width="10.3125" stroke-linejoin="round" stroke-miterlimit="10" fill="#AAC071" fill-rule="evenodd"/><path d="M2418 793 2418 966.607" stroke="#6A8D29" stroke-width="10.3125" stroke-linejoin="round" stroke-miterlimit="10" fill="#AAC071" fill-rule="evenodd"/></g></svg>