<svg width="60" height="61" xmlns="http://www.w3.org/2000/svg" xmlns:xlink="http://www.w3.org/1999/xlink" xml:space="preserve" overflow="hidden"><defs><clipPath id="clip0"><rect x="737" y="341" width="60" height="61"/></clipPath></defs><g clip-path="url(#clip0)" transform="translate(-737 -341)"><path d="M6.85435 28.2261 32.1978 28.2261C33.463 28.2261 33.463 26.3609 32.1978 26.3609L6.85435 26.3609C5.62174 26.3609 5.62174 28.2261 6.85435 28.2261L6.85435 28.2261Z" fill="#42792E" transform="matrix(1 0 0 1.01667 737 341)"/><path d="M25.3043 42.463 6.85435 42.463C5.62174 42.463 5.62174 44.3283 6.85435 44.3283L25.3109 44.3283C26.5435 44.3283 26.5435 42.463 25.3109 42.463L25.3109 42.463Z" fill="#42792E" transform="matrix(1 0 0 1.01667 737 341)"/><path d="M1.86522 5.72609 21.1239 5.72609 21.1239 20.8761C21.1239 21.3652 21.5478 21.7891 22.0761 21.7891L37.1935 21.7891 37.1935 34.7217C37.0891 35.1457 33.1891 41.3283 33.1174 41.9609L31.9239 52.5391C31.8522 53.3478 32.7652 53.8761 33.437 53.3804L37.2 50.6022 37.2 54.2609 1.86522 54.2609 1.86522 5.72609 1.86522 5.72609ZM22.9891 7.06304 35.8565 19.9304 22.9891 19.9304 22.9891 7.06304 22.9891 7.06304ZM49.3174 17.4652 55.0826 20.7717 41.0935 45.0261 35.3283 41.687 49.3174 17.4717 49.3174 17.4717ZM51.9196 13.0043C52.4804 11.987 53.6087 11.3543 54.7696 11.3543 57.2674 11.3543 58.9891 14.0935 57.6848 16.3109L56.0348 19.1609 50.2696 15.8543 51.9196 13.0043 51.9196 13.0043ZM34.0304 50.6152 34.8391 43.5522 39.763 46.4022 34.0304 50.6217 34.0304 50.6217ZM0.952174 56.1326 38.1391 56.1326C38.6674 56.1326 39.0913 55.7087 39.0913 55.1804L39.0913 49.2065 42.1174 46.9565C42.3652 46.7087 56.3544 22.35 59.3022 17.2565 60.0065 16.063 60.1826 14.6935 59.8304 13.3565 58.637 8.92826 52.6239 8.04783 50.3022 12.0587L39.0913 31.4935 39.0913 20.8761C39.0913 20.5957 38.9478 20.3478 38.7717 20.1717L22.7087 4.14783C22.5326 3.93913 22.2848 3.86739 22.0435 3.86739L0.952174 3.86739C0.423913 3.86739 0 4.2913 0 4.78044L0 55.187C0 55.7152 0.423913 56.1391 0.952174 56.1391L0.952174 56.1391Z" fill="#42792E" transform="matrix(1 0 0 1.01667 737 341)"/><path d="M17.9609 47.837 6.85435 47.837C5.62174 47.837 5.62174 49.7022 6.85435 49.7022L17.9609 49.7022C19.1935 49.7022 19.1935 47.837 17.9609 47.837L17.9609 47.837Z" fill="#42792E" transform="matrix(1 0 0 1.01667 737 341)"/><path d="M6.85435 38.9804 32.1978 38.9804C33.463 38.9804 33.463 37.0826 32.1978 37.0826L6.85435 37.0826C5.62174 37.0826 5.62174 38.9804 6.85435 38.9804L6.85435 38.9804Z" fill="#42792E" transform="matrix(1 0 0 1.01667 737 341)"/><path d="M41.5109 38.5565C41.863 38.5565 42.1435 38.413 42.3196 38.1L49.7348 25.3043C50.3348 24.2478 48.7174 23.3022 48.0848 24.3913L40.7022 37.1478C40.35 37.7804 40.8065 38.5565 41.5109 38.5565L41.5109 38.5565Z" fill="#42792E" transform="matrix(1 0 0 1.01667 737 341)"/><path d="M6.85435 33.6 32.1978 33.6C33.463 33.6 33.463 31.7348 32.1978 31.7348L6.85435 31.7348C5.62174 31.7348 5.62174 33.6 6.85435 33.6L6.85435 33.6Z" fill="#42792E" transform="matrix(1 0 0 1.01667 737 341)"/></g></svg>