<svg width="720" height="720" xmlns="http://www.w3.org/2000/svg" xmlns:xlink="http://www.w3.org/1999/xlink" xml:space="preserve" overflow="hidden"><g transform="translate(127 -323)"><path d="M243.122 749.644C165.448 749.644 102.256 686.452 102.256 608.778 102.256 531.104 165.448 467.912 243.122 467.912 320.796 467.912 383.988 531.103 383.988 608.778 383.988 686.452 320.797 749.644 243.122 749.644ZM243.122 482.148C173.299 482.148 116.492 538.955 116.492 608.778 116.492 678.601 173.299 735.408 243.122 735.408 312.945 735.408 369.752 678.601 369.752 608.778 369.752 538.955 312.945 482.148 243.122 482.148Z" fill="#3A8B95"/><path d="M243.114 749.644C241.795 749.644 240.464 749.281 239.273 748.515 236.305 746.607 166.618 700.729 166.684 608.774 166.738 524.493 235.902 471.552 238.844 469.339 241.984 466.981 246.444 467.608 248.806 470.752 251.167 473.889 250.541 478.353 247.404 480.718 246.741 481.217 180.969 531.735 180.92 608.782 180.862 693.043 246.312 736.113 246.972 736.537 250.281 738.664 251.238 743.07 249.111 746.376 247.75 748.489 245.455 749.644 243.114 749.644Z" fill="#3A8B95"/><path d="M243.13 749.644C240.748 749.644 238.423 748.453 237.076 746.285 235.003 742.947 236.025 738.561 239.359 736.484 240.233 735.936 307.818 692.586 307.761 608.782 307.707 531.607 239.628 481.291 238.939 480.792 235.758 478.48 235.053 474.029 237.361 470.847 239.673 467.67 244.124 466.965 247.306 469.269 250.351 471.482 321.939 524.419 321.996 608.774 322.062 700.8 249.948 746.664 246.882 748.572 245.71 749.298 244.412 749.644 243.13 749.644Z" fill="#3A8B95"/><path d="M368.73 569.846 117.519 569.846C113.587 569.846 110.401 566.66 110.401 562.728 110.401 558.796 113.587 555.61 117.519 555.61L368.73 555.61C372.662 555.61 375.848 558.796 375.848 562.728 375.848 566.66 372.662 569.846 368.73 569.846Z" fill="#3A8B95"/><path d="M368.73 657.202 117.519 657.202C113.587 657.202 110.401 654.016 110.401 650.084 110.401 646.152 113.587 642.966 117.519 642.966L368.73 642.966C372.662 642.966 375.848 646.152 375.848 650.084 375.848 654.016 372.662 657.202 368.73 657.202Z" fill="#3A8B95"/><path d="M243.122 749.644C239.19 749.644 236.004 746.458 236.004 742.526L236.004 475.03C236.004 471.099 239.19 467.913 243.122 467.913 247.054 467.913 250.24 471.099 250.24 475.03L250.24 742.526C250.24 746.458 247.054 749.644 243.122 749.644Z" fill="#3A8B95"/><path d="M231.532 859.297C229.711 859.297 227.893 858.584 226.529 857.166 193.75 823.06 119.369 783.218-48.7234 787.199-52.0168 787.277-54.5716 787.339-56.299 787.343-56.596 787.343-57.4528 788.196-57.766 790.298-60.0412 805.601-63.3628 813.861-65.56 819.326-66.5038 821.671-67.2496 823.522-67.3402 824.631-67.6576 828.447-71.0578 831.295-74.8288 830.974-78.6496 830.656-81.4894 827.305-81.172 823.485-80.908 820.287-79.7626 817.443-78.4354 814.15-76.3666 808.998-73.5268 801.942-71.4904 788.254-70.1758 779.43-64.084 773.487-56.3356 773.462-54.6748 773.458-52.2142 773.4-49.0528 773.326 124.138 769.192 201.833 811.434 236.536 847.546 239.191 850.312 239.104 854.706 236.343 857.36 234.994 858.654 233.263 859.297 231.532 859.297Z" fill="#3A8B95"/><path d="M199.335 896.444C199.088 896.444 198.837 896.431 198.581 896.403L-87.9436 865.479C-93.3838 864.91-97.4398 859.828-96.9616 854.157L-94.666 831.637C-94.4434 828.925-93.0748 826.275-90.928 824.494-88.855 822.78-86.275 822.009-83.6038 822.256L209.8 855.983C213.608 856.424 216.34 859.866 215.904 863.67 215.463 867.478 211.996 870.186 208.217 869.773L-81.2134 836.505-82.8004 852.076 200.073 882.604C203.881 883.016 206.638 886.437 206.226 890.249 205.843 893.806 202.834 896.444 199.335 896.444Z" fill="#3A8B95"/><path d="M263.969 898.089 200.926 898.089C198.606 898.089 196.351 897.12 194.743 895.438 193.144 893.761 192.287 891.482 192.394 889.182 193.441 867.792 211.032 851.05 232.447 851.05 253.859 851.05 271.449 867.792 272.496 889.165 272.611 891.453 271.762 893.74 270.163 895.422 268.556 897.116 266.298 898.089 263.969 898.089ZM207.15 884.208 257.742 884.208C254.696 873.034 244.499 864.931 232.448 864.931 220.392 864.931 210.187 873.038 207.15 884.208Z" fill="#3A8B95"/><path d="M234.48 859.297C232.749 859.297 231.018 858.654 229.67 857.359 226.909 854.705 226.822 850.312 229.476 847.546 264.184 811.429 341.986 769.241 515.06 773.325 518.228 773.4 520.688 773.457 522.344 773.461 530.102 773.486 536.186 779.433 537.5 788.257 539.534 801.941 542.372 808.997 544.448 814.145 545.774 817.442 546.92 820.286 547.184 823.485 547.502 827.305 544.664 830.656 540.842 830.973 537.032 831.286 533.672 828.447 533.354 824.63 533.264 823.521 532.514 821.671 531.572 819.33 529.376 813.864 526.052 805.605 523.772 790.297 523.46 788.191 522.608 787.342 522.308 787.342 520.586 787.338 518.024 787.276 514.736 787.198 346.573 783.312 272.262 823.06 239.483 857.166 238.119 858.58 236.301 859.297 234.48 859.297Z" fill="#3A8B95"/><path d="M266.673 896.444C263.173 896.444 260.165 893.806 259.782 890.25 259.369 886.437 262.127 883.017 265.935 882.604L548.81 852.076 547.226 836.501 257.791 869.774C253.987 870.195 250.541 867.478 250.104 863.67 249.667 859.866 252.4 856.425 256.208 855.984L549.548 822.265C552.26 821.989 554.852 822.777 556.928 824.487 559.076 826.264 560.444 828.914 560.69 831.753L562.964 854.038C563.444 859.837 559.382 864.911 553.928 865.48L267.427 896.404C267.171 896.428 266.92 896.444 266.673 896.444Z" fill="#3A8B95"/></g></svg>