<svg width="58" height="54" xmlns="http://www.w3.org/2000/svg" xmlns:xlink="http://www.w3.org/1999/xlink" xml:space="preserve" overflow="hidden"><g transform="translate(-655 -541)"><path d="M30.8422 0.70149 54.6437 0.70149C56.0607 0.70149 57.2088 1.84959 57.2088 3.2666L57.2088 36.3559C57.2088 37.7729 56.0607 38.921 54.6437 38.921L3.2666 38.921C1.84959 38.921 0.70149 37.7729 0.70149 36.3559L0.70149 3.2666C0.70149 1.84959 1.84959 0.70149 3.2666 0.70149L30.8422 0.70149Z" stroke="#42792E" stroke-width="1.99965" stroke-linecap="round" stroke-linejoin="round" fill="none" transform="matrix(1 0 0 1.0127 655.046 541)"/><path d="M34.9085 41.9584 37.9296 47.3973" stroke="#42792E" stroke-width="1.99965" stroke-linecap="round" stroke-linejoin="round" fill="none" transform="matrix(1 0 0 1.0127 655.046 541)"/><path d="M19.9784 47.3973 22.9995 41.9584" stroke="#42792E" stroke-width="1.99965" stroke-linecap="round" stroke-linejoin="round" fill="none" transform="matrix(1 0 0 1.0127 655.046 541)"/><path d="M17.598 47.4067 40.3099 47.4067C42.5921 47.4067 44.4464 49.261 44.4464 51.5431L44.4464 52.6211 13.4616 52.6211 13.4616 51.5431C13.4616 49.261 15.3159 47.4067 17.598 47.4067Z" stroke="#42792E" stroke-width="1.99965" stroke-linecap="round" stroke-linejoin="round" fill="none" transform="matrix(1 0 0 1.0127 655.046 541)"/><path d="M54.0194 13.9176C54.0194 17.4418 51.1624 20.2988 47.6382 20.2988 44.1139 20.2988 41.257 17.4418 41.257 13.9176 41.257 10.3933 44.1139 7.53634 47.6382 7.53634 51.1624 7.53634 54.0194 10.3933 54.0194 13.9176Z" stroke="#42792E" stroke-width="1.99965" stroke-linecap="round" stroke-linejoin="round" fill="none" transform="matrix(1 0 0 1.0127 655.046 541)"/><path d="M47.6382 7.53634 47.6382 13.9176 41.2733 13.9176" stroke="#42792E" stroke-width="1.99965" stroke-linecap="round" stroke-linejoin="round" fill="none" transform="matrix(1 0 0 1.0127 655.046 541)"/><path d="M5.31729 6.48644 5.31729 31.4852 38.4744 31.4852" stroke="#42792E" stroke-width="1.99965" stroke-linecap="round" stroke-linejoin="round" fill="none" transform="matrix(1 0 0 1.0127 655.046 541)"/><path d="M3.25257 7.57141 5.31729 5.99306 7.37967 7.57141" stroke="#42792E" stroke-width="1.99965" stroke-linecap="round" stroke-linejoin="round" fill="none" transform="matrix(1 0 0 1.0127 655.046 541)"/><path d="M37.3263 29.4228 38.9046 31.4852 37.3263 33.5499" stroke="#42792E" stroke-width="1.99965" stroke-linecap="round" stroke-linejoin="round" fill="none" transform="matrix(1 0 0 1.0127 655.046 541)"/><path d="M9.61041 31.4852 9.61041 26.7899" stroke="#42792E" stroke-width="1.99965" stroke-linecap="round" stroke-linejoin="round" fill="none" transform="matrix(1 0 0 1.0127 655.046 541)"/><path d="M15.2387 31.4852 15.2387 21.3183" stroke="#42792E" stroke-width="1.99965" stroke-linecap="round" stroke-linejoin="round" fill="none" transform="matrix(1 0 0 1.0127 655.046 541)"/><path d="M20.8646 31.4852 20.8646 25.1741" stroke="#42792E" stroke-width="1.99965" stroke-linecap="round" stroke-linejoin="round" fill="none" transform="matrix(1 0 0 1.0127 655.046 541)"/><path d="M26.4929 31.4852 26.4929 22.1273" stroke="#42792E" stroke-width="1.99965" stroke-linecap="round" stroke-linejoin="round" fill="none" transform="matrix(1 0 0 1.0127 655.046 541)"/><path d="M32.1212 31.4852 32.1212 19.2255" stroke="#42792E" stroke-width="1.99965" stroke-linecap="round" stroke-linejoin="round" fill="none" transform="matrix(1 0 0 1.0127 655.046 541)"/><path d="M11.3225 22.2776C11.3225 23.345 10.4572 24.2103 9.38977 24.2103 8.32237 24.2103 7.45707 23.345 7.45707 22.2776 7.45707 21.2102 8.32237 20.3449 9.38977 20.3449 10.4572 20.3449 11.3225 21.2102 11.3225 22.2776Z" stroke="#42792E" stroke-width="2.00096" stroke-linecap="round" stroke-linejoin="round" fill="none" transform="matrix(0.229559 -0.984975 0.972619 0.232475 640.607 567.612)"/><path d="M22.6768 22.2279C22.0034 23.2287 20.6448 23.4906 19.6464 22.8171 18.6479 22.1437 18.3837 20.7851 19.0571 19.7867 19.7306 18.7882 21.0891 18.524 22.0876 19.1974 23.086 19.8709 23.3503 21.2294 22.6768 22.2279Z" stroke="#42792E" stroke-width="1.99965" stroke-linecap="round" stroke-linejoin="round" fill="none" transform="matrix(1 0 0 1.0127 655.046 541)"/><path d="M33.9311 12.9869C33.2576 13.9877 31.8991 14.2496 30.9006 13.5762 29.9022 12.9027 29.6379 11.5442 30.3114 10.5457 30.9848 9.54728 32.3434 9.28305 33.3418 9.95648 34.3403 10.6299 34.6045 11.9885 33.9311 12.9869Z" stroke="#42792E" stroke-width="1.99965" stroke-linecap="round" stroke-linejoin="round" fill="none" transform="matrix(1 0 0 1.0127 655.046 541)"/><path d="M17.5323 12.591C17.5323 13.8047 16.5483 14.7887 15.3346 14.7887 14.1208 14.7887 13.1369 13.8047 13.1369 12.591 13.1369 11.3772 14.1208 10.3933 15.3346 10.3933 16.5483 10.3933 17.5323 11.3772 17.5323 12.591Z" stroke="#42792E" stroke-width="2.01223" stroke-linecap="round" stroke-linejoin="round" fill="none" transform="matrix(0.702686 -0.711613 0.702686 0.711613 650.662 555.622)"/><path d="M12.9682 16.3494 11.75 18.8233" stroke="#42792E" stroke-width="1.99965" stroke-linecap="round" stroke-linejoin="round" fill="none" transform="matrix(1 0 0 1.0127 655.046 541)"/><path d="M18.4585 17.1421 17.7968 16.0057" stroke="#42792E" stroke-width="1.99965" stroke-linecap="round" stroke-linejoin="round" fill="none" transform="matrix(1 0 0 1.0127 655.046 541)"/><path d="M28.4431 14.619 24.7696 18.0797" stroke="#42792E" stroke-width="1.99965" stroke-linecap="round" stroke-linejoin="round" fill="none" transform="matrix(1 0 0 1.0127 655.046 541)"/><path d="M44.402 24.8468 51.4192 24.8468" stroke="#42792E" stroke-width="1.99965" stroke-linecap="round" stroke-linejoin="round" fill="none" transform="matrix(1 0 0 1.0127 655.046 541)"/><path d="M44.402 30.7744 51.4192 30.7744" stroke="#42792E" stroke-width="1.99965" stroke-linecap="round" stroke-linejoin="round" fill="none" transform="matrix(1 0 0 1.0127 655.046 541)"/></g></svg>