<svg width="581" height="366" xmlns="http://www.w3.org/2000/svg" xmlns:xlink="http://www.w3.org/1999/xlink" xml:space="preserve" overflow="hidden"><defs><clipPath id="clip0"><rect x="550" y="4442" width="581" height="366"/></clipPath></defs><g clip-path="url(#clip0)" transform="translate(-550 -4442)"><path d="M737.101 4691.81 687.429 4667.11C684.119 4665.48 680.201 4665.65 677.056 4667.58 673.92 4669.52 672 4672.93 672 4676.6L672 4774.48C672 4777.93 673.685 4781.16 676.517 4783.14 679.358 4785.12 682.981 4785.61 686.247 4784.46L703.821 4778.22 723.915 4803.92C725.973 4806.54 729.109 4808 732.332 4808 733.488 4808 734.66 4807.81 735.799 4807.43 740.107 4805.96 743 4801.92 743 4797.39L743 4701.27C743 4697.25 740.715 4693.59 737.11 4691.78Z" fill="#3A8B95" fill-rule="evenodd"/><path d="M661.35 4691.06 598.483 4657.65C594.593 4653.61 582.361 4639.49 581.783 4621.36 581.438 4610.81 585.156 4600.21 592.842 4589.71L795.107 4697.21C797.427 4698.45 799.989 4699.07 802.56 4699.07 804.423 4699.07 806.295 4698.74 808.089 4698.08L1120.65 4582.09C1126.51 4579.91 1130.55 4574.5 1130.96 4568.26 1131.39 4562.03 1128.09 4556.13 1122.57 4553.19L926.577 4449.03C911.412 4440.98 893.487 4439.79 877.374 4445.75L583.56 4554.78C583.172 4554.92 582.792 4555.09 582.413 4555.26 582.413 4555.26 582.404 4555.26 582.395 4555.26 581.714 4555.57 581.05 4555.93 580.403 4556.34 580.386 4556.35 580.377 4556.36 580.36 4556.37 580.058 4556.57 579.765 4556.78 579.471 4556.99 579.463 4556.99 579.454 4557.01 579.445 4557.01 579.161 4557.22 578.885 4557.45 578.617 4557.68 578.566 4557.72 578.523 4557.77 578.471 4557.81 578.272 4557.99 578.074 4558.17 577.876 4558.37 577.806 4558.44 577.729 4558.51 577.66 4558.59 577.617 4558.63 577.574 4558.67 577.53 4558.72 558.424 4578.65 549.185 4600.22 550.056 4622.82 551.402 4657.83 577.306 4681.41 578.41 4682.4 579.359 4683.25 580.42 4683.99 581.55 4684.59L661.359 4727 661.359 4691.04Z" fill="#3A8B95" fill-rule="evenodd"/><path d="M1130.01 4662.36C1126.95 4654.13 1117.81 4649.96 1109.58 4652.98L803.534 4766.7 753 4739.81 753 4775.83 794.912 4798.13C797.234 4799.38 799.797 4800 802.369 4800 804.234 4800 806.106 4799.67 807.902 4799.01L1120.64 4682.8C1128.87 4679.75 1133.06 4670.6 1130 4662.36Z" fill="#3A8B95" fill-rule="evenodd"/></g></svg>