<svg width="88" height="87" xmlns="http://www.w3.org/2000/svg" xmlns:xlink="http://www.w3.org/1999/xlink" xml:space="preserve" overflow="hidden"><defs><clipPath id="clip0"><rect x="300" y="203" width="88" height="87"/></clipPath></defs><g clip-path="url(#clip0)" transform="translate(-300 -203)"><path d="M104.542 57.4295 95.9815 56.4496 95.0038 47.8895 104.785 38.1078 107.17 45.2612 114.323 47.6456 104.542 57.4295Z" stroke="#42792E" stroke-width="3.04862" stroke-linecap="round" stroke-linejoin="round" fill="none" transform="matrix(1 0 0 1.0149 269.322 168.747)"/><path d="M70.2359 82.1952 95.9815 56.4496" stroke="#42792E" stroke-width="3.04862" stroke-linecap="round" stroke-linejoin="round" fill="none" transform="matrix(1 0 0 1.0149 269.322 168.747)"/><path d="M90.1369 74.2688C93.2029 81.9774 91.6176 91.1037 85.381 97.3425 77.0169 105.707 63.4549 105.707 55.0908 97.3425 46.7267 88.9784 46.7267 75.4164 55.0908 67.0523 61.3274 60.8157 70.4558 59.2304 78.1645 62.2964" stroke="#42792E" stroke-width="3.04862" stroke-linecap="round" fill="none" transform="matrix(1 0 0 1.0149 269.322 168.747)"/><path d="M84.3837 53.3444C72.3895 47.4605 57.4905 49.5053 47.5171 59.4786 34.9699 72.0259 34.9699 92.3667 47.5171 104.912 60.0644 117.459 80.4052 117.459 92.9525 104.912 102.926 94.9384 104.971 80.0394 99.0867 68.0452" stroke="#42792E" stroke-width="3.04862" stroke-linecap="round" fill="none" transform="matrix(1 0 0 1.0149 269.322 168.747)"/><path d="M71.7036 71.5904C68.496 71.1483 65.1295 72.1587 62.6644 74.6259 58.4813 78.8091 58.4813 85.5879 62.6644 89.771 66.8476 93.952 73.6264 93.9542 77.8095 89.771 80.2746 87.306 81.285 83.9373 80.8451 80.7297" stroke="#42792E" stroke-width="3.04862" stroke-linecap="round" fill="none" transform="matrix(1 0 0 1.0149 269.322 168.747)"/><path d="M11.6936 11.8722 10.1889 11.8722 10.1889 13.0459 11.87 13.0459 11.87 13.6448 9.45944 13.6448 9.45944 9.65324 11.7807 9.65324 11.7807 10.2521 10.1868 10.2521 10.1868 11.2821 11.6915 11.2821 11.6915 11.8744Z" fill="#444444" transform="matrix(1 0 0 1.0149 269.322 168.747)"/><path d="M15.1168 9.43766 15.1168 12.8303C15.1168 13.1265 15.1277 13.4466 15.1408 13.6426L14.4897 13.6426 14.4592 13.1875 14.4483 13.1875C14.2763 13.5076 13.9278 13.7079 13.5076 13.7079 12.8195 13.7079 12.2751 13.1221 12.2751 12.2337 12.2685 11.269 12.8739 10.6941 13.5664 10.6941 13.9627 10.6941 14.248 10.8596 14.3786 11.073L14.3895 11.073 14.3895 9.43766 15.119 9.43766ZM14.3873 11.9615C14.3873 11.9027 14.3808 11.8308 14.3699 11.772 14.3046 11.4868 14.0737 11.2559 13.7428 11.2559 13.2746 11.2559 13.0133 11.6697 13.0133 12.2097 13.0133 12.7498 13.2746 13.1221 13.7362 13.1221 14.0324 13.1221 14.2937 12.9196 14.3634 12.6061 14.3808 12.5407 14.3873 12.471 14.3873 12.3926L14.3873 11.9593Z" fill="#444444" transform="matrix(1 0 0 1.0149 269.322 168.747)"/><path d="M16.6738 9.95375C16.6738 10.1737 16.5148 10.3435 16.26 10.3435 16.0053 10.3435 15.8572 10.1715 15.8572 9.95375 15.8572 9.73599 16.0227 9.55743 16.2666 9.55743 16.5105 9.55743 16.6694 9.72946 16.676 9.95375ZM15.8986 13.6426 15.8986 10.7573 16.6324 10.7573 16.6324 13.6426 15.8986 13.6426Z" fill="#444444" transform="matrix(1 0 0 1.0149 269.322 168.747)"/><path d="M18.2504 9.93633 18.2504 10.7595 18.9428 10.7595 18.9428 11.3039 18.2504 11.3039 18.2504 12.5777C18.2504 12.9283 18.3462 13.1113 18.6227 13.1113 18.7468 13.1113 18.8427 13.0938 18.908 13.0764L18.9189 13.6339C18.8122 13.6752 18.6227 13.7057 18.3919 13.7057 18.1262 13.7057 17.8998 13.6165 17.7648 13.4684 17.6101 13.3029 17.5405 13.0416 17.5405 12.6627L17.5405 11.306 17.1267 11.306 17.1267 10.7616 17.5405 10.7616 17.5405 10.1105 18.2504 9.93851Z" fill="#444444" transform="matrix(1 0 0 1.0149 269.322 168.747)"/><path d="M21.1161 13.6426 21.0682 13.3225 21.0507 13.3225C20.8722 13.5468 20.5717 13.7079 20.1971 13.7079 19.6157 13.7079 19.2912 13.2876 19.2912 12.8499 19.2912 12.1205 19.9358 11.7546 21.0028 11.759L21.0028 11.7111C21.0028 11.5216 20.9266 11.208 20.4171 11.208 20.1318 11.208 19.8356 11.2973 19.6418 11.4214L19.5003 10.9467C19.7137 10.8161 20.0861 10.692 20.5434 10.692 21.4667 10.692 21.7345 11.2777 21.7345 11.907L21.7345 12.9501C21.7345 13.2114 21.7454 13.4662 21.7759 13.6426L21.1182 13.6426ZM21.0202 12.2337C20.5042 12.2228 20.0142 12.3339 20.0142 12.7737 20.0142 13.059 20.1971 13.1896 20.4279 13.1896 20.7176 13.1896 20.931 13.0002 20.9963 12.7933 21.0137 12.7389 21.0202 12.6801 21.0202 12.6344L21.0202 12.238Z" fill="#444444" transform="matrix(1 0 0 1.0149 269.322 168.747)"/><path d="M22.4771 13.6426C22.4879 13.4466 22.501 13.1265 22.501 12.8303L22.501 9.43766 23.2305 9.43766 23.2305 11.1558 23.2414 11.1558C23.42 10.877 23.7335 10.6941 24.1647 10.6941 24.8702 10.6941 25.3732 11.2799 25.3667 12.1575 25.3667 13.194 24.7091 13.7079 24.058 13.7079 23.6856 13.7079 23.3524 13.5664 23.1456 13.2114L23.1347 13.2114 23.0998 13.6448 22.4771 13.6448ZM23.2305 12.4536C23.2305 12.5124 23.237 12.5712 23.2479 12.6257 23.3241 12.9153 23.5789 13.1352 23.8925 13.1352 24.3476 13.1352 24.6263 12.7672 24.6263 12.188 24.6263 11.6784 24.3824 11.2647 23.8968 11.2647 23.6007 11.2647 23.335 11.4781 23.2523 11.7982 23.2414 11.8526 23.2283 11.9158 23.2283 11.9876L23.2283 12.4558Z" fill="#444444" transform="matrix(1 0 0 1.0149 269.322 168.747)"/><path d="M25.9655 9.43766 26.6994 9.43766 26.6994 13.6426 25.9655 13.6426 25.9655 9.43766Z" fill="#444444" transform="matrix(1 0 0 1.0149 269.322 168.747)"/><path d="M28.0038 12.4057C28.0212 12.9262 28.4306 13.1526 28.8922 13.1526 29.2298 13.1526 29.4715 13.1047 29.6914 13.022L29.7981 13.525C29.5499 13.6252 29.2058 13.7036 28.7921 13.7036 27.8557 13.7036 27.3048 13.1287 27.3048 12.2468 27.3048 11.4476 27.7904 10.6963 28.7137 10.6963 29.637 10.6963 29.9571 11.4672 29.9571 12.1009 29.9571 12.2359 29.9462 12.3447 29.9331 12.4079L28.0016 12.4079ZM29.2711 11.8962C29.2777 11.6305 29.1579 11.1906 28.6723 11.1906 28.2215 11.1906 28.0321 11.6 28.0038 11.8962L29.2711 11.8962Z" fill="#444444" transform="matrix(1 0 0 1.0149 269.322 168.747)"/><path d="M31.734 12.9741C31.8995 13.0742 32.213 13.1809 32.4744 13.1809 32.7945 13.1809 32.936 13.0503 32.936 12.8608 32.936 12.6714 32.8184 12.5647 32.4635 12.4406 31.9017 12.2446 31.6643 11.9375 31.6708 11.6 31.6708 11.0905 32.0911 10.6941 32.7596 10.6941 33.0797 10.6941 33.3585 10.7769 33.524 10.8662L33.3824 11.3822C33.2583 11.3104 33.0275 11.2168 32.7727 11.2168 32.5179 11.2168 32.3698 11.3409 32.3698 11.5194 32.3698 11.698 32.5048 11.7916 32.8729 11.9223 33.3933 12.1117 33.6372 12.3796 33.6437 12.8042 33.6437 13.3247 33.2343 13.7036 32.47 13.7036 32.1216 13.7036 31.8058 13.6208 31.5946 13.501L31.7362 12.9741Z" fill="#444444" transform="matrix(1 0 0 1.0149 269.322 168.747)"/><path d="M35.0744 9.93633 35.0744 10.7595 35.7669 10.7595 35.7669 11.3039 35.0744 11.3039 35.0744 12.5777C35.0744 12.9283 35.168 13.1113 35.4468 13.1113 35.5709 13.1113 35.6667 13.0938 35.7299 13.0764L35.7407 13.6339C35.634 13.6752 35.4446 13.7057 35.2138 13.7057 34.9481 13.7057 34.7216 13.6165 34.5866 13.4684 34.432 13.3029 34.3623 13.0416 34.3623 12.6627L34.3623 11.306 33.9486 11.306 33.9486 10.7616 34.3623 10.7616 34.3623 10.1105 35.0722 9.93851Z" fill="#444444" transform="matrix(1 0 0 1.0149 269.322 168.747)"/><path d="M36.3178 11.6893C36.3178 11.2973 36.3113 11.0208 36.2938 10.7595L36.9275 10.7595 36.9515 11.3104 36.9754 11.3104C37.117 10.901 37.4545 10.6941 37.7637 10.6941 37.8356 10.6941 37.877 10.7007 37.9357 10.7116L37.9357 11.3997C37.877 11.3888 37.8116 11.3757 37.7223 11.3757 37.3739 11.3757 37.1366 11.6 37.0712 11.9266 37.0604 11.992 37.0473 12.0682 37.0473 12.1509L37.0473 13.6426 36.32 13.6426 36.32 11.6871Z" fill="#444444" transform="matrix(1 0 0 1.0149 269.322 168.747)"/><path d="M41.115 12.1749C41.115 13.2354 40.3681 13.7079 39.6343 13.7079 38.8177 13.7079 38.1883 13.1461 38.1883 12.2206 38.1883 11.2951 38.8111 10.692 39.68 10.692 40.5489 10.692 41.1128 11.2951 41.1128 12.1727ZM38.9418 12.2032C38.9418 12.7607 39.214 13.1809 39.6582 13.1809 40.072 13.1809 40.3638 12.7715 40.3638 12.1923 40.3638 11.7415 40.1634 11.2276 39.6647 11.2276 39.1661 11.2276 38.9418 11.7241 38.9418 12.2054Z" fill="#444444" transform="matrix(1 0 0 1.0149 269.322 168.747)"/><path d="M42.4434 12.0268 42.4542 12.0268C42.5261 11.9136 42.6088 11.7895 42.6851 11.6893L43.3841 10.7595 44.2595 10.7595 43.1924 11.9375 44.4119 13.6426 43.5169 13.6426 42.6872 12.3687 42.439 12.6583 42.439 13.6426 41.7095 13.6426 41.7095 9.43766 42.439 9.43766 42.439 12.0268Z" fill="#444444" transform="matrix(1 0 0 1.0149 269.322 168.747)"/><path d="M45.2024 12.4057C45.2198 12.9262 45.6292 13.1526 46.0908 13.1526 46.4283 13.1526 46.6722 13.1047 46.89 13.022L46.9967 13.525C46.7484 13.6252 46.4044 13.7036 45.9906 13.7036 45.0543 13.7036 44.5033 13.1287 44.5033 12.2468 44.5033 11.4476 44.989 10.6963 45.9122 10.6963 46.8355 10.6963 47.1557 11.4672 47.1557 12.1009 47.1557 12.2359 47.1448 12.3447 47.1317 12.4079L45.2002 12.4079ZM46.4697 11.8962C46.4762 11.6305 46.3565 11.1906 45.8709 11.1906 45.4201 11.1906 45.2307 11.6 45.2024 11.8962L46.4697 11.8962Z" fill="#444444" transform="matrix(1 0 0 1.0149 269.322 168.747)"/><path d="M7.61067 11.5107 6.89206 11.5107 6.89206 9.7643C6.89206 8.20733 8.15289 6.89206 9.64453 6.89206L28.3086 6.89206 28.3086 7.61067 9.64453 7.61067C8.5601 7.61067 7.61067 8.61671 7.61067 9.7643L7.61067 11.5107Z" fill="#444444" transform="matrix(1 0 0 1.0149 269.322 168.747)"/><path d="M27.59 6.53276 29.0251 6.53276 29.0251 7.96779 27.59 7.96779Z" fill="#444444" transform="matrix(1 0 0 1.0149 269.322 168.747)"/><path d="M6.53276 10.7921 7.96779 10.7921 7.96779 12.2272 6.53276 12.2272Z" fill="#444444" transform="matrix(1 0 0 1.0149 269.322 168.747)"/><path d="M46.9727 16.2252 28.3086 16.2252 28.3086 15.5066 46.9727 15.5066C48.0942 15.5066 49.0066 14.5942 49.0066 13.4727L49.0066 11.5107 49.7252 11.5107 49.7252 13.4727C49.7252 14.9905 48.4905 16.2252 46.9727 16.2252Z" fill="#444444" transform="matrix(1 0 0 1.0149 269.322 168.747)"/><path d="M27.59 15.1473 29.0251 15.1473 29.0251 16.5823 27.59 16.5823Z" fill="#444444" transform="matrix(1 0 0 1.0149 269.322 168.747)"/><path d="M48.6495 10.7921 50.0845 10.7921 50.0845 12.2272 48.6495 12.2272Z" fill="#444444" transform="matrix(1 0 0 1.0149 269.322 168.747)"/></g></svg>