<svg width="89" height="87" xmlns="http://www.w3.org/2000/svg" xmlns:xlink="http://www.w3.org/1999/xlink" xml:space="preserve" overflow="hidden"><defs><clipPath id="clip0"><rect x="297" y="203" width="89" height="87"/></clipPath></defs><g clip-path="url(#clip0)" transform="translate(-297 -203)"><path d="M105.73 58.0821 97.0722 57.0911 96.0834 48.4337 105.976 38.5408 108.388 45.7755 115.622 48.187 105.73 58.0821Z" stroke="#42792E" stroke-width="3.08327" stroke-linecap="round" stroke-linejoin="round" fill="none" transform="matrix(1 0 0 1.0035 265.973 168.747)"/><path d="M71.034 83.1292 97.0722 57.0911" stroke="#42792E" stroke-width="3.08327" stroke-linecap="round" stroke-linejoin="round" fill="none" transform="matrix(1 0 0 1.0035 265.973 168.747)"/><path d="M91.1611 75.1127C94.262 82.909 92.6587 92.139 86.3512 98.4487 77.8921 106.908 64.176 106.908 55.7168 98.4487 47.2577 89.9895 47.2577 76.2734 55.7168 67.8142 62.0243 61.5067 71.2565 59.9034 79.0527 63.0043" stroke="#42792E" stroke-width="3.08327" stroke-linecap="round" fill="none" transform="matrix(1 0 0 1.0035 265.973 168.747)"/><path d="M85.3426 53.9505C73.2121 47.9998 58.1438 50.0678 48.0571 60.1545 35.3673 72.8444 35.3673 93.4163 48.0571 106.104 60.7469 118.794 81.3189 118.794 94.0088 106.104 104.095 96.0173 106.163 80.9489 100.213 68.8185" stroke="#42792E" stroke-width="3.08327" stroke-linecap="round" fill="none" transform="matrix(1 0 0 1.0035 265.973 168.747)"/><path d="M72.5184 72.4039C69.2744 71.9568 65.8696 72.9787 63.3765 75.4739 59.1458 79.7046 59.1458 86.5605 63.3765 90.7912 67.6072 95.0196 74.4631 95.0218 78.6937 90.7912 81.1868 88.2981 82.2087 84.8911 81.7638 81.6471" stroke="#42792E" stroke-width="3.08327" stroke-linecap="round" fill="none" transform="matrix(1 0 0 1.0035 265.973 168.747)"/><path d="M11.8265 12.0071 10.3047 12.0071 10.3047 13.1942 12.0049 13.1942 12.0049 13.7998 9.56693 13.7998 9.56693 9.76294 11.9146 9.76294 11.9146 10.3686 10.3025 10.3686 10.3025 11.4103 11.8243 11.4103 11.8243 12.0093Z" fill="#444444" transform="matrix(1 0 0 1.0035 265.973 168.747)"/><path d="M15.2886 9.54491 15.2886 12.9761C15.2886 13.2757 15.2996 13.5994 15.3128 13.7976L14.6543 13.7976 14.6235 13.3373 14.6125 13.3373C14.4385 13.6611 14.0861 13.8637 13.6611 13.8637 12.9651 13.8637 12.4145 13.2713 12.4145 12.3727 12.4079 11.3971 13.0202 10.8157 13.7205 10.8157 14.1214 10.8157 14.4099 10.983 14.542 11.1989L14.553 11.1989 14.553 9.54491 15.2908 9.54491ZM14.5508 12.0974C14.5508 12.0379 14.5442 11.9653 14.5332 11.9058 14.4671 11.6173 14.2337 11.3839 13.8989 11.3839 13.4254 11.3839 13.1611 11.8023 13.1611 12.3485 13.1611 12.8947 13.4254 13.2713 13.8923 13.2713 14.1918 13.2713 14.4561 13.0664 14.5266 12.7493 14.5442 12.6832 14.5508 12.6128 14.5508 12.5335L14.5508 12.0952Z" fill="#444444" transform="matrix(1 0 0 1.0035 265.973 168.747)"/><path d="M16.8633 10.0669C16.8633 10.2893 16.7025 10.4611 16.4448 10.4611 16.1871 10.4611 16.0374 10.2871 16.0374 10.0669 16.0374 9.84663 16.2048 9.66604 16.4514 9.66604 16.6981 9.66604 16.8589 9.84002 16.8655 10.0669ZM16.0792 13.7976 16.0792 10.8795 16.8214 10.8795 16.8214 13.7976 16.0792 13.7976Z" fill="#444444" transform="matrix(1 0 0 1.0035 265.973 168.747)"/><path d="M18.4577 10.0492 18.4577 10.8817 19.1581 10.8817 19.1581 11.4323 18.4577 11.4323 18.4577 12.7207C18.4577 13.0752 18.5547 13.2602 18.8343 13.2602 18.9599 13.2602 19.0568 13.2426 19.1229 13.225L19.1339 13.7888C19.0259 13.8306 18.8343 13.8615 18.6009 13.8615 18.3322 13.8615 18.1032 13.7712 17.9666 13.6214 17.8103 13.454 17.7398 13.1898 17.7398 12.8066L17.7398 11.4345 17.3213 11.4345 17.3213 10.8839 17.7398 10.8839 17.7398 10.2254 18.4577 10.0514Z" fill="#444444" transform="matrix(1 0 0 1.0035 265.973 168.747)"/><path d="M21.356 13.7976 21.3076 13.4739 21.2899 13.4739C21.1094 13.7007 20.8054 13.8637 20.4266 13.8637 19.8386 13.8637 19.5105 13.4386 19.5105 12.996 19.5105 12.2582 20.1624 11.8882 21.2415 11.8926L21.2415 11.8441C21.2415 11.6525 21.1644 11.3354 20.6491 11.3354 20.3606 11.3354 20.061 11.4257 19.865 11.5512L19.7219 11.0711C19.9377 10.939 20.3143 10.8135 20.7768 10.8135 21.7106 10.8135 21.9815 11.4059 21.9815 12.0424L21.9815 13.0973C21.9815 13.3616 21.9925 13.6192 22.0233 13.7976L21.3582 13.7976ZM21.2591 12.3727C20.7372 12.3617 20.2416 12.474 20.2416 12.9189 20.2416 13.2074 20.4266 13.3395 20.6601 13.3395 20.953 13.3395 21.1688 13.1479 21.2349 12.9387 21.2525 12.8836 21.2591 12.8242 21.2591 12.7779L21.2591 12.3771Z" fill="#444444" transform="matrix(1 0 0 1.0035 265.973 168.747)"/><path d="M22.7325 13.7976C22.7435 13.5994 22.7567 13.2757 22.7567 12.9761L22.7567 9.54491 23.4945 9.54491 23.4945 11.2825 23.5055 11.2825C23.6861 11.0007 24.0032 10.8157 24.4393 10.8157 25.1528 10.8157 25.6616 11.4081 25.655 12.2956 25.655 13.3439 24.9899 13.8637 24.3314 13.8637 23.9548 13.8637 23.6178 13.7205 23.4086 13.3616L23.3976 13.3616 23.3623 13.7998 22.7325 13.7998ZM23.4945 12.5951C23.4945 12.6546 23.5011 12.7141 23.5121 12.7691 23.5892 13.062 23.8469 13.2845 24.164 13.2845 24.6243 13.2845 24.9062 12.9123 24.9062 12.3265 24.9062 11.8111 24.6595 11.3927 24.1684 11.3927 23.8689 11.3927 23.6002 11.6085 23.5165 11.9322 23.5055 11.9873 23.4923 12.0512 23.4923 12.1238L23.4923 12.5973Z" fill="#444444" transform="matrix(1 0 0 1.0035 265.973 168.747)"/><path d="M26.2606 9.54491 27.0028 9.54491 27.0028 13.7976 26.2606 13.7976 26.2606 9.54491Z" fill="#444444" transform="matrix(1 0 0 1.0035 265.973 168.747)"/><path d="M28.322 12.5467C28.3396 13.073 28.7537 13.3021 29.2205 13.3021 29.5619 13.3021 29.8064 13.2536 30.0288 13.1699L30.1367 13.6787C29.8857 13.78 29.5377 13.8593 29.1192 13.8593 28.1722 13.8593 27.615 13.2779 27.615 12.3859 27.615 11.5777 28.1062 10.8179 29.04 10.8179 29.9737 10.8179 30.2975 11.5975 30.2975 12.2384 30.2975 12.3749 30.2865 12.485 30.2733 12.5489L28.3198 12.5489ZM29.6038 12.0313C29.6104 11.7627 29.4892 11.3178 28.9981 11.3178 28.5422 11.3178 28.3506 11.7318 28.322 12.0313L29.6038 12.0313Z" fill="#444444" transform="matrix(1 0 0 1.0035 265.973 168.747)"/><path d="M32.0946 13.1215C32.262 13.2228 32.5791 13.3307 32.8434 13.3307 33.1671 13.3307 33.3103 13.1986 33.3103 13.007 33.3103 12.8154 33.1914 12.7075 32.8324 12.5819 32.2642 12.3837 32.0241 12.0732 32.0307 11.7318 32.0307 11.2165 32.4558 10.8157 33.1319 10.8157 33.4556 10.8157 33.7375 10.8993 33.9049 10.9896L33.7618 11.5116C33.6362 11.4389 33.4028 11.3442 33.1451 11.3442 32.8874 11.3442 32.7377 11.4697 32.7377 11.6503 32.7377 11.8309 32.8742 11.9256 33.2464 12.0578 33.7728 12.2494 34.0194 12.5203 34.026 12.9497 34.026 13.4761 33.612 13.8593 32.839 13.8593 32.4866 13.8593 32.1673 13.7756 31.9536 13.6545L32.0968 13.1215Z" fill="#444444" transform="matrix(1 0 0 1.0035 265.973 168.747)"/><path d="M35.473 10.0492 35.473 10.8817 36.1733 10.8817 36.1733 11.4323 35.473 11.4323 35.473 12.7207C35.473 13.0752 35.5677 13.2602 35.8496 13.2602 35.9751 13.2602 36.072 13.2426 36.1359 13.225L36.1469 13.7888C36.039 13.8306 35.8474 13.8615 35.6139 13.8615 35.3452 13.8615 35.1162 13.7712 34.9796 13.6214 34.8233 13.454 34.7528 13.1898 34.7528 12.8066L34.7528 11.4345 34.3344 11.4345 34.3344 10.8839 34.7528 10.8839 34.7528 10.2254 35.4708 10.0514Z" fill="#444444" transform="matrix(1 0 0 1.0035 265.973 168.747)"/><path d="M36.7305 11.8221C36.7305 11.4257 36.7239 11.146 36.7063 10.8817L37.3472 10.8817 37.3714 11.4389 37.3956 11.4389C37.5388 11.0249 37.8801 10.8157 38.1928 10.8157 38.2655 10.8157 38.3074 10.8223 38.3668 10.8333L38.3668 11.5292C38.3074 11.5182 38.2413 11.505 38.151 11.505 37.7986 11.505 37.5586 11.7318 37.4925 12.0622 37.4815 12.1282 37.4683 12.2053 37.4683 12.289L37.4683 13.7976 36.7327 13.7976 36.7327 11.8199Z" fill="#444444" transform="matrix(1 0 0 1.0035 265.973 168.747)"/><path d="M41.5822 12.3132C41.5822 13.3858 40.8268 13.8637 40.0847 13.8637 39.2588 13.8637 38.6223 13.2955 38.6223 12.3595 38.6223 11.4235 39.2522 10.8135 40.1309 10.8135 41.0096 10.8135 41.58 11.4235 41.58 12.311ZM39.3843 12.3419C39.3843 12.9057 39.6596 13.3307 40.1089 13.3307 40.5273 13.3307 40.8224 12.9167 40.8224 12.3309 40.8224 11.875 40.6198 11.3552 40.1155 11.3552 39.6112 11.3552 39.3843 11.8574 39.3843 12.3441Z" fill="#444444" transform="matrix(1 0 0 1.0035 265.973 168.747)"/><path d="M42.9257 12.1635 42.9367 12.1635C43.0093 12.049 43.093 11.9234 43.1701 11.8221L43.8771 10.8817 44.7624 10.8817 43.6833 12.0732 44.9166 13.7976 44.0114 13.7976 43.1723 12.5092 42.9213 12.8022 42.9213 13.7976 42.1835 13.7976 42.1835 9.54491 42.9213 9.54491 42.9213 12.1635Z" fill="#444444" transform="matrix(1 0 0 1.0035 265.973 168.747)"/><path d="M45.716 12.5467C45.7336 13.073 46.1477 13.3021 46.6146 13.3021 46.9559 13.3021 47.2026 13.2536 47.4228 13.1699L47.5307 13.6787C47.2797 13.78 46.9317 13.8593 46.5133 13.8593 45.5663 13.8593 45.0091 13.2779 45.0091 12.3859 45.0091 11.5777 45.5002 10.8179 46.434 10.8179 47.3678 10.8179 47.6915 11.5975 47.6915 12.2384 47.6915 12.3749 47.6805 12.485 47.6673 12.5489L45.7138 12.5489ZM46.9978 12.0313C47.0044 11.7627 46.8833 11.3178 46.3921 11.3178 45.9363 11.3178 45.7446 11.7318 45.716 12.0313L46.9978 12.0313Z" fill="#444444" transform="matrix(1 0 0 1.0035 265.973 168.747)"/><path d="M7.69715 11.6415 6.97038 11.6415 6.97038 9.87526C6.97038 8.30059 8.24553 6.97038 9.75413 6.97038L28.6303 6.97038 28.6303 7.69715 9.75413 7.69715C8.65737 7.69715 7.69715 8.71463 7.69715 9.87526L7.69715 11.6415Z" fill="#444444" transform="matrix(1 0 0 1.0035 265.973 168.747)"/><path d="M27.9036 6.607 29.3549 6.607 29.3549 8.05833 27.9036 8.05833Z" fill="#444444" transform="matrix(1 0 0 1.0035 265.973 168.747)"/><path d="M6.607 10.9148 8.05833 10.9148 8.05833 12.3661 6.607 12.3661Z" fill="#444444" transform="matrix(1 0 0 1.0035 265.973 168.747)"/><path d="M47.5065 16.4096 28.6303 16.4096 28.6303 15.6828 47.5065 15.6828C48.6407 15.6828 49.5635 14.76 49.5635 13.6258L49.5635 11.6415 50.2903 11.6415 50.2903 13.6258C50.2903 15.1609 49.0415 16.4096 47.5065 16.4096Z" fill="#444444" transform="matrix(1 0 0 1.0035 265.973 168.747)"/><path d="M27.9036 15.3194 29.3549 15.3194 29.3549 16.7708 27.9036 16.7708Z" fill="#444444" transform="matrix(1 0 0 1.0035 265.973 168.747)"/><path d="M49.2023 10.9148 50.6536 10.9148 50.6536 12.3661 49.2023 12.3661Z" fill="#444444" transform="matrix(1 0 0 1.0035 265.973 168.747)"/></g></svg>