<svg width="255" height="254" xmlns="http://www.w3.org/2000/svg" xmlns:xlink="http://www.w3.org/1999/xlink" xml:space="preserve" overflow="hidden"><g transform="translate(-1027 -1111)"><path d="M1273.54 1212.78C1273.54 1194.04 1269 1176.79 1259.97 1160.99 1250.91 1145.17 1237.81 1132.98 1220.67 1124.38 1203.55 1115.8 1183.95 1111.5 1161.94 1111.5 1135.98 1111.5 1112.88 1116.84 1092.67 1127.5 1072.49 1138.18 1056.56 1154.12 1044.96 1175.36 1033.32 1196.65 1027.5 1219.58 1027.5 1244.23 1027.5 1266.73 1032.59 1287.47 1042.86 1306.55 1053.04 1325.59 1068.69 1340.02 1089.66 1349.84 1110.66 1359.62 1135.55 1364.5 1164.43 1364.5 1193.3 1364.5 1219.52 1358.67 1240.21 1347.05 1258.34 1336.92 1271.77 1322.95 1280.5 1305.07L1252.52 1305.07C1243.34 1316.82 1231.2 1325.59 1216.16 1331.46 1201.17 1337.34 1183.19 1340.28 1162.33 1340.28 1141.46 1340.28 1121.36 1336.8 1104.58 1329.84 1087.73 1322.85 1074.67 1311.8 1065.35 1296.59 1056.06 1281.42 1051.39 1264.6 1051.39 1246.11 1051.39 1227.63 1055.54 1208.73 1063.92 1191.16 1072.24 1173.56 1084.63 1159.94 1101.11 1150.2 1117.58 1140.53 1137.69 1135.7 1161.37 1135.7 1189.26 1135.7 1210.96 1142.94 1226.55 1157.42 1242.08 1171.9 1249.87 1189.9 1249.87 1211.41 1249.87 1223.42 1247.1 1235.04 1241.59 1246.24 1236.09 1257.41 1228.87 1266.36 1219.96 1272.99 1213.29 1278.06 1207.86 1280.6 1203.66 1280.6 1202.28 1280.6 1201.05 1280.06 1200.09 1278.95 1199.05 1277.86 1198.56 1276.22 1198.56 1274.07 1198.56 1272.31 1199.18 1268.46 1200.39 1262.5L1220.22 1168.49 1185.62 1168.49 1182.34 1183.13C1174.95 1171.22 1163.46 1165.28 1147.91 1165.28 1126.08 1165.28 1108.17 1175.57 1094.14 1196.23 1082.66 1213.22 1076.88 1231.95 1076.88 1252.52 1076.88 1269.15 1081.67 1282.43 1091.25 1292.49 1100.83 1302.47 1112.88 1307.49 1127.36 1307.49 1140.8 1307.49 1152.71 1302.52 1163 1292.61 1164.25 1297.51 1166.67 1301.19 1170.33 1303.73 1174.03 1306.25 1179.48 1307.49 1186.73 1307.49 1213.65 1307.49 1235.71 1296.12 1252.9 1273.35 1266.63 1255.3 1273.49 1235.13 1273.49 1212.77L1273.49 1212.77ZM1175.24 1219.65C1175.24 1228.52 1173.58 1238.06 1170.22 1248.28 1166.87 1258.53 1162.89 1266.28 1158.22 1271.62 1155.01 1275.37 1151.73 1278.14 1148.42 1279.9 1144.08 1282.37 1139.41 1283.58 1134.47 1283.58 1127.83 1283.58 1122.27 1280.92 1117.77 1275.67 1113.27 1270.46 1111.05 1262.24 1111.05 1251.12 1111.05 1242.84 1112.64 1233.3 1115.87 1222.54 1119.09 1211.79 1123.9 1203.5 1130.24 1197.67 1136.59 1191.85 1143.54 1188.95 1151.05 1188.95 1158 1188.95 1163.77 1191.59 1168.38 1196.88 1172.95 1202.17 1175.24 1209.78 1175.24 1219.65L1175.24 1219.65Z" stroke="#F2F2F2" stroke-width="1.22234" stroke-miterlimit="8" fill="#3A8B95" fill-rule="evenodd"/></g></svg>