<svg width="70" height="66" xmlns="http://www.w3.org/2000/svg" xmlns:xlink="http://www.w3.org/1999/xlink" xml:space="preserve" overflow="hidden"><defs><clipPath id="clip0"><rect x="628" y="162" width="70" height="66"/></clipPath></defs><g clip-path="url(#clip0)" transform="translate(-628 -162)"><path d="M39.0739 9.68062C38.2255 9.16588 37.377 8.80734 36.5251 8.59079 37.4551 8.179 38.2326 7.45127 38.7118 6.49989 39.0278 5.86801 39.1875 5.18997 39.1875 4.48354 39.1875 2.00925 37.1712-0.00354991 34.6969-0.00354991 32.2226-0.00354991 30.2098 2.00925 30.2098 4.48354 30.2098 5.18997 30.3695 5.86801 30.6855 6.49989 31.1611 7.45482 31.9421 8.18255 32.8758 8.59434 32.0309 8.80734 31.1824 9.16588 30.3411 9.67707 27.345 11.4982 26.0067 14.3949 26.0067 19.063 26.0067 19.5032 26.3652 19.8618 26.8054 19.8618 27.2456 19.8618 27.6041 19.5032 27.6041 19.063 27.6041 13.905 29.4075 12.1123 31.1718 11.0402 33.5822 9.57412 35.8293 9.57412 38.2432 11.0402 40.0075 12.1123 41.8109 13.905 41.8109 19.063 41.8109 19.5032 42.1694 19.8618 42.6096 19.8618 43.0498 19.8618 43.4083 19.5032 43.4083 19.063 43.4083 14.3949 42.07 11.4982 39.0739 9.67707ZM32.1161 5.78636C31.9137 5.37812 31.8072 4.94148 31.8072 4.48354 31.8072 2.88963 33.1029 1.59391 34.6969 1.59391 36.2908 1.59391 37.59 2.88963 37.59 4.48354 37.59 4.94148 37.4871 5.37812 37.2847 5.78281 36.7913 6.76614 35.7973 7.37672 34.6969 7.37672 33.5964 7.37672 32.606 6.76614 32.1161 5.78636Z" stroke="#42792E" stroke-width="0.672254" fill="#42792E" transform="matrix(1.00649 0 0 1 628.065 162)"/><path d="M39.0739 55.8117C38.2255 55.297 37.377 54.9349 36.5251 54.7219 37.4551 54.3101 38.2326 53.5824 38.7118 52.631 39.0278 51.9991 39.1875 51.3211 39.1875 50.6147 39.1875 48.1404 37.1712 46.1276 34.6969 46.1276 32.2226 46.1276 30.2098 48.1404 30.2098 50.6147 30.2098 51.3211 30.3695 51.9991 30.6855 52.631 31.1611 53.586 31.9421 54.3137 32.8758 54.7255 32.0309 54.9385 31.186 55.297 30.3411 55.8117 27.345 57.6329 26.0067 60.5296 26.0067 65.1977 26.0067 65.6379 26.3652 65.9965 26.8054 65.9965 27.2456 65.9965 27.6041 65.6379 27.6041 65.1977 27.6041 60.0397 29.4075 58.247 31.1718 57.1749 33.5822 55.7088 35.8293 55.7088 38.2432 57.1749 40.0075 58.247 41.8109 60.0397 41.8109 65.1977 41.8109 65.6379 42.1694 65.9965 42.6096 65.9965 43.0498 65.9965 43.4083 65.6379 43.4083 65.1977 43.4083 60.5296 42.07 57.6329 39.0739 55.8117ZM32.1161 51.9175C31.9137 51.5093 31.8072 51.0726 31.8072 50.6147 31.8072 49.0208 33.1029 47.725 34.6969 47.725 36.2908 47.725 37.59 49.0208 37.59 50.6147 37.59 51.0691 37.4871 51.5093 37.2847 51.9139 36.7913 52.8973 35.7973 53.5079 34.6969 53.5079 33.5964 53.5079 32.606 52.8973 32.1161 51.9175Z" stroke="#42792E" stroke-width="0.672254" fill="#42792E" transform="matrix(1.00649 0 0 1 628.065 162)"/><path d="M65.0877 35.0873C64.2393 34.5726 63.3908 34.2105 62.5388 33.9975 63.4689 33.5857 64.2463 32.858 64.7256 31.9066 65.0415 31.2747 65.2013 30.5967 65.2013 29.8903 65.2013 27.416 63.1849 25.4032 60.7106 25.4032 58.2363 25.4032 56.2235 27.416 56.2235 29.8903 56.2235 30.5967 56.3833 31.2747 56.6992 31.9066 57.1749 32.8616 57.9559 33.5893 58.8895 34.0011 58.0446 34.2141 57.1998 34.5726 56.3549 35.0873 53.3588 36.9085 52.0204 39.8052 52.0204 44.4733 52.0204 44.9135 52.379 45.2721 52.8192 45.2721 53.2594 45.2721 53.6179 44.9135 53.6179 44.4733 53.6179 39.3153 55.4213 37.5226 57.1856 36.4505 59.596 34.9844 61.8431 34.9844 64.257 36.4505 66.0213 37.5226 67.8247 39.3153 67.8247 44.4733 67.8247 44.9135 68.1832 45.2721 68.6234 45.2721 69.0636 45.2721 69.4221 44.9135 69.4221 44.4733 69.4221 39.8052 68.0838 36.9085 65.0877 35.0873ZM58.1298 31.1931C57.9275 30.7849 57.821 30.3482 57.821 29.8903 57.821 28.2964 59.1167 27.0006 60.7106 27.0006 62.3045 27.0006 63.6038 28.2964 63.6038 29.8903 63.6038 30.3447 63.5009 30.7849 63.2985 31.1895 62.8015 32.1729 61.8111 32.7835 60.7106 32.7835 59.6102 32.7835 58.6197 32.1729 58.1298 31.1931Z" stroke="#42792E" stroke-width="0.672254" fill="#42792E" transform="matrix(1.00649 0 0 1 628.065 162)"/><path d="M8.71149 34.3845C7.00398 34.3845 5.46687 33.4366 4.69654 31.9137 4.38059 31.2783 4.22085 30.6003 4.22085 29.8938 4.22085 27.4195 6.2372 25.4067 8.71149 25.4067 11.1858 25.4067 13.1986 27.4195 13.1986 29.8938 13.1986 30.6003 13.0388 31.2783 12.7229 31.9102 11.9597 33.4366 10.4225 34.3845 8.71149 34.3845ZM8.71149 27.0042C7.11758 27.0042 5.81831 28.2999 5.81831 29.8938 5.81831 30.3482 5.92126 30.7884 6.12715 31.1966 6.62059 32.1764 7.61102 32.787 8.71149 32.787 9.81196 32.787 10.8024 32.1764 11.2923 31.1966 11.4946 30.7884 11.6011 30.3518 11.6011 29.8938 11.6011 28.2999 10.3054 27.0042 8.71149 27.0042Z" stroke="#42792E" stroke-width="0.672254" fill="#42792E" transform="matrix(1.00649 0 0 1 628.065 162)"/><path d="M16.5994 45.2756C16.1592 45.2756 15.8007 44.9171 15.8007 44.4769 15.8007 39.3188 13.9973 37.5261 12.233 36.4541 9.82261 34.988 7.57552 34.988 5.16157 36.4541 3.39727 37.5261 1.59391 39.3188 1.59391 44.4769 1.59391 44.9171 1.23537 45.2756 0.795181 45.2756 0.354991 45.2756-0.00354991 44.9171-0.00354991 44.4769-0.00354991 39.8087 1.33122 36.912 4.33089 35.0909 7.22763 33.3301 10.1634 33.3301 13.0601 35.0909 16.0563 36.9156 17.3946 39.8087 17.3946 44.4769 17.3946 44.9171 17.036 45.2756 16.5958 45.2756Z" stroke="#42792E" stroke-width="0.672254" fill="#42792E" transform="matrix(1.00649 0 0 1 628.065 162)"/><path d="M34.6969 43.2273C33.284 43.2273 32.5066 42.3008 32.2687 41.7541 32.2261 41.6547 32.2013 41.5446 32.2013 41.4346L32.2013 39.3401C32.2013 38.9 32.5598 38.5414 33 38.5414L36.3937 38.5414C36.8339 38.5414 37.1924 38.9 37.1924 39.3401L37.1924 41.4346C37.1924 41.5446 37.1712 41.6547 37.125 41.7541 36.8872 42.3008 36.1062 43.2273 34.6969 43.2273ZM33.7987 41.2216C33.9123 41.3742 34.1821 41.6298 34.6969 41.6298 35.2116 41.6298 35.4743 41.3813 35.595 41.2181L35.595 40.1389 33.7987 40.1389 33.7987 41.2216Z" stroke="#42792E" stroke-width="0.672254" fill="#42792E" transform="matrix(1.00649 0 0 1 628.065 162)"/><path d="M36.3937 40.1389 33 40.1389C32.6983 40.1389 32.4214 39.9685 32.2829 39.6951 32.1729 39.4715 32.1729 39.2088 32.2829 38.9887 32.2723 38.8858 32.1729 38.4136 31.2428 37.5474 30.192 36.5677 29.553 33.7774 30.3376 31.7824 30.721 30.8062 31.7966 29.1661 34.672 29.1661L34.7288 29.1661C37.6397 29.1661 38.7118 30.8452 39.0917 31.8463 39.8584 33.8662 39.1982 36.6209 38.1403 37.5581 37.2528 38.3462 37.0966 38.7828 37.0718 38.9071 37.2066 39.1201 37.2351 39.3863 37.1427 39.6277 37.0221 39.933 36.7274 40.1353 36.4008 40.1353ZM33.8307 38.5414 35.5098 38.5414C35.6624 37.8776 36.1772 37.1605 37.0753 36.3653 37.5119 35.9784 38.19 33.9869 37.5936 32.4143 37.1782 31.3173 36.2127 30.7636 34.7217 30.7636L34.6649 30.7636C33.1739 30.7636 32.2439 31.2889 31.8179 32.3646 31.2037 33.923 31.8853 35.9642 32.3255 36.376 33.2769 37.2634 33.6851 37.9841 33.8271 38.5379Z" stroke="#42792E" stroke-width="0.672254" fill="#42792E" transform="matrix(1.00649 0 0 1 628.065 162)"/><path d="M34.7111 28.2502C34.2709 28.2502 33.9123 27.8917 33.9123 27.4515L33.9123 22.9324C33.9123 22.4923 34.2709 22.1337 34.7111 22.1337 35.1512 22.1337 35.5098 22.4923 35.5098 22.9324L35.5098 27.4515C35.5098 27.8917 35.1512 28.2502 34.7111 28.2502Z" stroke="#42792E" stroke-width="0.672254" fill="#42792E" transform="matrix(1.00649 0 0 1 628.065 162)"/><path d="M45.3005 34.4981 40.7814 34.4981C40.3412 34.4981 39.9827 34.1395 39.9827 33.6993 39.9827 33.2591 40.3412 32.9006 40.7814 32.9006L45.3005 32.9006C45.7406 32.9006 46.0992 33.2591 46.0992 33.6993 46.0992 34.1395 45.7406 34.4981 45.3005 34.4981Z" stroke="#42792E" stroke-width="0.672254" fill="#42792E" transform="matrix(1.00649 0 0 1 628.065 162)"/><path d="M28.6372 34.4981 24.1181 34.4981C23.6779 34.4981 23.3194 34.1395 23.3194 33.6993 23.3194 33.2591 23.6779 32.9006 24.1181 32.9006L28.6372 32.9006C29.0773 32.9006 29.4359 33.2591 29.4359 33.6993 29.4359 34.1395 29.0773 34.4981 28.6372 34.4981Z" stroke="#42792E" stroke-width="0.672254" fill="#42792E" transform="matrix(1.00649 0 0 1 628.065 162)"/><path d="M29.9506 30.4441C29.7447 30.4441 29.5424 30.366 29.3862 30.2098L26.1913 27.0148C25.8789 26.7025 25.8789 26.1984 26.1913 25.886 26.5037 25.5736 27.0077 25.5736 27.3201 25.886L30.5151 29.0809C30.8275 29.3933 30.8275 29.8974 30.5151 30.2098 30.3589 30.366 30.153 30.4441 29.9506 30.4441Z" stroke="#42792E" stroke-width="0.672254" fill="#42792E" transform="matrix(1.00649 0 0 1 628.065 162)"/><path d="M39.4679 30.4441C39.2621 30.4441 39.0597 30.366 38.9035 30.2098 38.5911 29.8974 38.5911 29.3933 38.9035 29.0809L42.0984 25.886C42.4108 25.5736 42.9149 25.5736 43.2273 25.886 43.5397 26.1984 43.5397 26.7025 43.2273 27.0148L40.0324 30.2098C39.8762 30.366 39.6703 30.4441 39.4679 30.4441Z" stroke="#42792E" stroke-width="0.672254" fill="#42792E" transform="matrix(1.00649 0 0 1 628.065 162)"/></g></svg>